G04*
G04 #@! TF.GenerationSoftware,Altium Limited,Altium Designer,25.8.1 (18)*
G04*
G04 Layer_Color=65535*
%FSLAX44Y44*%
%MOMM*%
G71*
G04*
G04 #@! TF.SameCoordinates,C96D2FE9-1FD8-438A-A999-0EA797086850*
G04*
G04*
G04 #@! TF.FilePolarity,Positive*
G04*
G01*
G75*
%ADD10C,0.2000*%
%ADD11C,0.3250*%
%ADD12C,0.2500*%
%ADD13C,0.1524*%
%ADD14C,0.1000*%
D10*
X1252679Y244737D02*
G03*
X1252679Y242737I0J-1000D01*
G01*
D02*
G03*
X1252679Y244737I0J1000D01*
G01*
X212992Y187492D02*
G03*
X212992Y187492I-1000J0D01*
G01*
X885700Y110800D02*
G03*
X885700Y110800I-1000J0D01*
G01*
X685700D02*
G03*
X685700Y110800I-1000J0D01*
G01*
X485700D02*
G03*
X485700Y110800I-1000J0D01*
G01*
X285700D02*
G03*
X285700Y110800I-1000J0D01*
G01*
X1380750Y92500D02*
G03*
X1380750Y92500I-1000J0D01*
G01*
X1353779Y139262D02*
G03*
X1353779Y139262I-1000J0D01*
G01*
X1361620Y223874D02*
G03*
X1361620Y223874I-1000J0D01*
G01*
X955900Y148921D02*
G03*
X955900Y148921I-1000J0D01*
G01*
X861069Y101299D02*
G03*
X861069Y101299I-1000J0D01*
G01*
X755900Y148921D02*
G03*
X755900Y148921I-1000J0D01*
G01*
X661931Y102000D02*
G03*
X661931Y102000I-1000J0D01*
G01*
X555900Y161956D02*
G03*
X555900Y161956I-1000J0D01*
G01*
X461517Y109000D02*
G03*
X461517Y109000I-1000J0D01*
G01*
X355900Y161956D02*
G03*
X355900Y161956I-1000J0D01*
G01*
X261288Y109000D02*
G03*
X261288Y109000I-1000J0D01*
G01*
D11*
X197400Y248501D02*
G03*
X197400Y248501I-1625J0D01*
G01*
D12*
X1237238Y152311D02*
G03*
X1237238Y152311I-1250J0D01*
G01*
D13*
X51500Y30000D02*
G03*
X51500Y30000I-21500J0D01*
G01*
Y270000D02*
G03*
X51500Y270000I-21500J0D01*
G01*
X1441500Y30000D02*
G03*
X1441500Y30000I-21500J0D01*
G01*
Y270000D02*
G03*
X1441500Y270000I-21500J0D01*
G01*
X1258179Y248237D02*
X1259679D01*
X1258179Y246737D02*
Y248237D01*
Y203237D02*
Y204737D01*
Y203237D02*
X1259679D01*
X1281679D02*
X1283179D01*
Y204737D01*
X1281679Y248237D02*
X1283179D01*
Y246737D02*
Y248237D01*
X127192Y101692D02*
Y124542D01*
X228792D01*
Y101692D02*
Y124542D01*
X1202526Y255357D02*
Y264223D01*
X1192485Y243899D02*
Y252817D01*
Y243899D02*
X1202599D01*
Y252817D01*
X1192539Y264223D02*
X1202526D01*
X1192539Y255357D02*
Y264223D01*
X1298266Y281704D02*
X1307132D01*
X1309671Y271662D02*
X1318589D01*
Y281776D01*
X1309671D02*
X1318589D01*
X1298266Y271716D02*
Y281704D01*
Y271716D02*
X1307132D01*
X1298066Y269518D02*
X1306932D01*
X1309472Y259477D02*
X1318389D01*
Y269591D01*
X1309472D02*
X1318389D01*
X1298066Y259531D02*
Y269518D01*
Y259531D02*
X1306932D01*
X235602Y199942D02*
X244468D01*
X224144Y209983D02*
X233062D01*
X224144Y199870D02*
Y209983D01*
Y199870D02*
X233062D01*
X244468Y199942D02*
Y209930D01*
X235602D02*
X244468D01*
X237033Y212924D02*
X245898D01*
X225575Y222965D02*
X234493D01*
X225575Y212852D02*
Y222965D01*
Y212852D02*
X234493D01*
X245898Y212924D02*
Y222912D01*
X237033D02*
X245898D01*
X1303568Y35776D02*
X1309837Y29507D01*
X1302567Y50978D02*
X1308872Y44672D01*
X1295415Y43827D02*
X1302567Y50978D01*
X1295415Y43827D02*
X1301721Y37521D01*
X1309837Y29507D02*
X1316899Y36569D01*
X1310630Y42839D02*
X1316899Y36569D01*
X1285829Y17456D02*
X1292098Y11187D01*
X1284828Y32658D02*
X1291134Y26352D01*
X1277676Y25506D02*
X1284828Y32658D01*
X1277676Y25506D02*
X1283982Y19201D01*
X1292098Y11187D02*
X1299161Y18249D01*
X1292892Y24518D02*
X1299161Y18249D01*
X1294701Y26615D02*
X1300970Y20346D01*
X1293700Y41817D02*
X1300006Y35511D01*
X1286548Y34666D02*
X1293700Y41817D01*
X1286548Y34666D02*
X1292854Y28360D01*
X1300970Y20346D02*
X1308033Y27408D01*
X1301764Y33677D02*
X1308033Y27408D01*
X1323498Y64727D02*
X1329767Y58458D01*
X1322496Y79929D02*
X1328802Y73624D01*
X1315345Y72778D02*
X1322496Y79929D01*
X1315345Y72778D02*
X1321651Y66472D01*
X1329767Y58458D02*
X1336829Y65521D01*
X1330560Y71790D02*
X1336829Y65521D01*
X1246258Y176355D02*
X1252526Y182624D01*
X1231056Y175353D02*
X1237361Y181659D01*
X1231056Y175353D02*
X1238207Y168202D01*
X1244513Y174508D01*
X1245464Y189686D02*
X1252526Y182624D01*
X1239195Y183417D02*
X1245464Y189686D01*
X1311709Y59437D02*
X1317978Y53168D01*
X1312674Y44271D02*
X1318979Y37966D01*
X1326131Y45117D01*
X1319825Y51423D02*
X1326131Y45117D01*
X1304647Y52374D02*
X1311709Y59437D01*
X1304647Y52374D02*
X1310916Y46105D01*
X1263897Y181255D02*
X1272762D01*
X1275302Y171214D02*
X1284220D01*
Y181328D01*
X1275302D02*
X1284220D01*
X1263897Y171268D02*
Y181255D01*
Y171268D02*
X1272762D01*
X1373362Y43137D02*
X1382227D01*
X1361904Y53179D02*
X1370822D01*
X1361904Y43065D02*
Y53179D01*
Y43065D02*
X1370822D01*
X1382227Y43137D02*
Y53125D01*
X1373362D02*
X1382227D01*
X1359603Y56338D02*
Y65204D01*
X1369644Y67744D02*
Y76662D01*
X1359530D02*
X1369644D01*
X1359530Y67744D02*
Y76662D01*
X1359603Y56338D02*
X1369590D01*
Y65204D01*
X1037450Y-30000D02*
Y67300D01*
X893950Y-30000D02*
X1037450D01*
X893950D02*
Y67300D01*
Y108300D02*
Y135000D01*
X1037450Y108300D02*
Y135000D01*
X893950D02*
X1037450D01*
X0Y105300D02*
Y194700D01*
X13800D01*
X38200D02*
X54100D01*
X0Y105300D02*
X13800D01*
X38200D02*
X54100D01*
X837450Y-30000D02*
Y67300D01*
X693950Y-30000D02*
X837450D01*
X693950D02*
Y67300D01*
Y108300D02*
Y135000D01*
X837450Y108300D02*
Y135000D01*
X693950D02*
X837450D01*
X637450Y-30000D02*
Y67300D01*
X493950Y-30000D02*
X637450D01*
X493950D02*
Y67300D01*
Y108300D02*
Y135000D01*
X637450Y108300D02*
Y135000D01*
X493950D02*
X637450D01*
X437450Y-30000D02*
Y67300D01*
X293950Y-30000D02*
X437450D01*
X293950D02*
Y67300D01*
Y108300D02*
Y135000D01*
X437450Y108300D02*
Y135000D01*
X293950D02*
X437450D01*
X1335580Y164262D02*
X1345580D01*
X1335580Y135862D02*
X1345580D01*
X1361120Y236674D02*
Y240374D01*
X1371120Y236674D02*
Y240374D01*
X1370320D02*
X1371120D01*
X1361120D02*
X1361920D01*
X979900Y156121D02*
Y166121D01*
X951500Y156121D02*
Y166121D01*
X860569Y114099D02*
Y117799D01*
X870569Y114099D02*
Y117799D01*
X869769D02*
X870569D01*
X860569D02*
X861369D01*
X779900Y156121D02*
Y166121D01*
X751500Y156121D02*
Y166121D01*
X661431Y114800D02*
Y118500D01*
X671431Y114800D02*
Y118500D01*
X670631D02*
X671431D01*
X661431D02*
X662231D01*
X579900Y169156D02*
Y179156D01*
X551500Y169156D02*
Y179156D01*
X461017Y121800D02*
Y125500D01*
X471017Y121800D02*
Y125500D01*
X470217D02*
X471017D01*
X461017D02*
X461817D01*
X379900Y169156D02*
Y179156D01*
X351500Y169156D02*
Y179156D01*
X260788Y121800D02*
Y125500D01*
X270788Y121800D02*
Y125500D01*
X269988D02*
X270788D01*
X260788D02*
X261588D01*
X205720Y220075D02*
Y228388D01*
Y220075D02*
X216862D01*
X205720Y230928D02*
Y239077D01*
X216862Y220075D02*
Y228388D01*
X205720Y239077D02*
X216836D01*
Y230928D02*
Y239077D01*
X125998Y174251D02*
X134311D01*
Y185393D01*
X115309Y174251D02*
X123458D01*
X125998Y185393D02*
X134311D01*
X115309Y174251D02*
Y185367D01*
X123458D01*
X126036Y187875D02*
X134349D01*
Y199017D01*
X115347Y187875D02*
X123496D01*
X126036Y199017D02*
X134349D01*
X115347Y187875D02*
Y198991D01*
X123496D01*
X220572Y196185D02*
X228885D01*
X220572Y185043D02*
Y196185D01*
X231425D02*
X239574D01*
X220572Y185043D02*
X228885D01*
X239574Y185069D02*
Y196185D01*
X231425Y185069D02*
X239574D01*
X220674Y182087D02*
X228987D01*
X220674Y170945D02*
Y182087D01*
X231527D02*
X239676D01*
X220674Y170945D02*
X228987D01*
X239676Y170971D02*
Y182087D01*
X231527Y170971D02*
X239676D01*
X1323203Y106348D02*
X1329081Y100470D01*
X1315324Y98470D02*
X1323203Y106348D01*
X1330877Y98674D02*
X1336639Y92912D01*
X1315324Y98470D02*
X1321202Y92592D01*
X1328779Y85052D02*
X1336639Y92912D01*
X1323017Y90814D02*
X1328779Y85052D01*
X1234201Y261424D02*
X1242514D01*
Y272566D01*
X1223512Y261424D02*
X1231661D01*
X1234201Y272566D02*
X1242514D01*
X1223512Y261424D02*
Y272540D01*
X1231661D01*
X1234201Y247159D02*
X1242514D01*
Y258301D01*
X1223512Y247159D02*
X1231661D01*
X1234201Y258301D02*
X1242514D01*
X1223512Y247159D02*
Y258275D01*
X1231661D01*
X1265318Y263969D02*
Y272281D01*
Y263969D02*
X1276460D01*
X1265318Y274821D02*
Y282970D01*
X1276460Y263969D02*
Y272281D01*
X1265318Y282970D02*
X1276434D01*
Y274821D02*
Y282970D01*
X1386241Y67318D02*
Y75631D01*
X1375099D02*
X1386241D01*
Y56630D02*
Y64778D01*
X1375099Y67318D02*
Y75631D01*
X1375125Y56630D02*
X1386241D01*
X1375125D02*
Y64778D01*
X1251251Y263888D02*
Y272201D01*
Y263888D02*
X1262393D01*
X1251251Y274741D02*
Y282890D01*
X1262393Y263888D02*
Y272201D01*
X1251251Y282890D02*
X1262367D01*
Y274741D02*
Y282890D01*
D14*
X1374450Y103800D02*
X1386450D01*
X1437450D02*
X1450500D01*
X1374450Y196200D02*
X1386450D01*
X1437450D02*
X1450500D01*
X1369000Y122000D02*
Y178000D01*
M02*
