G04*
G04 #@! TF.GenerationSoftware,Altium Limited,Altium Designer,25.8.1 (18)*
G04*
G04 Layer_Color=32896*
%FSLAX44Y44*%
%MOMM*%
G71*
G04*
G04 #@! TF.SameCoordinates,C96D2FE9-1FD8-438A-A999-0EA797086850*
G04*
G04*
G04 #@! TF.FilePolarity,Positive*
G04*
G01*
G75*
%ADD10C,0.2000*%
%ADD13C,0.1524*%
%ADD63C,0.2540*%
D10*
X1173019Y233917D02*
G03*
X1173019Y233917I-1000J0D01*
G01*
X198621Y245073D02*
G03*
X199621Y245073I500J0D01*
G01*
D02*
G03*
X198621Y245073I-500J0D01*
G01*
X687635Y189555D02*
G03*
X687635Y189555I-1000J0D01*
G01*
X883418D02*
G03*
X883418Y189555I-1000J0D01*
G01*
X488259D02*
G03*
X488259Y189555I-1000J0D01*
G01*
X291618Y189555D02*
G03*
X291618Y189555I-1000J0D01*
G01*
X1353779Y160800D02*
G03*
X1353779Y160800I-1000J0D01*
G01*
X1329103Y119071D02*
G03*
X1329103Y119071I-1000J0D01*
G01*
D13*
X1228984Y130853D02*
X1234862Y136731D01*
X1242740Y128853D01*
X1221426Y123295D02*
X1227188Y129057D01*
X1236862Y122975D02*
X1242740Y128853D01*
X1221426Y123295D02*
X1229286Y115435D01*
X1235048Y121197D01*
X1247677Y40689D02*
X1253555Y46567D01*
X1239798Y48568D02*
X1247677Y40689D01*
X1255351Y48363D02*
X1261113Y54125D01*
X1239798Y48568D02*
X1245676Y54446D01*
X1253253Y61985D02*
X1261113Y54125D01*
X1247491Y56223D02*
X1253253Y61985D01*
X209039Y258166D02*
X210140D01*
X234578Y258166D02*
X234599D01*
X510700Y202199D02*
Y210512D01*
X499558Y202199D02*
X510700D01*
Y213052D02*
Y221201D01*
X499558Y202199D02*
Y210512D01*
X499584Y221201D02*
X510700D01*
X499584Y213052D02*
Y221201D01*
X1161319Y176817D02*
X1165319D01*
X1161319Y226817D02*
X1165319D01*
X1179319Y194817D02*
Y208817D01*
X1147319Y194817D02*
Y208817D01*
X668835Y198655D02*
Y218655D01*
X691435Y198655D02*
Y218655D01*
X864618Y198655D02*
Y218655D01*
X887218Y198655D02*
Y218655D01*
X66330Y240591D02*
X72330D01*
X66330Y211591D02*
Y240591D01*
Y211591D02*
X72330D01*
Y240591D01*
X75830Y241091D02*
X87830D01*
X469459Y198655D02*
Y218655D01*
X492059Y198655D02*
Y218655D01*
X272818Y198655D02*
Y218655D01*
X295418Y198655D02*
Y218655D01*
X1397631Y204662D02*
Y213528D01*
X1387589Y216068D02*
Y224985D01*
X1397703D01*
Y216068D02*
Y224985D01*
X1387643Y204662D02*
X1397631D01*
X1387643D02*
Y213528D01*
X222598Y162545D02*
Y171411D01*
X212557Y173951D02*
Y182869D01*
X222671D01*
Y173951D02*
Y182869D01*
X212611Y162545D02*
X222598D01*
X212611D02*
Y171411D01*
X235142Y162443D02*
Y171308D01*
X225100Y173848D02*
Y182766D01*
X235214D01*
Y173848D02*
Y182766D01*
X225154Y162443D02*
X235142D01*
X225154D02*
Y171308D01*
X187543Y283339D02*
X196408D01*
X176085Y273298D02*
X185003D01*
X176085D02*
Y283411D01*
X185003D01*
X196408Y273351D02*
Y283339D01*
X187543Y273351D02*
X196408D01*
X239366Y143182D02*
X248232D01*
X250772Y153223D02*
X259690D01*
Y143109D02*
Y153223D01*
X250772Y143109D02*
X259690D01*
X239366Y143182D02*
Y153169D01*
X248232D01*
X898758Y42364D02*
Y51230D01*
X888717Y53770D02*
Y62688D01*
X898830D01*
Y53770D02*
Y62688D01*
X888771Y42364D02*
X898758D01*
X888771D02*
Y51230D01*
X239366Y157591D02*
X248232D01*
X250772Y167632D02*
X259690D01*
Y157518D02*
Y167632D01*
X250772Y157518D02*
X259690D01*
X239366Y157591D02*
Y167578D01*
X248232D01*
X199231Y173596D02*
Y182462D01*
X189190Y185002D02*
Y193920D01*
X199304D01*
Y185002D02*
Y193920D01*
X189244Y173596D02*
X199231D01*
X189244D02*
Y182462D01*
X185566Y173727D02*
Y182592D01*
X175524Y185132D02*
Y194050D01*
X185638D01*
Y185132D02*
Y194050D01*
X175578Y173727D02*
X185566D01*
X175578D02*
Y182592D01*
X158624Y173727D02*
Y182592D01*
X148583Y185132D02*
Y194050D01*
X158697D01*
Y185132D02*
Y194050D01*
X148637Y173727D02*
X158624D01*
X148637D02*
Y182592D01*
X171900Y173987D02*
Y182853D01*
X161858Y185393D02*
Y194310D01*
X171972D01*
Y185393D02*
Y194310D01*
X161912Y173987D02*
X171900D01*
X161912D02*
Y182853D01*
X699568Y42364D02*
Y51230D01*
X689527Y53770D02*
Y62688D01*
X699640D01*
Y53770D02*
Y62688D01*
X689580Y42364D02*
X699568D01*
X689580D02*
Y51230D01*
X646553Y240294D02*
X655419D01*
X635096Y230253D02*
X644013D01*
X635096D02*
Y240367D01*
X644013D01*
X655419Y230307D02*
Y240294D01*
X646553Y230307D02*
X655419D01*
X842365Y240308D02*
X851231D01*
X830907Y230267D02*
X839825D01*
X830907D02*
Y240381D01*
X839825D01*
X851231Y230321D02*
Y240308D01*
X842365Y230321D02*
X851231D01*
X684837Y168150D02*
Y177016D01*
X674796Y179556D02*
Y188473D01*
X684909D01*
Y179556D02*
Y188473D01*
X674849Y168150D02*
X684837D01*
X674849D02*
Y177016D01*
X880229Y168747D02*
Y177612D01*
X870188Y180152D02*
Y189070D01*
X880302D01*
Y180152D02*
Y189070D01*
X870241Y168747D02*
X880229D01*
X870241D02*
Y177612D01*
X64612Y257507D02*
Y266372D01*
X74654Y246049D02*
Y254967D01*
X64540Y246049D02*
X74654D01*
X64540D02*
Y254967D01*
X64612Y266372D02*
X74600D01*
Y257507D02*
Y266372D01*
X446379Y240221D02*
X455244D01*
X434921Y230180D02*
X443839D01*
X434921D02*
Y240294D01*
X443839D01*
X455244Y230233D02*
Y240221D01*
X446379Y230233D02*
X455244D01*
X250824Y243519D02*
X259690D01*
X239366Y233478D02*
X248284D01*
X239366D02*
Y243591D01*
X248284D01*
X259690Y233531D02*
Y243519D01*
X250824Y233531D02*
X259690D01*
X485420Y168307D02*
Y177172D01*
X475378Y179712D02*
Y188630D01*
X485492D01*
Y179712D02*
Y188630D01*
X475432Y168307D02*
X485420D01*
X475432D02*
Y177172D01*
X289317Y168407D02*
Y177273D01*
X279275Y179813D02*
Y188730D01*
X289389D01*
Y179813D02*
Y188730D01*
X279329Y168407D02*
X289317D01*
X279329D02*
Y177273D01*
X498819Y42364D02*
Y51230D01*
X488778Y53770D02*
Y62688D01*
X498891D01*
Y53770D02*
Y62688D01*
X488831Y42364D02*
X498819D01*
X488831D02*
Y51230D01*
X865623Y250129D02*
Y258995D01*
X855581Y261535D02*
Y270452D01*
X865695D01*
Y261535D02*
Y270452D01*
X855635Y250129D02*
X865623D01*
X855635D02*
Y258995D01*
X671410Y250129D02*
Y258995D01*
X661368Y261535D02*
Y270452D01*
X671482D01*
Y261535D02*
Y270452D01*
X661422Y250129D02*
X671410D01*
X661422D02*
Y258995D01*
X470996Y250129D02*
Y258995D01*
X460955Y261535D02*
Y270452D01*
X471068D01*
Y261535D02*
Y270452D01*
X461008Y250129D02*
X470996D01*
X461008D02*
Y258995D01*
X277045Y250129D02*
Y258995D01*
X267003Y261535D02*
Y270452D01*
X277117D01*
Y261535D02*
Y270452D01*
X267057Y250129D02*
X277045D01*
X267057D02*
Y258995D01*
X1197181Y191681D02*
Y200547D01*
X1187140Y203087D02*
Y212005D01*
X1197253D01*
Y203087D02*
Y212005D01*
X1187193Y191681D02*
X1197181D01*
X1187193D02*
Y200547D01*
X298633Y42364D02*
Y51230D01*
X288591Y53770D02*
Y62688D01*
X298705D01*
Y53770D02*
Y62688D01*
X288645Y42364D02*
X298633D01*
X288645D02*
Y51230D01*
X630000Y209017D02*
Y224517D01*
X825758Y209017D02*
Y224517D01*
X429809Y209017D02*
Y224517D01*
X234750Y209017D02*
Y224517D01*
X905269Y186093D02*
Y187693D01*
X897269Y186093D02*
Y187693D01*
X708425Y186016D02*
Y187616D01*
X700425Y186016D02*
Y187616D01*
X509092Y186016D02*
Y187616D01*
X501092Y186016D02*
Y187616D01*
X1085358Y89776D02*
X1086957D01*
X1085358Y81777D02*
X1086957D01*
X1096571Y123167D02*
X1098171D01*
X1096571Y115167D02*
X1098171D01*
X313229Y186016D02*
Y187616D01*
X305229Y186016D02*
Y187616D01*
X1335580Y135800D02*
X1345580D01*
X1335580Y164200D02*
X1345580D01*
X1340903Y119571D02*
X1344603D01*
X1340903Y129571D02*
X1344603D01*
Y128771D02*
Y129571D01*
Y119571D02*
Y120371D01*
X1412355Y204848D02*
Y213161D01*
X1401214Y204848D02*
X1412355D01*
Y215701D02*
Y223850D01*
X1401214Y204848D02*
Y213161D01*
X1401239Y223850D02*
X1412355D01*
X1401239Y215701D02*
Y223850D01*
X1427936Y204848D02*
Y213161D01*
X1416794Y204848D02*
X1427936D01*
Y215701D02*
Y223850D01*
X1416794Y204848D02*
Y213161D01*
X1416820Y223850D02*
X1427936D01*
X1416820Y215701D02*
Y223850D01*
X202750Y222867D02*
Y231180D01*
X213892D01*
X202750Y212178D02*
Y220327D01*
X213892Y222867D02*
Y231180D01*
X202750Y212178D02*
X213866D01*
Y220327D01*
X216298Y222976D02*
Y231289D01*
X227440D01*
X216298Y212288D02*
Y220436D01*
X227440Y222976D02*
Y231289D01*
X216298Y212288D02*
X227414D01*
Y220436D01*
X220155Y239164D02*
Y247477D01*
X209013Y239164D02*
X220155D01*
Y250017D02*
Y258166D01*
X209013Y239164D02*
Y247477D01*
X209039Y258166D02*
X220155D01*
X209039Y250017D02*
Y258166D01*
X234578Y239164D02*
Y247477D01*
X223436Y239164D02*
X234578D01*
Y250017D02*
Y258166D01*
X223436Y239164D02*
Y247477D01*
X223462Y258166D02*
X234578D01*
X223462Y250017D02*
Y258166D01*
X901543Y53701D02*
Y62014D01*
X912685D01*
X901543Y43012D02*
Y51161D01*
X912685Y53701D02*
Y62014D01*
X901543Y43012D02*
X912659D01*
Y51161D01*
X915343Y53487D02*
Y61800D01*
X926485D01*
X915343Y42798D02*
Y50947D01*
X926485Y53487D02*
Y61800D01*
X915343Y42798D02*
X926459D01*
Y50947D01*
X899741Y165958D02*
X908054D01*
Y154816D02*
Y165958D01*
X889053D02*
X897201D01*
X899741Y154816D02*
X908054D01*
X889053Y154842D02*
Y165958D01*
Y154842D02*
X897201D01*
X119548Y219586D02*
Y227899D01*
X130690D01*
X119548Y208897D02*
Y217046D01*
X130690Y219586D02*
Y227899D01*
X119548Y208897D02*
X130664D01*
Y217046D01*
X160552Y262215D02*
Y270527D01*
X149410Y262215D02*
X160552D01*
Y273067D02*
Y281216D01*
X149410Y262215D02*
Y270527D01*
X149436Y281216D02*
X160552D01*
X149436Y273067D02*
Y281216D01*
X132926Y220004D02*
Y228317D01*
X144068D01*
X132926Y209316D02*
Y217464D01*
X144068Y220004D02*
Y228317D01*
X132926Y209316D02*
X144042D01*
Y217464D01*
X146520Y219892D02*
Y228204D01*
X157662D01*
X146520Y209203D02*
Y217352D01*
X157662Y219892D02*
Y228204D01*
X146520Y209203D02*
X157636D01*
Y217352D01*
X99991Y249247D02*
X134991D01*
X99991Y277747D02*
X140991D01*
X702918Y54394D02*
Y62707D01*
X714060D01*
X702918Y43705D02*
Y51854D01*
X714060Y54394D02*
Y62707D01*
X702918Y43705D02*
X714034D01*
Y51854D01*
X716184Y54383D02*
Y62695D01*
X727326D01*
X716184Y43694D02*
Y51843D01*
X727326Y54383D02*
Y62695D01*
X716184Y43694D02*
X727300D01*
Y51843D01*
X710135Y201875D02*
Y210188D01*
X698993Y201875D02*
X710135D01*
Y212728D02*
Y220877D01*
X698993Y201875D02*
Y210188D01*
X699019Y220877D02*
X710135D01*
X699019Y212728D02*
Y220877D01*
X692156Y229620D02*
Y237933D01*
X681014Y229620D02*
X692156D01*
Y240473D02*
Y248622D01*
X681014Y229620D02*
Y237933D01*
X681040Y248622D02*
X692156D01*
X681040Y240473D02*
Y248622D01*
X907008Y202074D02*
Y210387D01*
X895866Y202074D02*
X907008D01*
Y212927D02*
Y221076D01*
X895866Y202074D02*
Y210387D01*
X895892Y221076D02*
X907008D01*
X895892Y212927D02*
Y221076D01*
X888303Y229645D02*
Y237958D01*
X877161Y229645D02*
X888303D01*
Y240498D02*
Y248646D01*
X877161Y229645D02*
Y237958D01*
X877188Y248646D02*
X888303D01*
X877188Y240498D02*
Y248646D01*
X718880Y195840D02*
Y230840D01*
X747380Y189840D02*
Y230840D01*
X916743Y195840D02*
Y230840D01*
X945243Y189840D02*
Y230840D01*
X702880Y165919D02*
X711193D01*
Y154777D02*
Y165919D01*
X692191D02*
X700340D01*
X702880Y154777D02*
X711193D01*
X692191Y154803D02*
Y165919D01*
Y154803D02*
X700340D01*
X29757Y229971D02*
Y238284D01*
X40899D01*
X29757Y219283D02*
Y227431D01*
X40899Y229971D02*
Y238284D01*
X29757Y219283D02*
X40873D01*
Y227431D01*
X493205Y229644D02*
Y237957D01*
X482064Y229644D02*
X493205D01*
Y240497D02*
Y248645D01*
X482064Y229644D02*
Y237957D01*
X482090Y248645D02*
X493205D01*
X482090Y240497D02*
Y248645D01*
X314543Y202288D02*
Y210601D01*
X303401Y202288D02*
X314543D01*
Y213141D02*
Y221290D01*
X303401Y202288D02*
Y210601D01*
X303427Y221290D02*
X314543D01*
X303427Y213141D02*
Y221290D01*
X296556Y229200D02*
Y237513D01*
X285414Y229200D02*
X296556D01*
Y240053D02*
Y248201D01*
X285414Y229200D02*
Y237513D01*
X285440Y248201D02*
X296556D01*
X285440Y240053D02*
Y248201D01*
X519166Y195153D02*
Y230153D01*
X547666Y189153D02*
Y230153D01*
X322922Y192876D02*
Y227876D01*
X351422Y186876D02*
Y227876D01*
X501578Y54138D02*
Y62451D01*
X512720D01*
X501578Y43449D02*
Y51598D01*
X512720Y54138D02*
Y62451D01*
X501578Y43449D02*
X512694D01*
Y51598D01*
X515651Y54138D02*
Y62451D01*
X526793D01*
X515651Y43449D02*
Y51598D01*
X526793Y54138D02*
Y62451D01*
X515651Y43449D02*
X526767D01*
Y51598D01*
X503547Y165464D02*
X511860D01*
Y154322D02*
Y165464D01*
X492858D02*
X501007D01*
X503547Y154322D02*
X511860D01*
X492858Y154348D02*
Y165464D01*
Y154348D02*
X501007D01*
X1198490Y170590D02*
Y178902D01*
X1187348Y170590D02*
X1198490D01*
Y181442D02*
Y189591D01*
X1187348Y170590D02*
Y178902D01*
X1187374Y189591D02*
X1198490D01*
X1187374Y181442D02*
Y189591D01*
X301702Y54190D02*
Y62503D01*
X312844D01*
X301702Y43502D02*
Y51650D01*
X312844Y54190D02*
Y62503D01*
X301702Y43502D02*
X312818D01*
Y51650D01*
X315995Y54190D02*
Y62503D01*
X327137D01*
X315995Y43502D02*
Y51650D01*
X327137Y54190D02*
Y62503D01*
X315995Y43502D02*
X327111D01*
Y51650D01*
X1197567Y214268D02*
Y222581D01*
X1186425Y214268D02*
X1197567D01*
Y225121D02*
Y233270D01*
X1186425Y214268D02*
Y222581D01*
X1186451Y233270D02*
X1197567D01*
X1186451Y225121D02*
Y233270D01*
X1247692Y108195D02*
X1253570Y114073D01*
X1261449Y106194D01*
X1240134Y100637D02*
X1245896Y106399D01*
X1255570Y100316D02*
X1261449Y106194D01*
X1240134Y100637D02*
X1247994Y92777D01*
X1253756Y98539D01*
X1269920Y139379D02*
X1275798Y133501D01*
X1267920Y125622D02*
X1275798Y133501D01*
X1262362Y146937D02*
X1268124Y141175D01*
X1262042Y131500D02*
X1267920Y125622D01*
X1254502Y139077D02*
X1262362Y146937D01*
X1254502Y139077D02*
X1260264Y133315D01*
X1271897Y110284D02*
X1277775Y116162D01*
X1264019Y118163D02*
X1271897Y110284D01*
X1279572Y117958D02*
X1285334Y123720D01*
X1264019Y118163D02*
X1269897Y124041D01*
X1277473Y131580D02*
X1285334Y123720D01*
X1271711Y125818D02*
X1277473Y131580D01*
X1294134Y88323D02*
X1300012Y82445D01*
X1294134Y88323D02*
X1302012Y96201D01*
X1301808Y80649D02*
X1307570Y74887D01*
X1302012Y96201D02*
X1307890Y90323D01*
X1307570Y74887D02*
X1315430Y82747D01*
X1309668Y88509D02*
X1315430Y82747D01*
X1311707Y90536D02*
X1317585Y96414D01*
X1303828Y98414D02*
X1311707Y90536D01*
X1319381Y98210D02*
X1325143Y103972D01*
X1303828Y98414D02*
X1309707Y104292D01*
X1317283Y111832D02*
X1325143Y103972D01*
X1311521Y106070D02*
X1317283Y111832D01*
X1313717Y88675D02*
X1319595Y82797D01*
X1313717Y88675D02*
X1321596Y96554D01*
X1321392Y81001D02*
X1327154Y75239D01*
X1321596Y96554D02*
X1327474Y90676D01*
X1327154Y75239D02*
X1335014Y83099D01*
X1329252Y88861D02*
X1335014Y83099D01*
X1186869Y29350D02*
X1192747Y23472D01*
X1184869Y15594D02*
X1192747Y23472D01*
X1179311Y36908D02*
X1185073Y31146D01*
X1178990Y21472D02*
X1184869Y15594D01*
X1171451Y29048D02*
X1179311Y36908D01*
X1171451Y29048D02*
X1177213Y23286D01*
X1218182Y162199D02*
X1224060Y156321D01*
X1216182Y148442D02*
X1224060Y156321D01*
X1210624Y169757D02*
X1216386Y163995D01*
X1210303Y154321D02*
X1216182Y148442D01*
X1202764Y161897D02*
X1210624Y169757D01*
X1202764Y161897D02*
X1208526Y156135D01*
X1222642Y39041D02*
X1228520Y33163D01*
X1220642Y25285D02*
X1228520Y33163D01*
X1215084Y46599D02*
X1220846Y40837D01*
X1214763Y31163D02*
X1220642Y25285D01*
X1207224Y38739D02*
X1215084Y46599D01*
X1207224Y38739D02*
X1212986Y32977D01*
X1197316Y41177D02*
X1203194Y47055D01*
X1189437Y49056D02*
X1197316Y41177D01*
X1204990Y48851D02*
X1210752Y54613D01*
X1189437Y49056D02*
X1195315Y54934D01*
X1202892Y62474D02*
X1210752Y54613D01*
X1197130Y56712D02*
X1202892Y62474D01*
X1177381Y72402D02*
X1183259Y66524D01*
X1175380Y58645D02*
X1183259Y66524D01*
X1169823Y79960D02*
X1175585Y74198D01*
X1169502Y64523D02*
X1175380Y58645D01*
X1161963Y72100D02*
X1169823Y79960D01*
X1161963Y72100D02*
X1167725Y66338D01*
X1176862Y55611D02*
X1182740Y61489D01*
X1190619Y53611D01*
X1169304Y48053D02*
X1175066Y53815D01*
X1184741Y47733D02*
X1190619Y53611D01*
X1169304Y48053D02*
X1177164Y40193D01*
X1182926Y45955D01*
X1120149Y82707D02*
Y91020D01*
X1131291D01*
X1120149Y72018D02*
Y80167D01*
X1131291Y82707D02*
Y91020D01*
X1120149Y72018D02*
X1131265D01*
Y80167D01*
X1105148Y82707D02*
Y91020D01*
X1116290D01*
X1105148Y72018D02*
Y80167D01*
X1116290Y82707D02*
Y91020D01*
X1105148Y72018D02*
X1116264D01*
Y80167D01*
X1196045Y36695D02*
X1201923Y30816D01*
X1194044Y22938D02*
X1201923Y30816D01*
X1188486Y44253D02*
X1194249Y38491D01*
X1188166Y28816D02*
X1194044Y22938D01*
X1180626Y36393D02*
X1188486Y44253D01*
X1180626Y36393D02*
X1186388Y30631D01*
X1175261Y117351D02*
X1181139Y111472D01*
X1173260Y103594D02*
X1181139Y111472D01*
X1167703Y124909D02*
X1173465Y119146D01*
X1167382Y109472D02*
X1173260Y103594D01*
X1159843Y117048D02*
X1167703Y124909D01*
X1159843Y117048D02*
X1165605Y111286D01*
X1192261Y145338D02*
X1198139Y139460D01*
X1190260Y131581D02*
X1198139Y139460D01*
X1184703Y152896D02*
X1190465Y147134D01*
X1184382Y137459D02*
X1190260Y131581D01*
X1176843Y145036D02*
X1184703Y152896D01*
X1176843Y145036D02*
X1182605Y139274D01*
X1239645Y151424D02*
X1245524Y145546D01*
X1237645Y137667D02*
X1245524Y145546D01*
X1232087Y158982D02*
X1237849Y153220D01*
X1231767Y143545D02*
X1237645Y137667D01*
X1224227Y151122D02*
X1232087Y158982D01*
X1224227Y151122D02*
X1229989Y145360D01*
X1238558Y121585D02*
X1244436Y127463D01*
X1252315Y119585D01*
X1231000Y114027D02*
X1236762Y119789D01*
X1246437Y113707D02*
X1252315Y119585D01*
X1231000Y114027D02*
X1238860Y106167D01*
X1244622Y111929D01*
X1276543Y83159D02*
X1282421Y77281D01*
X1276543Y83159D02*
X1284422Y91037D01*
X1284217Y75485D02*
X1289979Y69723D01*
X1284422Y91037D02*
X1290300Y85159D01*
X1289979Y69723D02*
X1297840Y77583D01*
X1292077Y83345D02*
X1297840Y77583D01*
X1257173Y102129D02*
X1263051Y108007D01*
X1270929Y100129D01*
X1249615Y94571D02*
X1255377Y100333D01*
X1265051Y94250D02*
X1270929Y100129D01*
X1249615Y94571D02*
X1257475Y86711D01*
X1263237Y92473D01*
X1266318Y92801D02*
X1272196Y98679D01*
X1280075Y90801D01*
X1258760Y85243D02*
X1264522Y91005D01*
X1274196Y84922D02*
X1280075Y90801D01*
X1258760Y85243D02*
X1266620Y77383D01*
X1272382Y83145D01*
X1116361Y117621D02*
Y125934D01*
X1127503D01*
X1116361Y106932D02*
Y115081D01*
X1127503Y117621D02*
Y125934D01*
X1116361Y106932D02*
X1127477D01*
Y115081D01*
X1232513Y48564D02*
X1238391Y42686D01*
X1230513Y34807D02*
X1238391Y42686D01*
X1224955Y56122D02*
X1230717Y50360D01*
X1224635Y40685D02*
X1230513Y34807D01*
X1217095Y48262D02*
X1224955Y56122D01*
X1217095Y48262D02*
X1222857Y42500D01*
X1237764Y61875D02*
X1243642Y55997D01*
X1235763Y48119D02*
X1243642Y55997D01*
X1230206Y69433D02*
X1235968Y63671D01*
X1229885Y53997D02*
X1235763Y48119D01*
X1222345Y61573D02*
X1230206Y69433D01*
X1222345Y61573D02*
X1228107Y55811D01*
X1199505Y90138D02*
X1205383Y96016D01*
X1191627Y98016D02*
X1199505Y90138D01*
X1207179Y97812D02*
X1212941Y103574D01*
X1191627Y98016D02*
X1197505Y103894D01*
X1205081Y111434D02*
X1212941Y103574D01*
X1199319Y105672D02*
X1205081Y111434D01*
X1201671Y87558D02*
X1207549Y81680D01*
X1201671Y87558D02*
X1209550Y95437D01*
X1209345Y79884D02*
X1215107Y74122D01*
X1209550Y95437D02*
X1215428Y89558D01*
X1215107Y74122D02*
X1222968Y81982D01*
X1217206Y87744D02*
X1222968Y81982D01*
X1191328Y78028D02*
X1197206Y72150D01*
X1191328Y78028D02*
X1199207Y85906D01*
X1199002Y70354D02*
X1204764Y64591D01*
X1199207Y85906D02*
X1205085Y80028D01*
X1204764Y64591D02*
X1212624Y72452D01*
X1206862Y78214D02*
X1212624Y72452D01*
X307683Y165464D02*
X315996D01*
Y154322D02*
Y165464D01*
X296995D02*
X305143D01*
X307683Y154322D02*
X315996D01*
X296995Y154348D02*
Y165464D01*
Y154348D02*
X305143D01*
D63*
X146686Y277398D02*
G03*
X146686Y277398I-1005J0D01*
G01*
X748035Y185150D02*
G03*
X748035Y185150I-1005J0D01*
G01*
X945898D02*
G03*
X945898Y185150I-1005J0D01*
G01*
X548321Y184463D02*
G03*
X548321Y184463I-1005J0D01*
G01*
X352078Y182186D02*
G03*
X352078Y182186I-1005J0D01*
G01*
M02*
