G04*
G04 #@! TF.GenerationSoftware,Altium Limited,Altium Designer,25.8.1 (18)*
G04*
G04 Layer_Physical_Order=2*
G04 Layer_Color=16440176*
%FSLAX44Y44*%
%MOMM*%
G71*
G04*
G04 #@! TF.SameCoordinates,C96D2FE9-1FD8-438A-A999-0EA797086850*
G04*
G04*
G04 #@! TF.FilePolarity,Positive*
G04*
G01*
G75*
%ADD45C,0.6500*%
%ADD46C,1.2080*%
%ADD47O,2.1000X1.0500*%
%ADD48O,1.7780X1.1430*%
%ADD49R,1.2080X1.2080*%
%ADD50C,3.3160*%
%ADD51O,0.8500X1.2000*%
%ADD52O,1.9500X0.9500*%
%ADD53O,1.6500X1.0500*%
%ADD54C,0.6800*%
%ADD55C,0.4500*%
%ADD58C,0.3048*%
%ADD59C,0.2032*%
%ADD64C,1.0160*%
G36*
X1435239Y297271D02*
X1438508Y295917D01*
X1441449Y293951D01*
X1443951Y291449D01*
X1445917Y288508D01*
X1447271Y285239D01*
X1447961Y281769D01*
Y280000D01*
Y20000D01*
Y18231D01*
X1447271Y14761D01*
X1445917Y11492D01*
X1443951Y8551D01*
X1441449Y6049D01*
X1438508Y4083D01*
X1435239Y2729D01*
X1431769Y2039D01*
X18231D01*
X14761Y2729D01*
X11492Y4083D01*
X8551Y6049D01*
X6049Y8551D01*
X4083Y11492D01*
X2729Y14761D01*
X2039Y18231D01*
Y20000D01*
Y280000D01*
Y281769D01*
X2729Y285239D01*
X4083Y288508D01*
X6049Y291449D01*
X8551Y293951D01*
X11492Y295917D01*
X14761Y297271D01*
X18231Y297961D01*
X1431769D01*
X1435239Y297271D01*
D02*
G37*
%LPC*%
G36*
X286703Y296890D02*
X284797D01*
X283037Y296161D01*
X282575Y295699D01*
X282113Y296161D01*
X280353Y296890D01*
X278447D01*
X276687Y296161D01*
X276225Y295699D01*
X275763Y296161D01*
X274003Y296890D01*
X272097D01*
X270337Y296161D01*
X269875Y295699D01*
X269413Y296161D01*
X267653Y296890D01*
X265747D01*
X263987Y296161D01*
X263525Y295699D01*
X263063Y296161D01*
X261303Y296890D01*
X259397D01*
X257637Y296161D01*
X257175Y295699D01*
X256713Y296161D01*
X254953Y296890D01*
X253047D01*
X251287Y296161D01*
X249939Y294813D01*
X249210Y293053D01*
Y291147D01*
X249939Y289387D01*
X251287Y288039D01*
X253047Y287310D01*
X254953D01*
X256713Y288039D01*
X257175Y288501D01*
X257637Y288039D01*
X259397Y287310D01*
X261303D01*
X263063Y288039D01*
X263525Y288501D01*
X263987Y288039D01*
X265747Y287310D01*
X267653D01*
X269413Y288039D01*
X269875Y288501D01*
X270337Y288039D01*
X272097Y287310D01*
X274003D01*
X275763Y288039D01*
X276225Y288501D01*
X276687Y288039D01*
X278447Y287310D01*
X280353D01*
X282113Y288039D01*
X282575Y288501D01*
X283037Y288039D01*
X284797Y287310D01*
X286703D01*
X288463Y288039D01*
X289811Y289387D01*
X290540Y291147D01*
Y293053D01*
X289811Y294813D01*
X288463Y296161D01*
X286703Y296890D01*
D02*
G37*
G36*
X218096Y285300D02*
X216190D01*
X214429Y284571D01*
X213082Y283223D01*
X212353Y281463D01*
Y279557D01*
X213082Y277797D01*
X213617Y277262D01*
X212784Y276429D01*
X212055Y274669D01*
Y272763D01*
X212784Y271003D01*
X214132Y269655D01*
X215892Y268926D01*
X217798D01*
X219558Y269655D01*
X220630Y270727D01*
X221880Y269476D01*
X223640Y268747D01*
X225546D01*
X227306Y269476D01*
X228654Y270824D01*
X229383Y272584D01*
Y274490D01*
X228654Y276250D01*
X228268Y276636D01*
X229210Y277579D01*
X229939Y279339D01*
Y281245D01*
X229210Y283005D01*
X227862Y284352D01*
X226102Y285082D01*
X224196D01*
X222436Y284352D01*
X221952Y283869D01*
X220551Y283876D01*
X219856Y284571D01*
X218096Y285300D01*
D02*
G37*
G36*
X1284869Y273806D02*
X1282963D01*
X1281203Y273077D01*
X1279855Y271730D01*
X1279126Y269969D01*
Y268063D01*
X1279855Y266303D01*
X1281203Y264956D01*
X1282963Y264226D01*
X1284869D01*
X1286629Y264956D01*
X1287977Y266303D01*
X1288706Y268063D01*
Y269969D01*
X1287977Y271730D01*
X1286629Y273077D01*
X1284869Y273806D01*
D02*
G37*
G36*
X1247407Y272754D02*
X1245501D01*
X1243741Y272024D01*
X1242393Y270677D01*
X1241664Y268916D01*
Y267011D01*
X1242393Y265250D01*
X1243741Y263903D01*
X1245501Y263174D01*
X1247407D01*
X1249167Y263903D01*
X1250515Y265250D01*
X1251244Y267011D01*
Y268916D01*
X1250515Y270677D01*
X1249167Y272024D01*
X1247407Y272754D01*
D02*
G37*
G36*
X31777Y283500D02*
X28223D01*
X24789Y282580D01*
X21711Y280803D01*
X19197Y278289D01*
X17420Y275211D01*
X16500Y271777D01*
Y268223D01*
X17420Y264789D01*
X19197Y261711D01*
X21711Y259197D01*
X24789Y257420D01*
X28223Y256500D01*
X31777D01*
X35211Y257420D01*
X38289Y259197D01*
X40803Y261711D01*
X42580Y264789D01*
X43500Y268223D01*
Y271777D01*
X42580Y275211D01*
X40803Y278289D01*
X38289Y280803D01*
X35211Y282580D01*
X31777Y283500D01*
D02*
G37*
G36*
X1421777Y283500D02*
X1418223D01*
X1414789Y282580D01*
X1411711Y280803D01*
X1409197Y278289D01*
X1407420Y275211D01*
X1406500Y271777D01*
Y268223D01*
X1407420Y264789D01*
X1409197Y261711D01*
X1411711Y259197D01*
X1414789Y257420D01*
X1418223Y256500D01*
X1421777D01*
X1425211Y257420D01*
X1428289Y259197D01*
X1430803Y261711D01*
X1432580Y264789D01*
X1433500Y268223D01*
Y271777D01*
X1432580Y275211D01*
X1430803Y278289D01*
X1428289Y280803D01*
X1425211Y282580D01*
X1421777Y283500D01*
D02*
G37*
G36*
X240136Y265013D02*
X204032D01*
X202446Y264698D01*
X201102Y263799D01*
X117353Y180051D01*
X116455Y178707D01*
X116140Y177121D01*
Y172774D01*
X115124Y172572D01*
X114484Y174116D01*
X113137Y175463D01*
X111376Y176192D01*
X109471D01*
X107710Y175463D01*
X107030Y174783D01*
X105831Y175021D01*
X105661Y175433D01*
X104313Y176781D01*
X102553Y177510D01*
X100647D01*
X98887Y176781D01*
X97539Y175433D01*
X97070Y174300D01*
X95970D01*
X95501Y175433D01*
X94153Y176781D01*
X92393Y177510D01*
X90487D01*
X88727Y176781D01*
X87379Y175433D01*
X86650Y173673D01*
Y171767D01*
X87379Y170007D01*
X88727Y168659D01*
X89860Y168190D01*
Y167090D01*
X88727Y166621D01*
X87379Y165273D01*
X86650Y163513D01*
Y161607D01*
X87379Y159847D01*
X88727Y158499D01*
X89860Y158030D01*
Y156930D01*
X88727Y156461D01*
X87379Y155113D01*
X86650Y153353D01*
Y151447D01*
X87379Y149687D01*
X88727Y148339D01*
X89860Y147870D01*
Y146770D01*
X88727Y146301D01*
X87379Y144953D01*
X86650Y143193D01*
Y141287D01*
X87379Y139527D01*
X88727Y138179D01*
X89860Y137710D01*
Y136610D01*
X88727Y136141D01*
X87379Y134793D01*
X86650Y133033D01*
Y131127D01*
X87379Y129367D01*
X88727Y128019D01*
X90487Y127290D01*
X92393D01*
X94153Y128019D01*
X95501Y129367D01*
X95970Y130500D01*
X97070D01*
X97539Y129367D01*
X98887Y128019D01*
X100647Y127290D01*
X102553D01*
X104313Y128019D01*
X105661Y129367D01*
X106130Y130500D01*
X107230D01*
X107699Y129367D01*
X109047Y128019D01*
X110807Y127290D01*
X112713D01*
X114473Y128019D01*
X115124Y128670D01*
X116140Y128249D01*
Y21077D01*
X116455Y19491D01*
X117353Y18147D01*
X129183Y6317D01*
X130528Y5419D01*
X132113Y5103D01*
X1377689D01*
X1379274Y5419D01*
X1380619Y6317D01*
X1392762Y18460D01*
X1393660Y19804D01*
X1393976Y21390D01*
Y51549D01*
X1399233Y56806D01*
X1400131Y58150D01*
X1400446Y59736D01*
Y64613D01*
X1400131Y66199D01*
X1399817Y66668D01*
Y70166D01*
X1400186Y71056D01*
Y72962D01*
X1399457Y74722D01*
X1398109Y76070D01*
X1396349Y76799D01*
X1394443D01*
X1392683Y76070D01*
X1391335Y74722D01*
X1390606Y72962D01*
Y71056D01*
X1391335Y69296D01*
X1391530Y69101D01*
Y65242D01*
X1391846Y63657D01*
X1392159Y63187D01*
Y61452D01*
X1386902Y56195D01*
X1386004Y54851D01*
X1385688Y53265D01*
Y23107D01*
X1375972Y13391D01*
X970506D01*
X970117Y14329D01*
X988213Y32425D01*
X989111Y33769D01*
X989426Y35355D01*
Y41910D01*
X989777Y42261D01*
X990506Y44021D01*
Y45927D01*
X989777Y47687D01*
X988430Y49035D01*
X986669Y49764D01*
X984764D01*
X983003Y49035D01*
X981656Y47687D01*
X980926Y45927D01*
Y44021D01*
X981139Y43507D01*
Y37071D01*
X957458Y13391D01*
X133830D01*
X124427Y22793D01*
Y175405D01*
X205748Y256726D01*
X238420D01*
X238627Y256519D01*
X239273Y254958D01*
X240621Y253611D01*
X242381Y252882D01*
X244287D01*
X246047Y253611D01*
X247395Y254958D01*
X248124Y256719D01*
Y258624D01*
X247395Y260385D01*
X246047Y261732D01*
X244487Y262379D01*
X243066Y263799D01*
X241722Y264698D01*
X240136Y265013D01*
D02*
G37*
G36*
X1247172Y256143D02*
X1245266D01*
X1243506Y255414D01*
X1242158Y254067D01*
X1241429Y252306D01*
Y250401D01*
X1242158Y248640D01*
X1243506Y247292D01*
X1245266Y246563D01*
X1247172D01*
X1248932Y247292D01*
X1250280Y248640D01*
X1251009Y250401D01*
Y252306D01*
X1250280Y254067D01*
X1248932Y255414D01*
X1247172Y256143D01*
D02*
G37*
G36*
X1314573Y254510D02*
X1312668D01*
X1310907Y253781D01*
X1309560Y252434D01*
X1308831Y250673D01*
Y248768D01*
X1309560Y247007D01*
X1310907Y245660D01*
X1312668Y244930D01*
X1314573D01*
X1316334Y245660D01*
X1317681Y247007D01*
X1318410Y248768D01*
Y250673D01*
X1317681Y252434D01*
X1316334Y253781D01*
X1314573Y254510D01*
D02*
G37*
G36*
X498566Y238606D02*
X496660D01*
X494900Y237876D01*
X493553Y236529D01*
X492823Y234769D01*
Y232863D01*
X493553Y231102D01*
X494900Y229755D01*
X496660Y229026D01*
X498566D01*
X500327Y229755D01*
X501674Y231102D01*
X502403Y232863D01*
Y234769D01*
X501674Y236529D01*
X500327Y237876D01*
X498566Y238606D01*
D02*
G37*
G36*
X301218Y238380D02*
X299313D01*
X297552Y237651D01*
X296205Y236303D01*
X295476Y234543D01*
Y232637D01*
X296205Y230877D01*
X297552Y229529D01*
X299313Y228800D01*
X301218D01*
X302979Y229529D01*
X304326Y230877D01*
X305056Y232637D01*
Y234543D01*
X304326Y236303D01*
X302979Y237651D01*
X301218Y238380D01*
D02*
G37*
G36*
X1328477Y248819D02*
X1326212D01*
X1324025Y248233D01*
X1322064Y247101D01*
X1320463Y245500D01*
X1319331Y243539D01*
X1318745Y241351D01*
Y239087D01*
X1319288Y237059D01*
X1319248Y236989D01*
X1318662Y234802D01*
Y232537D01*
X1319248Y230350D01*
X1320380Y228389D01*
X1321981Y226788D01*
X1323942Y225656D01*
X1326129Y225070D01*
X1328394D01*
X1330581Y225656D01*
X1332542Y226788D01*
X1334143Y228389D01*
X1335276Y230350D01*
X1335862Y232537D01*
Y234802D01*
X1335318Y236830D01*
X1335358Y236900D01*
X1335945Y239087D01*
Y241351D01*
X1335358Y243539D01*
X1334226Y245500D01*
X1332625Y247101D01*
X1330664Y248233D01*
X1328477Y248819D01*
D02*
G37*
G36*
X56547Y233727D02*
X54641D01*
X52881Y232998D01*
X51534Y231651D01*
X50804Y229890D01*
Y227985D01*
X51534Y226224D01*
X52881Y224877D01*
X54641Y224147D01*
X56547D01*
X58308Y224877D01*
X59655Y226224D01*
X60384Y227985D01*
Y229890D01*
X59655Y231651D01*
X58308Y232998D01*
X56547Y233727D01*
D02*
G37*
G36*
X675172Y233335D02*
X673266D01*
X671506Y232606D01*
X670158Y231259D01*
X669429Y229498D01*
Y227592D01*
X670158Y225832D01*
X671506Y224484D01*
X673266Y223755D01*
X675172D01*
X676932Y224484D01*
X678280Y225832D01*
X679009Y227592D01*
Y229498D01*
X678280Y231259D01*
X676932Y232606D01*
X675172Y233335D01*
D02*
G37*
G36*
X260351Y232668D02*
X258446D01*
X256685Y231939D01*
X255338Y230591D01*
X254608Y228831D01*
Y226925D01*
X255338Y225165D01*
X256685Y223817D01*
X258446Y223088D01*
X260351D01*
X262112Y223817D01*
X263459Y225165D01*
X264188Y226925D01*
Y228831D01*
X263459Y230591D01*
X262112Y231939D01*
X260351Y232668D01*
D02*
G37*
G36*
X648066Y226637D02*
X646161D01*
X644400Y225907D01*
X643053Y224560D01*
X642323Y222799D01*
Y220894D01*
X643053Y219133D01*
X644400Y217786D01*
X646161Y217057D01*
X648066D01*
X649827Y217786D01*
X651174Y219133D01*
X651903Y220894D01*
Y222799D01*
X651174Y224560D01*
X649827Y225907D01*
X648066Y226637D01*
D02*
G37*
G36*
X445857Y224502D02*
X443951D01*
X442191Y223773D01*
X440843Y222426D01*
X440114Y220665D01*
Y218759D01*
X440843Y216999D01*
X442191Y215651D01*
X443951Y214922D01*
X445857D01*
X447617Y215651D01*
X448965Y216999D01*
X449694Y218759D01*
Y220665D01*
X448965Y222426D01*
X447617Y223773D01*
X445857Y224502D01*
D02*
G37*
G36*
X1251553Y220729D02*
X1249647D01*
X1247886Y220000D01*
X1246539Y218653D01*
X1245810Y216892D01*
Y214987D01*
X1246539Y213226D01*
X1247886Y211879D01*
X1249647Y211149D01*
X1251553D01*
X1253313Y211879D01*
X1254660Y213226D01*
X1255390Y214987D01*
Y216892D01*
X1254660Y218653D01*
X1253313Y220000D01*
X1251553Y220729D01*
D02*
G37*
G36*
X1281611Y201601D02*
X1279347D01*
X1277160Y201015D01*
X1276679Y200737D01*
X1276199Y201015D01*
X1274011Y201601D01*
X1271747D01*
X1269560Y201015D01*
X1267599Y199883D01*
X1265997Y198281D01*
X1264865Y196320D01*
X1264279Y194133D01*
Y191869D01*
X1264865Y189681D01*
X1265997Y187720D01*
X1267599Y186119D01*
X1269560Y184987D01*
X1271747Y184401D01*
X1274011D01*
X1276199Y184987D01*
X1276679Y185264D01*
X1277160Y184987D01*
X1279347Y184401D01*
X1281611D01*
X1283798Y184987D01*
X1285759Y186119D01*
X1287361Y187720D01*
X1288493Y189681D01*
X1289079Y191869D01*
Y194133D01*
X1288493Y196320D01*
X1287361Y198281D01*
X1285759Y199883D01*
X1283798Y201015D01*
X1281611Y201601D01*
D02*
G37*
G36*
X73050Y201057D02*
X69070D01*
Y194470D01*
X80740D01*
X80639Y195234D01*
X79854Y197129D01*
X78606Y198756D01*
X76979Y200005D01*
X75084Y200790D01*
X73050Y201057D01*
D02*
G37*
G36*
X66530D02*
X62550D01*
X60516Y200790D01*
X58621Y200005D01*
X56994Y198756D01*
X55746Y197129D01*
X54960Y195234D01*
X54860Y194470D01*
X66530D01*
Y201057D01*
D02*
G37*
G36*
X29175Y201526D02*
X27270D01*
Y194470D01*
X37334D01*
X37218Y195355D01*
X36386Y197363D01*
X35062Y199088D01*
X33338Y200411D01*
X31330Y201243D01*
X29175Y201526D01*
D02*
G37*
G36*
X24730D02*
X22825D01*
X20670Y201243D01*
X18662Y200411D01*
X16938Y199088D01*
X15614Y197363D01*
X14783Y195355D01*
X14666Y194470D01*
X24730D01*
Y201526D01*
D02*
G37*
G36*
X1221417Y232705D02*
X1219153D01*
X1216966Y232119D01*
X1215005Y230987D01*
X1213404Y229386D01*
X1212271Y227425D01*
X1211685Y225237D01*
Y222973D01*
X1212271Y220786D01*
X1212387Y220585D01*
X1212271Y220385D01*
X1211685Y218197D01*
Y215933D01*
X1212271Y213746D01*
X1213404Y211785D01*
X1215005Y210184D01*
X1216966Y209051D01*
X1217912Y208798D01*
X1217854Y208582D01*
Y206318D01*
X1218440Y204131D01*
X1218682Y203711D01*
X1218440Y203292D01*
X1217854Y201105D01*
Y198841D01*
X1218440Y196653D01*
X1219572Y194692D01*
X1221173Y193091D01*
X1223134Y191959D01*
X1225322Y191373D01*
X1227586D01*
X1229773Y191959D01*
X1231734Y193091D01*
X1233335Y194692D01*
X1234468Y196653D01*
X1235054Y198841D01*
Y201105D01*
X1234468Y203292D01*
X1234226Y203711D01*
X1234468Y204131D01*
X1235054Y206318D01*
Y208582D01*
X1234468Y210770D01*
X1233335Y212731D01*
X1231734Y214332D01*
X1229773Y215464D01*
X1228828Y215718D01*
X1228885Y215933D01*
Y218197D01*
X1228299Y220385D01*
X1228184Y220585D01*
X1228299Y220786D01*
X1228885Y222973D01*
Y225237D01*
X1228299Y227425D01*
X1227167Y229386D01*
X1225566Y230987D01*
X1223605Y232119D01*
X1221417Y232705D01*
D02*
G37*
G36*
X80740Y191930D02*
X69070D01*
Y185343D01*
X73050D01*
X75084Y185611D01*
X76979Y186395D01*
X78606Y187644D01*
X79854Y189271D01*
X80639Y191166D01*
X80740Y191930D01*
D02*
G37*
G36*
X66530D02*
X54860D01*
X54960Y191166D01*
X55746Y189271D01*
X56994Y187644D01*
X58621Y186395D01*
X60516Y185611D01*
X62550Y185343D01*
X66530D01*
Y191930D01*
D02*
G37*
G36*
X853693Y194773D02*
X851787D01*
X850027Y194044D01*
X848680Y192697D01*
X847950Y190936D01*
Y189031D01*
X848680Y187270D01*
X850027Y185923D01*
X851787Y185193D01*
X853693D01*
X855453Y185923D01*
X856801Y187270D01*
X857530Y189031D01*
Y190936D01*
X856801Y192697D01*
X855453Y194044D01*
X853693Y194773D01*
D02*
G37*
G36*
X37334Y191930D02*
X27270D01*
Y184874D01*
X29175D01*
X31330Y185158D01*
X33338Y185989D01*
X35062Y187313D01*
X36386Y189037D01*
X37218Y191045D01*
X37334Y191930D01*
D02*
G37*
G36*
X24730D02*
X14666D01*
X14783Y191045D01*
X15614Y189037D01*
X16938Y187313D01*
X18662Y185989D01*
X20670Y185158D01*
X22825Y184874D01*
X24730D01*
Y191930D01*
D02*
G37*
G36*
X63745Y183650D02*
X61855D01*
X60109Y182927D01*
X58773Y181591D01*
X58050Y179845D01*
Y177955D01*
X58773Y176209D01*
X60109Y174873D01*
X61855Y174150D01*
X63745D01*
X65491Y174873D01*
X66827Y176209D01*
X67550Y177955D01*
Y179845D01*
X66827Y181591D01*
X65491Y182927D01*
X63745Y183650D01*
D02*
G37*
G36*
X1248718Y175002D02*
X1246813D01*
X1245052Y174272D01*
X1243705Y172925D01*
X1242975Y171164D01*
Y170017D01*
X1241828D01*
X1240067Y169288D01*
X1238720Y167940D01*
X1237991Y166180D01*
Y164274D01*
X1238720Y162514D01*
X1240067Y161166D01*
X1241828Y160437D01*
X1243734D01*
X1245494Y161166D01*
X1246842Y162514D01*
X1247571Y164274D01*
Y165422D01*
X1248718D01*
X1250479Y166151D01*
X1251826Y167498D01*
X1252555Y169259D01*
Y171164D01*
X1251826Y172925D01*
X1250479Y174272D01*
X1248718Y175002D01*
D02*
G37*
G36*
X1401277Y233618D02*
X1399371D01*
X1397611Y232888D01*
X1396263Y231541D01*
X1395534Y229780D01*
Y227875D01*
X1396263Y226114D01*
X1396699Y225679D01*
Y221887D01*
X1396198Y221387D01*
X1395701Y221054D01*
X1395700Y221054D01*
X1387583Y212937D01*
X1368663D01*
X1367276Y212661D01*
X1366100Y211875D01*
X1366100Y211875D01*
X1361208Y206984D01*
X1361208Y206983D01*
X1356210Y201985D01*
X1356210Y201985D01*
X1353809Y199584D01*
X1353023Y198407D01*
X1352747Y197020D01*
X1352747Y197020D01*
Y181880D01*
X1352747Y181880D01*
X1353023Y180492D01*
X1353809Y179316D01*
X1356210Y176915D01*
X1356210Y176915D01*
X1357471Y175653D01*
X1357471Y175653D01*
X1358648Y174867D01*
X1360035Y174591D01*
X1374324D01*
X1378305Y170610D01*
Y153590D01*
X1375917Y151201D01*
X1374251D01*
Y152409D01*
X1373665Y154596D01*
X1372533Y156557D01*
X1370932Y158158D01*
X1368971Y159291D01*
X1366784Y159877D01*
X1364519D01*
X1362332Y159291D01*
X1360371Y158158D01*
X1358770Y156557D01*
X1357637Y154596D01*
X1357052Y152409D01*
Y150145D01*
X1357637Y147957D01*
X1358770Y145996D01*
X1360371Y144395D01*
X1360594Y144266D01*
Y142859D01*
X1361323Y141098D01*
X1362670Y139751D01*
X1364431Y139022D01*
X1366337D01*
X1368097Y139751D01*
X1369445Y141098D01*
X1370174Y142859D01*
Y143474D01*
X1370650Y143950D01*
X1377418D01*
X1377419Y143950D01*
X1378806Y144226D01*
X1379982Y145012D01*
X1381334Y146364D01*
X1382350Y145943D01*
Y144736D01*
X1383004Y142295D01*
X1384268Y140105D01*
X1386055Y138318D01*
X1386160Y138258D01*
Y136848D01*
X1387041Y134720D01*
X1387146Y134616D01*
Y133855D01*
X1382414Y129123D01*
X1360448D01*
X1360448Y129123D01*
X1358862Y128808D01*
X1357518Y127910D01*
X1328285Y98677D01*
X1304834D01*
X1304413Y99693D01*
X1305189Y100469D01*
X1305918Y102229D01*
Y104135D01*
X1305189Y105896D01*
X1303842Y107243D01*
X1302081Y107972D01*
X1300176D01*
X1299032Y107498D01*
X1298707Y107785D01*
X1298390Y108332D01*
X1299420Y110117D01*
X1300006Y112304D01*
Y114569D01*
X1299420Y116756D01*
X1298288Y118717D01*
X1296687Y120318D01*
X1295124Y121220D01*
X1294222Y122783D01*
X1293166Y123839D01*
X1293150Y123882D01*
X1293367Y125075D01*
X1294790Y125896D01*
X1296391Y127498D01*
X1297524Y129459D01*
X1298110Y131646D01*
Y133910D01*
X1297524Y136098D01*
X1296391Y138059D01*
X1294790Y139660D01*
X1292829Y140792D01*
X1292605Y140852D01*
X1292545Y141076D01*
X1291413Y143037D01*
X1289812Y144638D01*
X1287851Y145770D01*
X1285664Y146356D01*
X1283399D01*
X1281212Y145770D01*
X1279251Y144638D01*
X1277650Y143037D01*
X1276518Y141076D01*
X1275932Y138888D01*
Y136624D01*
X1276518Y134437D01*
X1277650Y132476D01*
X1279251Y130875D01*
X1281212Y129742D01*
X1281436Y129682D01*
X1281496Y129459D01*
X1282628Y127498D01*
X1283685Y126441D01*
X1283700Y126398D01*
X1283483Y125206D01*
X1282060Y124384D01*
X1280459Y122783D01*
X1279327Y120822D01*
X1278741Y118635D01*
Y116370D01*
X1279327Y114183D01*
X1280459Y112222D01*
X1282060Y110621D01*
X1283623Y109719D01*
X1284525Y108156D01*
X1286126Y106555D01*
X1288087Y105422D01*
X1290274Y104837D01*
X1292539D01*
X1294726Y105422D01*
X1296101Y106216D01*
X1296908Y105509D01*
X1296339Y104135D01*
Y102229D01*
X1297068Y100469D01*
X1297844Y99693D01*
X1297423Y98677D01*
X1293970D01*
X1292385Y98361D01*
X1291040Y97463D01*
X1271575Y77998D01*
X1245523D01*
X1240447Y83073D01*
Y92995D01*
X1240132Y94580D01*
X1239234Y95925D01*
X1234996Y100163D01*
X1233651Y101061D01*
X1232066Y101376D01*
X1187389D01*
X1187187Y102392D01*
X1188479Y102928D01*
X1189826Y104275D01*
X1190555Y106036D01*
Y107941D01*
X1189826Y109702D01*
X1188479Y111049D01*
X1186718Y111778D01*
X1184813D01*
X1183052Y111049D01*
X1181705Y109702D01*
X1180975Y107941D01*
Y106036D01*
X1181705Y104275D01*
X1183052Y102928D01*
X1184344Y102392D01*
X1184142Y101376D01*
X1169869D01*
X1168562Y101918D01*
X1166656D01*
X1164896Y101189D01*
X1163548Y99841D01*
X1162819Y98081D01*
Y96175D01*
X1163548Y94415D01*
X1164896Y93067D01*
X1166656Y92338D01*
X1168562D01*
X1170322Y93067D01*
X1170344Y93089D01*
X1230349D01*
X1232160Y91278D01*
Y81357D01*
X1232475Y79771D01*
X1233374Y78427D01*
X1240876Y70925D01*
X1242221Y70026D01*
X1243806Y69711D01*
X1273292D01*
X1274877Y70026D01*
X1276222Y70925D01*
X1295687Y90390D01*
X1330002D01*
X1331587Y90705D01*
X1332932Y91603D01*
X1356234Y114906D01*
X1357173Y114517D01*
Y103893D01*
X1357468Y102406D01*
X1358310Y101146D01*
X1369236Y90220D01*
X1369761Y89869D01*
X1369861Y88858D01*
X1362732Y81729D01*
X1361510Y80137D01*
X1360742Y78284D01*
X1360481Y76294D01*
Y33105D01*
X1357534Y30159D01*
X1335489D01*
X1333500Y29897D01*
X1331646Y29129D01*
X1330055Y27908D01*
X1328833Y26316D01*
X1328065Y24462D01*
X1327804Y22473D01*
X1328065Y20484D01*
X1328833Y18630D01*
X1330055Y17038D01*
X1331646Y15817D01*
X1333500Y15049D01*
X1335489Y14787D01*
X1360718D01*
X1362707Y15049D01*
X1364561Y15817D01*
X1366152Y17038D01*
X1373601Y24487D01*
X1374823Y26079D01*
X1375590Y27932D01*
X1375852Y29922D01*
Y73111D01*
X1390660Y87919D01*
X1391553Y89082D01*
X1435222D01*
X1436709Y89378D01*
X1437969Y90220D01*
X1443682Y95933D01*
X1444524Y97194D01*
X1444820Y98680D01*
Y196981D01*
X1444524Y198468D01*
X1443682Y199728D01*
X1434238Y209173D01*
X1432977Y210015D01*
X1431491Y210310D01*
X1396539D01*
X1396150Y211249D01*
X1400496Y215595D01*
X1400993Y215927D01*
X1402888Y217822D01*
X1402888Y217822D01*
X1403674Y218998D01*
X1403950Y220386D01*
X1403950Y220386D01*
Y225679D01*
X1404385Y226114D01*
X1405114Y227875D01*
Y229780D01*
X1404385Y231541D01*
X1403038Y232888D01*
X1401277Y233618D01*
D02*
G37*
G36*
X1265744Y170347D02*
X1263480D01*
X1261293Y169761D01*
X1259332Y168629D01*
X1257730Y167028D01*
X1256598Y165067D01*
X1256538Y164843D01*
X1256315Y164783D01*
X1254353Y163651D01*
X1252752Y162050D01*
X1251620Y160089D01*
X1251034Y157901D01*
Y155637D01*
X1251620Y153450D01*
X1252752Y151489D01*
X1254353Y149887D01*
X1256315Y148755D01*
X1258502Y148169D01*
X1260766D01*
X1262953Y148755D01*
X1264914Y149887D01*
X1266516Y151489D01*
X1267648Y153450D01*
X1267708Y153673D01*
X1267932Y153733D01*
X1269893Y154865D01*
X1271494Y156467D01*
X1272626Y158428D01*
X1273212Y160615D01*
Y162879D01*
X1272626Y165067D01*
X1271494Y167028D01*
X1269893Y168629D01*
X1267932Y169761D01*
X1265744Y170347D01*
D02*
G37*
G36*
X1046973Y157093D02*
X1045067D01*
X1043307Y156364D01*
X1041959Y155017D01*
X1041230Y153256D01*
Y151351D01*
X1041959Y149590D01*
X1043307Y148243D01*
X1045067Y147514D01*
X1046973D01*
X1048733Y148243D01*
X1050081Y149590D01*
X1050810Y151351D01*
Y153256D01*
X1050081Y155017D01*
X1048733Y156364D01*
X1046973Y157093D01*
D02*
G37*
G36*
X221933Y149570D02*
X220027D01*
X218267Y148841D01*
X216919Y147493D01*
X216190Y145733D01*
Y143827D01*
X216919Y142067D01*
X218016Y140970D01*
X217170Y140124D01*
X216073Y141221D01*
X214313Y141950D01*
X212407D01*
X210647Y141221D01*
X209550Y140124D01*
X208453Y141221D01*
X206693Y141950D01*
X204787D01*
X203027Y141221D01*
X201930Y140124D01*
X200833Y141221D01*
X199073Y141950D01*
X197167D01*
X195407Y141221D01*
X194059Y139873D01*
X193330Y138113D01*
Y136207D01*
X194059Y134447D01*
X195156Y133350D01*
X194059Y132253D01*
X193330Y130493D01*
Y128587D01*
X194059Y126827D01*
X195407Y125479D01*
X197167Y124750D01*
X199073D01*
X200833Y125479D01*
X201930Y126576D01*
X203027Y125479D01*
X204787Y124750D01*
X206693D01*
X208453Y125479D01*
X209550Y126576D01*
X210647Y125479D01*
X212407Y124750D01*
X214313D01*
X216073Y125479D01*
X217170Y126576D01*
X218267Y125479D01*
X220027Y124750D01*
X221933D01*
X223693Y125479D01*
X225041Y126827D01*
X225770Y128587D01*
Y130493D01*
X225041Y132253D01*
X223944Y133350D01*
X225041Y134447D01*
X225770Y136207D01*
Y138113D01*
X225041Y139873D01*
X223944Y140970D01*
X225041Y142067D01*
X225770Y143827D01*
Y145733D01*
X225041Y147493D01*
X223693Y148841D01*
X221933Y149570D01*
D02*
G37*
G36*
X607331Y135190D02*
X604069D01*
X600918Y134346D01*
X598092Y132714D01*
X596381Y131003D01*
X595700Y130474D01*
X595019Y131003D01*
X593308Y132714D01*
X590482Y134346D01*
X587331Y135190D01*
X584069D01*
X580918Y134346D01*
X578092Y132714D01*
X575785Y130408D01*
X574154Y127582D01*
X574112Y127423D01*
X573021Y127279D01*
X572566Y128068D01*
X570968Y129666D01*
X569012Y130795D01*
X566970Y131342D01*
Y122800D01*
X564430D01*
Y131342D01*
X562388Y130795D01*
X560432Y129666D01*
X558834Y128068D01*
X558379Y127279D01*
X557288Y127423D01*
X557246Y127582D01*
X555614Y130408D01*
X553308Y132714D01*
X550482Y134346D01*
X547331Y135190D01*
X544069D01*
X540918Y134346D01*
X538092Y132714D01*
X536381Y131003D01*
X535700Y130474D01*
X535019Y131003D01*
X533308Y132714D01*
X530482Y134346D01*
X527331Y135190D01*
X524069D01*
X520918Y134346D01*
X518092Y132714D01*
X515785Y130408D01*
X514154Y127582D01*
X513310Y124431D01*
Y121169D01*
X514154Y118018D01*
X515785Y115192D01*
X518092Y112886D01*
X520918Y111254D01*
X522120Y110932D01*
Y99220D01*
X539280D01*
Y111184D01*
X540160Y111692D01*
X540918Y111254D01*
X543605Y110534D01*
X543310Y109431D01*
Y106169D01*
X544154Y103018D01*
X545785Y100192D01*
X548092Y97886D01*
X550918Y96254D01*
X554069Y95410D01*
X557331D01*
X560482Y96254D01*
X563308Y97886D01*
X565019Y99597D01*
X565700Y100126D01*
X566381Y99597D01*
X568092Y97886D01*
X570918Y96254D01*
X574069Y95410D01*
X577331D01*
X580482Y96254D01*
X583308Y97886D01*
X585614Y100192D01*
X587246Y103018D01*
X588090Y106169D01*
Y109431D01*
X587794Y110534D01*
X590482Y111254D01*
X592180Y112234D01*
X592923Y111490D01*
X592705Y111112D01*
X592158Y109070D01*
X609242D01*
X608779Y110798D01*
X610482Y111254D01*
X613308Y112886D01*
X615614Y115192D01*
X617246Y118018D01*
X618090Y121169D01*
Y124431D01*
X617246Y127582D01*
X615614Y130408D01*
X613308Y132714D01*
X610482Y134346D01*
X607331Y135190D01*
D02*
G37*
G36*
X407331D02*
X404069D01*
X400918Y134346D01*
X398092Y132714D01*
X396381Y131003D01*
X395700Y130474D01*
X395019Y131003D01*
X393308Y132714D01*
X390482Y134346D01*
X387331Y135190D01*
X384069D01*
X380918Y134346D01*
X378092Y132714D01*
X375785Y130408D01*
X374154Y127582D01*
X374112Y127423D01*
X373021Y127279D01*
X372566Y128068D01*
X370968Y129666D01*
X369012Y130795D01*
X366970Y131342D01*
Y122800D01*
X364430D01*
Y131342D01*
X362388Y130795D01*
X360432Y129666D01*
X358834Y128068D01*
X358379Y127279D01*
X357288Y127423D01*
X357246Y127582D01*
X355614Y130408D01*
X353308Y132714D01*
X350482Y134346D01*
X347331Y135190D01*
X344069D01*
X340918Y134346D01*
X338092Y132714D01*
X336381Y131003D01*
X335700Y130474D01*
X335019Y131003D01*
X333308Y132714D01*
X330482Y134346D01*
X327331Y135190D01*
X324069D01*
X320918Y134346D01*
X318092Y132714D01*
X315786Y130408D01*
X314154Y127582D01*
X313310Y124431D01*
Y121169D01*
X314154Y118018D01*
X315786Y115192D01*
X318092Y112886D01*
X320918Y111254D01*
X322120Y110932D01*
Y99220D01*
X339280D01*
Y111184D01*
X340160Y111692D01*
X340918Y111254D01*
X343605Y110534D01*
X343310Y109431D01*
Y106169D01*
X344154Y103018D01*
X345785Y100192D01*
X348092Y97886D01*
X350918Y96254D01*
X354069Y95410D01*
X357331D01*
X360482Y96254D01*
X363308Y97886D01*
X365019Y99597D01*
X365700Y100126D01*
X366381Y99597D01*
X368092Y97886D01*
X370918Y96254D01*
X374069Y95410D01*
X377331D01*
X380482Y96254D01*
X383308Y97886D01*
X385614Y100192D01*
X387246Y103018D01*
X388090Y106169D01*
Y109431D01*
X387794Y110534D01*
X390482Y111254D01*
X392180Y112234D01*
X392923Y111490D01*
X392705Y111112D01*
X392158Y109070D01*
X409242D01*
X408779Y110798D01*
X410482Y111254D01*
X413308Y112886D01*
X415614Y115192D01*
X417246Y118018D01*
X418090Y121169D01*
Y124431D01*
X417246Y127582D01*
X415614Y130408D01*
X413308Y132714D01*
X410482Y134346D01*
X407331Y135190D01*
D02*
G37*
G36*
X1007331D02*
X1004069D01*
X1000918Y134346D01*
X998092Y132714D01*
X996381Y131003D01*
X995700Y130474D01*
X995019Y131003D01*
X993308Y132714D01*
X990482Y134346D01*
X987331Y135190D01*
X984069D01*
X980918Y134346D01*
X978092Y132714D01*
X975786Y130408D01*
X974154Y127582D01*
X974112Y127423D01*
X973021Y127279D01*
X972566Y128068D01*
X970968Y129666D01*
X969012Y130795D01*
X966970Y131342D01*
Y122800D01*
X964430D01*
Y131342D01*
X962388Y130795D01*
X960432Y129666D01*
X958834Y128068D01*
X958379Y127279D01*
X957288Y127423D01*
X957246Y127582D01*
X955614Y130408D01*
X953308Y132714D01*
X950482Y134346D01*
X947331Y135190D01*
X944069D01*
X940918Y134346D01*
X938092Y132714D01*
X936381Y131003D01*
X935700Y130474D01*
X935019Y131003D01*
X933308Y132714D01*
X930482Y134346D01*
X927331Y135190D01*
X924069D01*
X920918Y134346D01*
X918092Y132714D01*
X915786Y130408D01*
X914154Y127582D01*
X913310Y124431D01*
Y121169D01*
X914154Y118018D01*
X915786Y115192D01*
X918092Y112886D01*
X920918Y111254D01*
X922120Y110932D01*
Y99220D01*
X939280D01*
Y111184D01*
X940160Y111692D01*
X940918Y111254D01*
X943605Y110534D01*
X943310Y109431D01*
Y106169D01*
X944154Y103018D01*
X945786Y100192D01*
X948092Y97886D01*
X950918Y96254D01*
X954069Y95410D01*
X957331D01*
X960482Y96254D01*
X963308Y97886D01*
X965019Y99597D01*
X965700Y100126D01*
X966381Y99597D01*
X968092Y97886D01*
X970918Y96254D01*
X974069Y95410D01*
X977331D01*
X980482Y96254D01*
X983308Y97886D01*
X985614Y100192D01*
X987246Y103018D01*
X988090Y106169D01*
Y109431D01*
X987794Y110534D01*
X990482Y111254D01*
X992180Y112234D01*
X992923Y111490D01*
X992705Y111112D01*
X992158Y109070D01*
X1009242D01*
X1008779Y110798D01*
X1010482Y111254D01*
X1013308Y112886D01*
X1015614Y115192D01*
X1017246Y118018D01*
X1018090Y121169D01*
Y124431D01*
X1017246Y127582D01*
X1015614Y130408D01*
X1013308Y132714D01*
X1010482Y134346D01*
X1007331Y135190D01*
D02*
G37*
G36*
X807331D02*
X804069D01*
X800918Y134346D01*
X798092Y132714D01*
X796381Y131003D01*
X795700Y130474D01*
X795019Y131003D01*
X793308Y132714D01*
X790482Y134346D01*
X787331Y135190D01*
X784069D01*
X780918Y134346D01*
X778092Y132714D01*
X775786Y130408D01*
X774154Y127582D01*
X774112Y127423D01*
X773021Y127279D01*
X772566Y128068D01*
X770968Y129666D01*
X769012Y130795D01*
X766970Y131342D01*
Y122800D01*
X764430D01*
Y131342D01*
X762388Y130795D01*
X760432Y129666D01*
X758834Y128068D01*
X758379Y127279D01*
X757288Y127423D01*
X757246Y127582D01*
X755614Y130408D01*
X753308Y132714D01*
X750482Y134346D01*
X747331Y135190D01*
X744069D01*
X740918Y134346D01*
X738092Y132714D01*
X736381Y131003D01*
X735700Y130474D01*
X735019Y131003D01*
X733308Y132714D01*
X730482Y134346D01*
X727331Y135190D01*
X724069D01*
X720918Y134346D01*
X718092Y132714D01*
X715786Y130408D01*
X714154Y127582D01*
X713310Y124431D01*
Y121169D01*
X714154Y118018D01*
X715786Y115192D01*
X718092Y112886D01*
X720918Y111254D01*
X722120Y110932D01*
Y99220D01*
X739280D01*
Y111184D01*
X740160Y111692D01*
X740918Y111254D01*
X743605Y110534D01*
X743310Y109431D01*
Y106169D01*
X744154Y103018D01*
X745786Y100192D01*
X748092Y97886D01*
X750918Y96254D01*
X754069Y95410D01*
X757331D01*
X760482Y96254D01*
X763308Y97886D01*
X765019Y99597D01*
X765700Y100126D01*
X766381Y99597D01*
X768092Y97886D01*
X770918Y96254D01*
X774069Y95410D01*
X777331D01*
X780482Y96254D01*
X783308Y97886D01*
X785614Y100192D01*
X787246Y103018D01*
X788090Y106169D01*
Y109431D01*
X787794Y110534D01*
X790482Y111254D01*
X792180Y112234D01*
X792923Y111490D01*
X792705Y111112D01*
X792158Y109070D01*
X809242D01*
X808779Y110798D01*
X810482Y111254D01*
X813308Y112886D01*
X815614Y115192D01*
X817246Y118018D01*
X818090Y121169D01*
Y124431D01*
X817246Y127582D01*
X815614Y130408D01*
X813308Y132714D01*
X810482Y134346D01*
X807331Y135190D01*
D02*
G37*
G36*
X1242855Y139851D02*
X1240949D01*
X1239189Y139122D01*
X1237841Y137774D01*
X1237112Y136014D01*
Y134108D01*
X1237841Y132348D01*
X1239189Y131000D01*
X1240949Y130271D01*
X1242855D01*
X1244615Y131000D01*
X1245963Y132348D01*
X1246692Y134108D01*
Y136014D01*
X1245963Y137774D01*
X1244615Y139122D01*
X1242855Y139851D01*
D02*
G37*
G36*
X1203335Y129632D02*
X1201430D01*
X1199669Y128903D01*
X1198322Y127555D01*
X1197592Y125794D01*
Y123889D01*
X1198322Y122128D01*
X1199669Y120781D01*
X1201430Y120052D01*
X1203335D01*
X1205096Y120781D01*
X1206443Y122128D01*
X1207172Y123889D01*
Y125794D01*
X1206443Y127555D01*
X1205096Y128903D01*
X1203335Y129632D01*
D02*
G37*
G36*
X63745Y125850D02*
X61855D01*
X60109Y125127D01*
X58773Y123791D01*
X58050Y122045D01*
Y120155D01*
X58773Y118409D01*
X60109Y117073D01*
X61855Y116350D01*
X63745D01*
X65491Y117073D01*
X66827Y118409D01*
X67550Y120155D01*
Y122045D01*
X66827Y123791D01*
X65491Y125127D01*
X63745Y125850D01*
D02*
G37*
G36*
X1220294Y122295D02*
X1218388D01*
X1216628Y121565D01*
X1215280Y120218D01*
X1214551Y118457D01*
Y116552D01*
X1215280Y114791D01*
X1216628Y113444D01*
X1218388Y112715D01*
X1220294D01*
X1222055Y113444D01*
X1223402Y114791D01*
X1224131Y116552D01*
Y118457D01*
X1223402Y120218D01*
X1222055Y121565D01*
X1220294Y122295D01*
D02*
G37*
G36*
X1263045Y117764D02*
X1261140D01*
X1259379Y117035D01*
X1258032Y115688D01*
X1257302Y113927D01*
Y112022D01*
X1258032Y110261D01*
X1259379Y108914D01*
X1261140Y108184D01*
X1263045D01*
X1264806Y108914D01*
X1266153Y110261D01*
X1266882Y112022D01*
Y113927D01*
X1266153Y115688D01*
X1264806Y117035D01*
X1263045Y117764D01*
D02*
G37*
G36*
X73050Y114657D02*
X69070D01*
Y108070D01*
X80740D01*
X80639Y108834D01*
X79854Y110729D01*
X78606Y112356D01*
X76979Y113604D01*
X75084Y114389D01*
X73050Y114657D01*
D02*
G37*
G36*
X66530D02*
X62550D01*
X60516Y114389D01*
X58621Y113604D01*
X56994Y112356D01*
X55746Y110729D01*
X54960Y108834D01*
X54860Y108070D01*
X66530D01*
Y114657D01*
D02*
G37*
G36*
X29175Y115126D02*
X27270D01*
Y108070D01*
X37334D01*
X37218Y108955D01*
X36386Y110963D01*
X35062Y112688D01*
X33338Y114011D01*
X31330Y114843D01*
X29175Y115126D01*
D02*
G37*
G36*
X24730D02*
X22825D01*
X20670Y114843D01*
X18662Y114011D01*
X16938Y112688D01*
X15614Y110963D01*
X14783Y108955D01*
X14666Y108070D01*
X24730D01*
Y115126D01*
D02*
G37*
G36*
X1009242Y106530D02*
X1001970D01*
Y99258D01*
X1004012Y99805D01*
X1005968Y100934D01*
X1007566Y102532D01*
X1008695Y104488D01*
X1009242Y106530D01*
D02*
G37*
G36*
X999430D02*
X992158D01*
X992705Y104488D01*
X993834Y102532D01*
X995432Y100934D01*
X997388Y99805D01*
X999430Y99258D01*
Y106530D01*
D02*
G37*
G36*
X809242D02*
X801970D01*
Y99258D01*
X804012Y99805D01*
X805968Y100934D01*
X807566Y102532D01*
X808695Y104488D01*
X809242Y106530D01*
D02*
G37*
G36*
X799430D02*
X792158D01*
X792705Y104488D01*
X793834Y102532D01*
X795432Y100934D01*
X797388Y99805D01*
X799430Y99258D01*
Y106530D01*
D02*
G37*
G36*
X609242D02*
X601970D01*
Y99258D01*
X604012Y99805D01*
X605968Y100934D01*
X607566Y102532D01*
X608695Y104488D01*
X609242Y106530D01*
D02*
G37*
G36*
X599430D02*
X592158D01*
X592705Y104488D01*
X593834Y102532D01*
X595432Y100934D01*
X597388Y99805D01*
X599430Y99258D01*
Y106530D01*
D02*
G37*
G36*
X409242D02*
X401970D01*
Y99258D01*
X404012Y99805D01*
X405968Y100934D01*
X407566Y102532D01*
X408695Y104488D01*
X409242Y106530D01*
D02*
G37*
G36*
X399430D02*
X392158D01*
X392705Y104488D01*
X393834Y102532D01*
X395432Y100934D01*
X397388Y99805D01*
X399430Y99258D01*
Y106530D01*
D02*
G37*
G36*
X80740Y105530D02*
X69070D01*
Y98943D01*
X73050D01*
X75084Y99211D01*
X76979Y99995D01*
X78606Y101244D01*
X79854Y102871D01*
X80639Y104766D01*
X80740Y105530D01*
D02*
G37*
G36*
X66530D02*
X54860D01*
X54960Y104766D01*
X55746Y102871D01*
X56994Y101244D01*
X58621Y99995D01*
X60516Y99211D01*
X62550Y98943D01*
X66530D01*
Y105530D01*
D02*
G37*
G36*
X37334D02*
X27270D01*
Y98474D01*
X29175D01*
X31330Y98757D01*
X33338Y99589D01*
X35062Y100913D01*
X36386Y102637D01*
X37218Y104645D01*
X37334Y105530D01*
D02*
G37*
G36*
X24730D02*
X14666D01*
X14783Y104645D01*
X15614Y102637D01*
X16938Y100913D01*
X18662Y99589D01*
X20670Y98757D01*
X22825Y98474D01*
X24730D01*
Y105530D01*
D02*
G37*
G36*
X1281285Y100952D02*
X1279380D01*
X1277619Y100222D01*
X1276272Y98875D01*
X1275543Y97114D01*
Y95209D01*
X1276272Y93448D01*
X1277619Y92101D01*
X1279380Y91372D01*
X1281285D01*
X1283046Y92101D01*
X1284393Y93448D01*
X1285122Y95209D01*
Y97114D01*
X1284393Y98875D01*
X1283046Y100222D01*
X1281285Y100952D01*
D02*
G37*
G36*
X1190079Y92011D02*
X1188173D01*
X1186413Y91282D01*
X1185065Y89934D01*
X1184336Y88174D01*
Y86268D01*
X1185065Y84508D01*
X1186413Y83160D01*
X1188173Y82431D01*
X1190079D01*
X1191839Y83160D01*
X1193187Y84508D01*
X1193916Y86268D01*
Y88174D01*
X1193187Y89934D01*
X1191839Y91282D01*
X1190079Y92011D01*
D02*
G37*
G36*
X1033283Y106920D02*
X1029517D01*
X1025823Y106185D01*
X1022343Y104744D01*
X1019212Y102652D01*
X1016548Y99988D01*
X1014456Y96857D01*
X1013015Y93377D01*
X1012280Y89683D01*
Y85917D01*
X1013015Y82223D01*
X1014456Y78743D01*
X1016548Y75612D01*
X1019212Y72948D01*
X1022343Y70856D01*
X1025823Y69415D01*
X1029517Y68680D01*
X1033283D01*
X1036977Y69415D01*
X1040457Y70856D01*
X1043588Y72948D01*
X1046252Y75612D01*
X1048344Y78743D01*
X1049785Y82223D01*
X1050520Y85917D01*
Y89683D01*
X1049785Y93377D01*
X1048344Y96857D01*
X1046252Y99988D01*
X1043588Y102652D01*
X1040457Y104744D01*
X1036977Y106185D01*
X1033283Y106920D01*
D02*
G37*
G36*
X901883D02*
X898117D01*
X894423Y106185D01*
X890943Y104744D01*
X887812Y102652D01*
X885148Y99988D01*
X883056Y96857D01*
X881615Y93377D01*
X880880Y89683D01*
Y85917D01*
X881615Y82223D01*
X883056Y78743D01*
X885148Y75612D01*
X887812Y72948D01*
X890943Y70856D01*
X894423Y69415D01*
X898117Y68680D01*
X901883D01*
X905577Y69415D01*
X909057Y70856D01*
X912188Y72948D01*
X914852Y75612D01*
X916944Y78743D01*
X918385Y82223D01*
X919120Y85917D01*
Y89683D01*
X918385Y93377D01*
X916944Y96857D01*
X914852Y99988D01*
X912188Y102652D01*
X909057Y104744D01*
X905577Y106185D01*
X901883Y106920D01*
D02*
G37*
G36*
X833283D02*
X829517D01*
X825823Y106185D01*
X822343Y104744D01*
X819212Y102652D01*
X816548Y99988D01*
X814456Y96857D01*
X813015Y93377D01*
X812280Y89683D01*
Y85917D01*
X813015Y82223D01*
X814456Y78743D01*
X816548Y75612D01*
X819212Y72948D01*
X822343Y70856D01*
X825823Y69415D01*
X829517Y68680D01*
X833283D01*
X836977Y69415D01*
X840457Y70856D01*
X843588Y72948D01*
X846251Y75612D01*
X848344Y78743D01*
X849785Y82223D01*
X850520Y85917D01*
Y89683D01*
X849785Y93377D01*
X848344Y96857D01*
X846251Y99988D01*
X843588Y102652D01*
X840457Y104744D01*
X836977Y106185D01*
X833283Y106920D01*
D02*
G37*
G36*
X701883D02*
X698117D01*
X694423Y106185D01*
X690943Y104744D01*
X687812Y102652D01*
X685148Y99988D01*
X683056Y96857D01*
X681615Y93377D01*
X680880Y89683D01*
Y85917D01*
X681615Y82223D01*
X683056Y78743D01*
X685148Y75612D01*
X687812Y72948D01*
X690943Y70856D01*
X694423Y69415D01*
X698117Y68680D01*
X701883D01*
X705577Y69415D01*
X709057Y70856D01*
X712188Y72948D01*
X714852Y75612D01*
X716944Y78743D01*
X718385Y82223D01*
X719120Y85917D01*
Y89683D01*
X718385Y93377D01*
X716944Y96857D01*
X714852Y99988D01*
X712188Y102652D01*
X709057Y104744D01*
X705577Y106185D01*
X701883Y106920D01*
D02*
G37*
G36*
X633283D02*
X629517D01*
X625823Y106185D01*
X622343Y104744D01*
X619212Y102652D01*
X616549Y99988D01*
X614456Y96857D01*
X613015Y93377D01*
X612280Y89683D01*
Y85917D01*
X613015Y82223D01*
X614456Y78743D01*
X616549Y75612D01*
X619212Y72948D01*
X622343Y70856D01*
X625823Y69415D01*
X629517Y68680D01*
X633283D01*
X636977Y69415D01*
X640457Y70856D01*
X643588Y72948D01*
X646252Y75612D01*
X648344Y78743D01*
X649785Y82223D01*
X650520Y85917D01*
Y89683D01*
X649785Y93377D01*
X648344Y96857D01*
X646252Y99988D01*
X643588Y102652D01*
X640457Y104744D01*
X636977Y106185D01*
X633283Y106920D01*
D02*
G37*
G36*
X501883D02*
X498117D01*
X494423Y106185D01*
X490943Y104744D01*
X487812Y102652D01*
X485149Y99988D01*
X483056Y96857D01*
X481615Y93377D01*
X480880Y89683D01*
Y85917D01*
X481615Y82223D01*
X483056Y78743D01*
X485149Y75612D01*
X487812Y72948D01*
X490943Y70856D01*
X494423Y69415D01*
X498117Y68680D01*
X501883D01*
X505577Y69415D01*
X509057Y70856D01*
X512188Y72948D01*
X514851Y75612D01*
X516944Y78743D01*
X518385Y82223D01*
X519120Y85917D01*
Y89683D01*
X518385Y93377D01*
X516944Y96857D01*
X514851Y99988D01*
X512188Y102652D01*
X509057Y104744D01*
X505577Y106185D01*
X501883Y106920D01*
D02*
G37*
G36*
X433283D02*
X429517D01*
X425823Y106185D01*
X422343Y104744D01*
X419212Y102652D01*
X416549Y99988D01*
X414456Y96857D01*
X413015Y93377D01*
X412280Y89683D01*
Y85917D01*
X413015Y82223D01*
X414456Y78743D01*
X416549Y75612D01*
X419212Y72948D01*
X422343Y70856D01*
X425823Y69415D01*
X429517Y68680D01*
X433283D01*
X436977Y69415D01*
X440457Y70856D01*
X443588Y72948D01*
X446251Y75612D01*
X448344Y78743D01*
X449785Y82223D01*
X450520Y85917D01*
Y89683D01*
X449785Y93377D01*
X448344Y96857D01*
X446251Y99988D01*
X443588Y102652D01*
X440457Y104744D01*
X436977Y106185D01*
X433283Y106920D01*
D02*
G37*
G36*
X301883D02*
X298117D01*
X294423Y106185D01*
X290943Y104744D01*
X287812Y102652D01*
X285149Y99988D01*
X283056Y96857D01*
X281615Y93377D01*
X280880Y89683D01*
Y85917D01*
X281615Y82223D01*
X283056Y78743D01*
X285149Y75612D01*
X287812Y72948D01*
X290943Y70856D01*
X294423Y69415D01*
X298117Y68680D01*
X301883D01*
X305577Y69415D01*
X309057Y70856D01*
X312188Y72948D01*
X314851Y75612D01*
X316944Y78743D01*
X318385Y82223D01*
X319120Y85917D01*
Y89683D01*
X318385Y93377D01*
X316944Y96857D01*
X314851Y99988D01*
X312188Y102652D01*
X309057Y104744D01*
X305577Y106185D01*
X301883Y106920D01*
D02*
G37*
G36*
X1078325Y75732D02*
X1076420D01*
X1074659Y75003D01*
X1073311Y73656D01*
X1072582Y71895D01*
Y69989D01*
X1073311Y68229D01*
X1074659Y66881D01*
X1076420Y66152D01*
X1078325D01*
X1080086Y66881D01*
X1081433Y68229D01*
X1082162Y69989D01*
Y71895D01*
X1081433Y73656D01*
X1080086Y75003D01*
X1078325Y75732D01*
D02*
G37*
G36*
X1305757Y74998D02*
X1303851D01*
X1302091Y74269D01*
X1300743Y72922D01*
X1300076Y71309D01*
X1299227D01*
X1297466Y70580D01*
X1296119Y69233D01*
X1295390Y67472D01*
Y65567D01*
X1296119Y63806D01*
X1297466Y62459D01*
X1299227Y61729D01*
X1301132D01*
X1302893Y62459D01*
X1304240Y63806D01*
X1304908Y65418D01*
X1305757D01*
X1307517Y66147D01*
X1308865Y67495D01*
X1309594Y69255D01*
Y71161D01*
X1308865Y72922D01*
X1307517Y74269D01*
X1305757Y74998D01*
D02*
G37*
G36*
X1190245Y65878D02*
X1188340D01*
X1186579Y65149D01*
X1185232Y63802D01*
X1184502Y62041D01*
Y60135D01*
X1185232Y58375D01*
X1186579Y57028D01*
X1188340Y56298D01*
X1190245D01*
X1192006Y57028D01*
X1193353Y58375D01*
X1194082Y60135D01*
Y62041D01*
X1193353Y63802D01*
X1192006Y65149D01*
X1190245Y65878D01*
D02*
G37*
G36*
X1291002Y57243D02*
X1289096D01*
X1287336Y56514D01*
X1285988Y55166D01*
X1285259Y53406D01*
Y51500D01*
X1285988Y49740D01*
X1287336Y48392D01*
X1289096Y47663D01*
X1291002D01*
X1292762Y48392D01*
X1293117Y48747D01*
X1293801Y48063D01*
X1295562Y47334D01*
X1297467D01*
X1299228Y48063D01*
X1300575Y49411D01*
X1301304Y51171D01*
Y53077D01*
X1300575Y54837D01*
X1299228Y56185D01*
X1297467Y56914D01*
X1295562D01*
X1293801Y56185D01*
X1293446Y55830D01*
X1292762Y56514D01*
X1291002Y57243D01*
D02*
G37*
G36*
X1349159Y43122D02*
X1347253D01*
X1345493Y42392D01*
X1344145Y41045D01*
X1343416Y39284D01*
Y37379D01*
X1344145Y35618D01*
X1345493Y34271D01*
X1347253Y33542D01*
X1349159D01*
X1350919Y34271D01*
X1352267Y35618D01*
X1352996Y37379D01*
Y39284D01*
X1352267Y41045D01*
X1350919Y42392D01*
X1349159Y43122D01*
D02*
G37*
G36*
X1242459Y41725D02*
X1240553D01*
X1238793Y40996D01*
X1237445Y39648D01*
X1236716Y37888D01*
Y35982D01*
X1237445Y34222D01*
X1238793Y32875D01*
X1240553Y32145D01*
X1242459D01*
X1244219Y32875D01*
X1245567Y34222D01*
X1246296Y35982D01*
Y37888D01*
X1245567Y39648D01*
X1244219Y40996D01*
X1242459Y41725D01*
D02*
G37*
G36*
X269977Y36604D02*
X268071D01*
X266311Y35875D01*
X264963Y34528D01*
X264234Y32767D01*
Y30861D01*
X264963Y29101D01*
X266311Y27754D01*
X268071Y27024D01*
X269977D01*
X271737Y27754D01*
X273085Y29101D01*
X273814Y30861D01*
Y32767D01*
X273085Y34528D01*
X271737Y35875D01*
X269977Y36604D01*
D02*
G37*
G36*
X1209163Y35396D02*
X1207257D01*
X1205497Y34667D01*
X1204149Y33320D01*
X1203420Y31559D01*
Y29654D01*
X1204149Y27893D01*
X1205497Y26546D01*
X1207257Y25817D01*
X1209163D01*
X1210923Y26546D01*
X1212271Y27893D01*
X1213000Y29654D01*
Y31559D01*
X1212271Y33320D01*
X1210923Y34667D01*
X1209163Y35396D01*
D02*
G37*
G36*
X1225721Y28082D02*
X1223816D01*
X1222055Y27353D01*
X1220708Y26005D01*
X1219978Y24245D01*
Y22339D01*
X1220708Y20579D01*
X1222055Y19231D01*
X1223816Y18502D01*
X1225721D01*
X1227482Y19231D01*
X1228829Y20579D01*
X1229558Y22339D01*
Y24245D01*
X1228829Y26005D01*
X1227482Y27353D01*
X1225721Y28082D01*
D02*
G37*
G36*
X1421777Y43500D02*
X1418223D01*
X1414789Y42580D01*
X1411711Y40803D01*
X1409197Y38289D01*
X1407420Y35211D01*
X1406500Y31777D01*
Y28223D01*
X1407420Y24789D01*
X1409197Y21711D01*
X1411711Y19197D01*
X1414789Y17420D01*
X1418223Y16500D01*
X1421777D01*
X1425211Y17420D01*
X1428289Y19197D01*
X1430803Y21711D01*
X1432580Y24789D01*
X1433500Y28223D01*
Y31777D01*
X1432580Y35211D01*
X1430803Y38289D01*
X1428289Y40803D01*
X1425211Y42580D01*
X1421777Y43500D01*
D02*
G37*
G36*
X31777D02*
X28223D01*
X24789Y42580D01*
X21711Y40803D01*
X19197Y38289D01*
X17420Y35211D01*
X16500Y31777D01*
Y28223D01*
X17420Y24789D01*
X19197Y21711D01*
X21711Y19197D01*
X24789Y17420D01*
X28223Y16500D01*
X31777D01*
X35211Y17420D01*
X38289Y19197D01*
X40803Y21711D01*
X42580Y24789D01*
X43500Y28223D01*
Y31777D01*
X42580Y35211D01*
X40803Y38289D01*
X38289Y40803D01*
X35211Y42580D01*
X31777Y43500D01*
D02*
G37*
G36*
X1111178Y41156D02*
X1109272D01*
X1107512Y40426D01*
X1106164Y39079D01*
X1105435Y37318D01*
Y35413D01*
X1106164Y33652D01*
X1106872Y32945D01*
X1107270Y31940D01*
X1106541Y30180D01*
Y28274D01*
X1107270Y26514D01*
X1108617Y25166D01*
X1110378Y24437D01*
X1112284D01*
X1114044Y25166D01*
X1114900Y26022D01*
X1114962Y26010D01*
X1116274Y24698D01*
X1114928Y23352D01*
X1114199Y21591D01*
Y19686D01*
X1114928Y17925D01*
X1116276Y16578D01*
X1118036Y15848D01*
X1119942D01*
X1121702Y16578D01*
X1123050Y17925D01*
X1123779Y19686D01*
Y21591D01*
X1123050Y23352D01*
X1121738Y24664D01*
X1123084Y26010D01*
X1123813Y27770D01*
Y29676D01*
X1123084Y31436D01*
X1121736Y32784D01*
X1119976Y33513D01*
X1118070D01*
X1116310Y32784D01*
X1115454Y31928D01*
X1115391Y31940D01*
X1114684Y32648D01*
X1114286Y33652D01*
X1115015Y35413D01*
Y37318D01*
X1114286Y39079D01*
X1112939Y40426D01*
X1111178Y41156D01*
D02*
G37*
%LPD*%
G36*
X1440935Y196981D02*
Y98680D01*
X1435222Y92967D01*
X1371983D01*
X1361057Y103893D01*
Y115934D01*
X1365960Y120836D01*
X1367746D01*
X1367948Y119820D01*
X1366526Y119231D01*
X1365107Y118143D01*
X1364019Y116724D01*
X1363335Y115072D01*
X1363101Y113300D01*
Y112820D01*
X1369950D01*
X1376799D01*
Y113300D01*
X1376565Y115072D01*
X1375881Y116724D01*
X1374793Y118143D01*
X1373374Y119231D01*
X1371952Y119820D01*
X1372154Y120836D01*
X1377356D01*
X1380940Y117252D01*
Y115917D01*
X1380550Y114975D01*
Y113025D01*
X1381296Y111224D01*
X1382674Y109846D01*
X1384475Y109100D01*
X1386239D01*
X1386284Y109070D01*
X1397950D01*
X1408640D01*
X1408539Y109834D01*
X1407755Y111729D01*
X1407088Y112598D01*
X1407589Y113614D01*
X1408342D01*
X1412497Y117769D01*
X1412368Y117899D01*
Y179056D01*
X1406254Y185170D01*
X1406155Y186375D01*
X1406506Y186644D01*
X1407755Y188271D01*
X1408539Y190166D01*
X1408640Y190930D01*
X1397950D01*
X1386284D01*
X1386239Y190900D01*
X1384475D01*
X1382674Y190154D01*
X1381296Y188776D01*
X1380550Y186975D01*
Y185025D01*
X1381296Y183224D01*
X1382106Y182414D01*
X1381686Y181398D01*
X1379254D01*
X1378514Y180657D01*
X1378390Y180781D01*
X1377214Y181567D01*
X1376031Y181802D01*
X1375694Y182346D01*
X1375561Y182859D01*
X1375881Y183276D01*
X1376565Y184928D01*
X1376799Y186700D01*
Y187180D01*
X1369950D01*
X1363101D01*
Y186700D01*
X1363335Y184928D01*
X1364019Y183276D01*
X1364339Y182859D01*
X1363838Y181842D01*
X1362331D01*
X1361057Y183116D01*
Y196577D01*
X1361337Y196857D01*
X1361337Y196857D01*
X1366336Y201856D01*
X1366336Y201856D01*
X1370165Y205685D01*
X1389084D01*
X1389084Y205685D01*
X1390472Y205961D01*
X1391167Y206426D01*
X1431491D01*
X1440935Y196981D01*
D02*
G37*
%LPC*%
G36*
X1428100Y202353D02*
X1424370D01*
Y196270D01*
X1435286D01*
X1435202Y196903D01*
X1434468Y198676D01*
X1433299Y200199D01*
X1431776Y201368D01*
X1430003Y202102D01*
X1428100Y202353D01*
D02*
G37*
G36*
X1421830D02*
X1418100D01*
X1416197Y202102D01*
X1414424Y201368D01*
X1412901Y200199D01*
X1411732Y198676D01*
X1410998Y196903D01*
X1410914Y196270D01*
X1421830D01*
Y202353D01*
D02*
G37*
G36*
X1400950Y200057D02*
X1399220D01*
Y193470D01*
X1408640D01*
X1408539Y194234D01*
X1407755Y196129D01*
X1406506Y197756D01*
X1404879Y199004D01*
X1402984Y199790D01*
X1400950Y200057D01*
D02*
G37*
G36*
X1396680D02*
X1394950D01*
X1392916Y199790D01*
X1391021Y199004D01*
X1389394Y197756D01*
X1388145Y196129D01*
X1387361Y194234D01*
X1387260Y193470D01*
X1396680D01*
Y200057D01*
D02*
G37*
G36*
X1371220Y196881D02*
Y189720D01*
X1376799D01*
Y190200D01*
X1376565Y191973D01*
X1375881Y193624D01*
X1374793Y195043D01*
X1373374Y196131D01*
X1371723Y196815D01*
X1371220Y196881D01*
D02*
G37*
G36*
X1368680D02*
X1368177Y196815D01*
X1366526Y196131D01*
X1365107Y195043D01*
X1364019Y193624D01*
X1363335Y191973D01*
X1363101Y190200D01*
Y189720D01*
X1368680D01*
Y196881D01*
D02*
G37*
G36*
X1435286Y193730D02*
X1424370D01*
Y187647D01*
X1428100D01*
X1430003Y187898D01*
X1431776Y188632D01*
X1433299Y189801D01*
X1434468Y191324D01*
X1435202Y193097D01*
X1435286Y193730D01*
D02*
G37*
G36*
X1421830D02*
X1410914D01*
X1410998Y193097D01*
X1411732Y191324D01*
X1412901Y189801D01*
X1414424Y188632D01*
X1416197Y187898D01*
X1418100Y187647D01*
X1421830D01*
Y193730D01*
D02*
G37*
G36*
X1428100Y112353D02*
X1424370D01*
Y106270D01*
X1435286D01*
X1435202Y106903D01*
X1434468Y108676D01*
X1433299Y110199D01*
X1431776Y111368D01*
X1430003Y112102D01*
X1428100Y112353D01*
D02*
G37*
G36*
X1421830D02*
X1418100D01*
X1416197Y112102D01*
X1414424Y111368D01*
X1412901Y110199D01*
X1411732Y108676D01*
X1410998Y106903D01*
X1410914Y106270D01*
X1421830D01*
Y112353D01*
D02*
G37*
G36*
X1368680Y110280D02*
X1363101D01*
Y109800D01*
X1363335Y108027D01*
X1364019Y106376D01*
X1365107Y104957D01*
X1366526Y103869D01*
X1368177Y103185D01*
X1368680Y103119D01*
Y110280D01*
D02*
G37*
G36*
X1376799D02*
X1371220D01*
Y103119D01*
X1371723Y103185D01*
X1373374Y103869D01*
X1374793Y104957D01*
X1375881Y106376D01*
X1376565Y108027D01*
X1376799Y109800D01*
Y110280D01*
D02*
G37*
G36*
X1408640Y106530D02*
X1399220D01*
Y99943D01*
X1400950D01*
X1402984Y100211D01*
X1404879Y100996D01*
X1406506Y102244D01*
X1407755Y103871D01*
X1408539Y105766D01*
X1408640Y106530D01*
D02*
G37*
G36*
X1396680D02*
X1387260D01*
X1387361Y105766D01*
X1388145Y103871D01*
X1389394Y102244D01*
X1391021Y100996D01*
X1392916Y100211D01*
X1394950Y99943D01*
X1396680D01*
Y106530D01*
D02*
G37*
G36*
X1435286Y103730D02*
X1424370D01*
Y97647D01*
X1428100D01*
X1430003Y97898D01*
X1431776Y98632D01*
X1433299Y99801D01*
X1434468Y101323D01*
X1435202Y103097D01*
X1435286Y103730D01*
D02*
G37*
G36*
X1421830D02*
X1410914D01*
X1410998Y103097D01*
X1411732Y101323D01*
X1412901Y99801D01*
X1414424Y98632D01*
X1416197Y97898D01*
X1418100Y97647D01*
X1421830D01*
Y103730D01*
D02*
G37*
%LPD*%
D45*
X1391950Y178000D02*
D03*
Y122000D02*
D03*
X62800Y178900D02*
D03*
Y121100D02*
D03*
X1391950Y146000D02*
D03*
Y154000D02*
D03*
X1398950Y142000D02*
D03*
Y158000D02*
D03*
X1391950Y138000D02*
D03*
Y162000D02*
D03*
X1398950Y166000D02*
D03*
Y134000D02*
D03*
Y126000D02*
D03*
Y174000D02*
D03*
D46*
X965700Y122800D02*
D03*
X1000700Y107800D02*
D03*
X565700Y122800D02*
D03*
X365700D02*
D03*
X765700D02*
D03*
X800700Y107800D02*
D03*
X600700D02*
D03*
X400700D02*
D03*
X405700Y122800D02*
D03*
X345700D02*
D03*
X385700D02*
D03*
X355700Y107800D02*
D03*
X325700Y122800D02*
D03*
X375700Y107800D02*
D03*
X975700D02*
D03*
X955700D02*
D03*
X985700Y122800D02*
D03*
X945700D02*
D03*
X1005700D02*
D03*
X925700D02*
D03*
X775700Y107800D02*
D03*
X755700D02*
D03*
X785700Y122800D02*
D03*
X745700D02*
D03*
X805700D02*
D03*
X725700D02*
D03*
X575700Y107800D02*
D03*
X555700D02*
D03*
X585700Y122800D02*
D03*
X545700D02*
D03*
X605700D02*
D03*
X525700D02*
D03*
D47*
X67800Y193200D02*
D03*
Y106800D02*
D03*
D48*
X26000Y193200D02*
D03*
Y106800D02*
D03*
D49*
X330700Y107800D02*
D03*
X930700D02*
D03*
X730700D02*
D03*
X530700D02*
D03*
D50*
X1031400Y87800D02*
D03*
X900000D02*
D03*
X831400D02*
D03*
X700000D02*
D03*
X631400D02*
D03*
X500000D02*
D03*
X431400D02*
D03*
X300000D02*
D03*
D51*
X1369950Y111550D02*
D03*
Y188450D02*
D03*
D52*
X1423100Y105000D02*
D03*
Y195000D02*
D03*
D53*
X1397950Y107800D02*
D03*
Y192200D02*
D03*
D54*
X1385450Y114000D02*
D03*
Y186000D02*
D03*
D55*
X1077372Y70942D02*
D03*
X1351125Y22440D02*
D03*
X1343301D02*
D03*
X1335489Y22473D02*
D03*
X1352550Y69850D02*
D03*
X985716Y44974D02*
D03*
X1167609Y97128D02*
D03*
X1231010Y103057D02*
D03*
X1185766Y106988D02*
D03*
X1189293Y61088D02*
D03*
X1290049Y52453D02*
D03*
X1304804Y70208D02*
D03*
X1300179Y66519D02*
D03*
X1348206Y38332D02*
D03*
X1339850Y63500D02*
D03*
X1296514Y52124D02*
D03*
X1208210Y30607D02*
D03*
X1224768Y23292D02*
D03*
X1257516Y65123D02*
D03*
X1189126Y87221D02*
D03*
X1224729Y91029D02*
D03*
X1301129Y103182D02*
D03*
X1377589Y268150D02*
D03*
X1392589Y238150D02*
D03*
X1377589Y28150D02*
D03*
X1347590Y268150D02*
D03*
X1332590Y178150D02*
D03*
X1197589Y268150D02*
D03*
X1167589D02*
D03*
X1182589Y238150D02*
D03*
X1017590Y148150D02*
D03*
X987590Y88150D02*
D03*
X882590Y118150D02*
D03*
X837590Y148150D02*
D03*
X807590D02*
D03*
X822590Y118150D02*
D03*
X792590Y178150D02*
D03*
X777590Y88150D02*
D03*
X747590D02*
D03*
X732590Y178150D02*
D03*
X717590Y148150D02*
D03*
X687590D02*
D03*
X642590Y178150D02*
D03*
Y118150D02*
D03*
X597590Y208150D02*
D03*
X612590Y178150D02*
D03*
X597590Y88150D02*
D03*
X537590D02*
D03*
X522590Y178150D02*
D03*
X492590D02*
D03*
X477590Y148150D02*
D03*
X447590D02*
D03*
X432590Y178150D02*
D03*
Y118150D02*
D03*
X387590Y208150D02*
D03*
X402590Y178150D02*
D03*
X387590Y88150D02*
D03*
X357590Y148150D02*
D03*
X297590D02*
D03*
X282590Y118150D02*
D03*
X237590Y88150D02*
D03*
Y28150D02*
D03*
X162590Y118150D02*
D03*
X132590D02*
D03*
X87590Y268150D02*
D03*
Y88150D02*
D03*
X102590Y58150D02*
D03*
X87590Y28150D02*
D03*
X57590Y208150D02*
D03*
Y148150D02*
D03*
Y88150D02*
D03*
X72590Y58150D02*
D03*
X27590Y208150D02*
D03*
X42590Y178150D02*
D03*
X27590Y148150D02*
D03*
X42590Y118150D02*
D03*
X27590Y88150D02*
D03*
X259398Y227878D02*
D03*
X1241902Y135061D02*
D03*
X1400324Y228828D02*
D03*
X1365384Y143812D02*
D03*
X1365651Y151277D02*
D03*
X1241506Y36935D02*
D03*
X1280332Y96162D02*
D03*
X1246658Y61898D02*
D03*
X1224584Y48512D02*
D03*
X221942Y217406D02*
D03*
X1339839Y124581D02*
D03*
X965627Y173428D02*
D03*
X965711Y149504D02*
D03*
X265667Y120926D02*
D03*
X465987Y121019D02*
D03*
X865509Y113363D02*
D03*
X666461Y114008D02*
D03*
X765525Y171491D02*
D03*
X765714Y150795D02*
D03*
X565632Y185295D02*
D03*
X565917Y163104D02*
D03*
X365740Y185464D02*
D03*
X365580Y163569D02*
D03*
X1366160Y248005D02*
D03*
X203304Y183028D02*
D03*
X172419Y260763D02*
D03*
X196589Y262176D02*
D03*
X1232402Y183083D02*
D03*
X1270961Y277852D02*
D03*
X1270677Y232414D02*
D03*
Y238764D02*
D03*
Y226064D02*
D03*
X1330207Y150167D02*
D03*
X1351856Y150024D02*
D03*
X1270677Y219714D02*
D03*
Y213364D02*
D03*
X1256895Y277771D02*
D03*
X1228631Y252803D02*
D03*
X1228631Y267068D02*
D03*
X1247744Y100266D02*
D03*
X1329741Y65526D02*
D03*
X1380598Y61748D02*
D03*
X1266370Y84872D02*
D03*
X1257225Y94200D02*
D03*
X1251593Y85336D02*
D03*
X1245464Y80433D02*
D03*
X1266489Y63650D02*
D03*
X1238610Y113656D02*
D03*
X1205331Y103945D02*
D03*
X1229835Y61823D02*
D03*
X1215478Y81732D02*
D03*
X228934Y253047D02*
D03*
X214512Y253047D02*
D03*
X230162Y167458D02*
D03*
X218716Y65281D02*
D03*
Y85601D02*
D03*
X198396D02*
D03*
Y65281D02*
D03*
X218716Y44961D02*
D03*
Y24641D02*
D03*
X198396Y44961D02*
D03*
X178076Y24641D02*
D03*
X198396D02*
D03*
X178076Y85601D02*
D03*
X157756Y65281D02*
D03*
X178076D02*
D03*
X157756Y85601D02*
D03*
X137436D02*
D03*
Y65281D02*
D03*
X178076Y44961D02*
D03*
X157756Y24641D02*
D03*
Y44961D02*
D03*
X137436D02*
D03*
Y24641D02*
D03*
X1219341Y117505D02*
D03*
X300266Y233590D02*
D03*
X497613Y233816D02*
D03*
X216845Y273716D02*
D03*
X1242781Y165227D02*
D03*
X1247766Y170212D02*
D03*
X1272879Y193001D02*
D03*
X1264612Y161747D02*
D03*
X1259634Y156769D02*
D03*
X1119023Y28723D02*
D03*
X1110225Y36365D02*
D03*
X1118989Y20638D02*
D03*
X1395396Y72009D02*
D03*
X1287341Y117502D02*
D03*
X1291406Y113436D02*
D03*
X1327262Y233670D02*
D03*
X1327345Y240219D02*
D03*
X1220285Y224105D02*
D03*
Y217065D02*
D03*
X1226454Y207450D02*
D03*
Y199973D02*
D03*
X1246219Y251353D02*
D03*
X1313620Y249720D02*
D03*
X1250600Y215939D02*
D03*
X285750Y292100D02*
D03*
X279400D02*
D03*
X273050D02*
D03*
X266700D02*
D03*
X260350D02*
D03*
X254000D02*
D03*
X1246454Y267964D02*
D03*
X55594Y228937D02*
D03*
X1283916Y269016D02*
D03*
X674219Y228545D02*
D03*
X1046020Y152303D02*
D03*
X852740Y189983D02*
D03*
X647113Y221847D02*
D03*
X225149Y280292D02*
D03*
X217143Y280510D02*
D03*
X224593Y273537D02*
D03*
X444904Y219712D02*
D03*
X220980Y144780D02*
D03*
Y137160D02*
D03*
X213360D02*
D03*
X220980Y129540D02*
D03*
X213360D02*
D03*
X205740Y137160D02*
D03*
X198120D02*
D03*
X205740Y129540D02*
D03*
X198120D02*
D03*
X1202382Y124842D02*
D03*
X1284532Y137756D02*
D03*
X1289510Y132778D02*
D03*
X269024Y31814D02*
D03*
X243334Y257672D02*
D03*
X91440Y132080D02*
D03*
X101600D02*
D03*
X111760D02*
D03*
X91440Y142240D02*
D03*
X101600D02*
D03*
X111760D02*
D03*
X91440Y152400D02*
D03*
X101600D02*
D03*
X111760D02*
D03*
X91440Y162560D02*
D03*
X101600D02*
D03*
X111760D02*
D03*
X110423Y171402D02*
D03*
X101600Y172720D02*
D03*
X91440D02*
D03*
X1111331Y29227D02*
D03*
X1262093Y112974D02*
D03*
X1280479Y193001D02*
D03*
D58*
X985439Y43670D02*
Y45130D01*
X985710Y45402D01*
X985283Y35355D02*
Y43514D01*
X985439Y43670D01*
X959175Y9247D02*
X985283Y35355D01*
X1167504Y97233D02*
X1167609Y97128D01*
X1167714Y97233D01*
X1232066D01*
X1236304Y92995D01*
X1273292Y73854D02*
X1293970Y94533D01*
X1236304Y81357D02*
Y92995D01*
Y81357D02*
X1243806Y73854D01*
X1293970Y94533D02*
X1330002D01*
X1243806Y73854D02*
X1273292D01*
X1330002Y94533D02*
X1360448Y124980D01*
X959175Y9247D02*
X1377689D01*
X1391290Y132139D02*
Y137339D01*
X1360448Y124980D02*
X1384131D01*
X1391290Y132139D01*
Y137339D02*
X1391950Y138000D01*
X240136Y260869D02*
X243334Y257672D01*
X120283Y177121D02*
X204032Y260869D01*
X240136D01*
X120283Y21077D02*
Y177121D01*
X1395674Y65242D02*
X1396303Y64613D01*
Y59736D02*
Y64613D01*
X1395674Y65242D02*
Y71731D01*
X1395396Y72009D02*
X1395674Y71731D01*
X120283Y21077D02*
X132113Y9247D01*
X959175D01*
X1389832Y53265D02*
X1396303Y59736D01*
X1389832Y21390D02*
Y53265D01*
X1377689Y9247D02*
X1389832Y21390D01*
D59*
X1363772Y204420D02*
X1368663Y209311D01*
X1389084D02*
X1398264Y218491D01*
X1368663Y209311D02*
X1389084D01*
X1358773Y199421D02*
X1363772Y204420D01*
X1356372Y197020D02*
X1358773Y199421D01*
X1356372Y181880D02*
Y197020D01*
Y181880D02*
X1358773Y179479D01*
X1360035Y178217D01*
X1375826D01*
X1381931Y172112D01*
Y152088D02*
Y172112D01*
X1377419Y147576D02*
X1381931Y152088D01*
X1369148Y147576D02*
X1377419D01*
X1398264Y218491D02*
X1398429D01*
X1400324Y220386D02*
Y228828D01*
X1398429Y218491D02*
X1400324Y220386D01*
X1365384Y143812D02*
X1369148Y147576D01*
D64*
X1335489Y22473D02*
X1360718D01*
X1368166Y29922D01*
Y76294D02*
X1385225Y93353D01*
X1368166Y29922D02*
Y76294D01*
M02*
