G04*
G04 #@! TF.GenerationSoftware,Altium Limited,Altium Designer,25.8.1 (18)*
G04*
G04 Layer_Physical_Order=3*
G04 Layer_Color=36540*
%FSLAX44Y44*%
%MOMM*%
G71*
G04*
G04 #@! TF.SameCoordinates,C96D2FE9-1FD8-438A-A999-0EA797086850*
G04*
G04*
G04 #@! TF.FilePolarity,Positive*
G04*
G01*
G75*
%ADD45C,0.6500*%
%ADD46C,1.2080*%
%ADD47O,2.1000X1.0500*%
%ADD48O,1.7780X1.1430*%
%ADD49R,1.2080X1.2080*%
%ADD50C,3.3160*%
%ADD51O,0.8500X1.2000*%
%ADD52O,1.9500X0.9500*%
%ADD53O,1.6500X1.0500*%
%ADD54C,0.6800*%
%ADD55C,0.4500*%
%ADD57C,0.5080*%
%ADD58C,0.3048*%
%ADD59C,0.2032*%
%ADD61C,0.3810*%
%ADD66C,1.2700*%
G36*
X1435239Y297271D02*
X1438508Y295917D01*
X1441449Y293951D01*
X1443951Y291449D01*
X1445917Y288508D01*
X1447271Y285239D01*
X1447961Y281769D01*
Y280000D01*
Y20000D01*
Y18231D01*
X1447271Y14761D01*
X1445917Y11492D01*
X1443951Y8551D01*
X1441449Y6049D01*
X1438508Y4083D01*
X1435239Y2729D01*
X1431769Y2039D01*
X18231D01*
X14761Y2729D01*
X11492Y4083D01*
X8551Y6049D01*
X6049Y8551D01*
X4083Y11492D01*
X2729Y14761D01*
X2039Y18231D01*
Y20000D01*
Y280000D01*
Y281769D01*
X2729Y285239D01*
X4083Y288508D01*
X6049Y291449D01*
X8551Y293951D01*
X11492Y295917D01*
X14761Y297271D01*
X18231Y297961D01*
X1431769D01*
X1435239Y297271D01*
D02*
G37*
%LPC*%
G36*
X286703Y296890D02*
X284797D01*
X283037Y296161D01*
X282575Y295699D01*
X282113Y296161D01*
X280353Y296890D01*
X278447D01*
X276687Y296161D01*
X276225Y295699D01*
X275763Y296161D01*
X274003Y296890D01*
X272097D01*
X270337Y296161D01*
X269875Y295699D01*
X269413Y296161D01*
X267653Y296890D01*
X265747D01*
X263987Y296161D01*
X263525Y295699D01*
X263063Y296161D01*
X261303Y296890D01*
X259397D01*
X257637Y296161D01*
X257175Y295699D01*
X256713Y296161D01*
X254953Y296890D01*
X253047D01*
X251287Y296161D01*
X249939Y294813D01*
X249210Y293053D01*
Y291147D01*
X249939Y289387D01*
X251287Y288039D01*
X253047Y287310D01*
X254953D01*
X256713Y288039D01*
X257175Y288501D01*
X257637Y288039D01*
X259397Y287310D01*
X261303D01*
X263063Y288039D01*
X263525Y288501D01*
X263987Y288039D01*
X265747Y287310D01*
X267653D01*
X269413Y288039D01*
X269875Y288501D01*
X270337Y288039D01*
X272097Y287310D01*
X274003D01*
X275763Y288039D01*
X276225Y288501D01*
X276687Y288039D01*
X278447Y287310D01*
X280353D01*
X282113Y288039D01*
X282575Y288501D01*
X283037Y288039D01*
X284797Y287310D01*
X286703D01*
X288463Y288039D01*
X289811Y289387D01*
X290540Y291147D01*
Y293053D01*
X289811Y294813D01*
X288463Y296161D01*
X286703Y296890D01*
D02*
G37*
G36*
X1246303Y296694D02*
X1244321Y296299D01*
X1242641Y295177D01*
X1230822Y283358D01*
X1192048D01*
X1192048Y283358D01*
X1190066Y282964D01*
X1188386Y281841D01*
X1188386Y281841D01*
X1156917Y250372D01*
X1155795Y248692D01*
X1155400Y246710D01*
Y177330D01*
X1135553Y157483D01*
X1053251D01*
X1052360Y158644D01*
X1017894Y193110D01*
X1016037Y194535D01*
X1013875Y195431D01*
X1011554Y195736D01*
X859662D01*
X859100Y196298D01*
X859081Y196324D01*
X820519Y234886D01*
X818662Y236311D01*
X816499Y237206D01*
X814178Y237512D01*
X674219D01*
X671898Y237206D01*
X669735Y236311D01*
X667878Y234886D01*
X663806Y230813D01*
X650827D01*
X641485Y240156D01*
X639628Y241581D01*
X637465Y242477D01*
X635144Y242782D01*
X500462D01*
X499039Y243372D01*
X496718Y243677D01*
X301387D01*
X299823Y243472D01*
X299279Y243543D01*
X245185D01*
Y253253D01*
X246047Y253611D01*
X247395Y254958D01*
X248124Y256719D01*
Y258624D01*
X247395Y260385D01*
X246047Y261732D01*
X245185Y262090D01*
Y271079D01*
X244889Y272565D01*
X244817Y272673D01*
X244652Y273504D01*
X243810Y274764D01*
X231347Y287227D01*
X230087Y288069D01*
X228600Y288365D01*
X213360D01*
X212736Y288241D01*
X212106Y288157D01*
X211997Y288094D01*
X211873Y288069D01*
X211345Y287716D01*
X210795Y287397D01*
X196563Y274882D01*
X196557Y274875D01*
X196549Y274870D01*
X196152Y274346D01*
X195373Y273825D01*
X194531Y272565D01*
X194235Y271079D01*
Y266727D01*
X194531Y265240D01*
X195373Y263980D01*
X196633Y263138D01*
X197102Y262944D01*
X197357Y262689D01*
X197495Y262356D01*
Y261996D01*
X197357Y261663D01*
X197102Y261409D01*
X196633Y261215D01*
X195373Y260373D01*
X194531Y259112D01*
X194235Y257626D01*
Y249034D01*
X71242D01*
X71242Y249034D01*
X69508Y248689D01*
X68038Y247706D01*
X53647Y233315D01*
X52881Y232998D01*
X51534Y231651D01*
X50804Y229890D01*
Y227985D01*
X51534Y226224D01*
X52881Y224877D01*
X54641Y224147D01*
X56547D01*
X58308Y224877D01*
X59655Y226224D01*
X59854Y226704D01*
X73119Y239969D01*
X194235D01*
Y185684D01*
X194310Y185309D01*
Y184926D01*
X194456Y184573D01*
X194531Y184198D01*
X194744Y183879D01*
X194890Y183526D01*
X195161Y183255D01*
X195312Y183028D01*
X195161Y182801D01*
X194890Y182530D01*
X194744Y182177D01*
X194531Y181859D01*
X194456Y181483D01*
X194310Y181130D01*
Y180747D01*
X194235Y180372D01*
Y154009D01*
X187753Y147527D01*
X186911Y146267D01*
X186615Y144780D01*
Y129540D01*
X186911Y128053D01*
X187753Y126793D01*
X195373Y119173D01*
X196633Y118331D01*
X198120Y118035D01*
X220980D01*
X222467Y118331D01*
X223727Y119173D01*
X231347Y126793D01*
X232189Y128053D01*
X232485Y129540D01*
Y144780D01*
X232430Y145054D01*
X232456Y145131D01*
X232438Y145370D01*
X232485Y145605D01*
Y162921D01*
X232189Y164407D01*
X231347Y165668D01*
X230087Y166510D01*
X229650Y166691D01*
X229395Y166945D01*
X229257Y167278D01*
Y167638D01*
X229395Y167971D01*
X229650Y168226D01*
X230087Y168407D01*
X231347Y169249D01*
X232189Y170509D01*
X232485Y171996D01*
Y205531D01*
X244047Y217093D01*
X244889Y218353D01*
X245185Y219840D01*
Y225610D01*
X250730D01*
X250737Y225557D01*
X251633Y223395D01*
X253058Y221538D01*
X254915Y220113D01*
X257078Y219217D01*
X259398Y218911D01*
X261719Y219217D01*
X263882Y220113D01*
X265739Y221538D01*
X269811Y225610D01*
X296300D01*
X297945Y224929D01*
X300266Y224623D01*
X302586Y224929D01*
X304555Y225744D01*
X437178D01*
X437628Y224833D01*
X437139Y224196D01*
X436243Y222033D01*
X435937Y219712D01*
X436243Y217391D01*
X437139Y215229D01*
X438564Y213372D01*
X440421Y211947D01*
X442583Y211051D01*
X444904Y210746D01*
X447225Y211051D01*
X449388Y211947D01*
X451245Y213372D01*
X463617Y225744D01*
X493869D01*
X495293Y225154D01*
X497613Y224849D01*
X631430D01*
X640773Y215506D01*
X642630Y214081D01*
X644792Y213186D01*
X647113Y212880D01*
X647113Y212880D01*
X667520D01*
X669841Y213186D01*
X672004Y214081D01*
X673861Y215506D01*
X677933Y219578D01*
X810464D01*
X846380Y183662D01*
X846400Y183637D01*
X849607Y180429D01*
X851465Y179004D01*
X853627Y178109D01*
X855948Y177803D01*
X855948Y177803D01*
X1007840D01*
X1039680Y145963D01*
X1041537Y144538D01*
X1043699Y143642D01*
X1046020Y143337D01*
X1048341Y143642D01*
X1050503Y144538D01*
X1052360Y145963D01*
X1053251Y147124D01*
X1137699D01*
X1139681Y147518D01*
X1141361Y148641D01*
X1164242Y171522D01*
X1165365Y173202D01*
X1165759Y175184D01*
Y244564D01*
X1194194Y272999D01*
X1232967D01*
X1234949Y273393D01*
X1236630Y274516D01*
X1248449Y286335D01*
X1274674D01*
X1280528Y280480D01*
Y272953D01*
X1280253Y272679D01*
X1279131Y270998D01*
X1278736Y269016D01*
X1279131Y267034D01*
X1280253Y265354D01*
X1281934Y264231D01*
X1283916Y263837D01*
X1285898Y264231D01*
X1287578Y265354D01*
X1289370Y267146D01*
X1290493Y268826D01*
X1290887Y270808D01*
X1290887Y270808D01*
Y282626D01*
X1290493Y284608D01*
X1289370Y286288D01*
X1280482Y295177D01*
X1278801Y296299D01*
X1276819Y296694D01*
X1246303D01*
X1246303Y296694D01*
D02*
G37*
G36*
X1247407Y272754D02*
X1245501D01*
X1243741Y272024D01*
X1242393Y270677D01*
X1241664Y268916D01*
Y267011D01*
X1242393Y265250D01*
X1243741Y263903D01*
X1245501Y263174D01*
X1247407D01*
X1249167Y263903D01*
X1250515Y265250D01*
X1251244Y267011D01*
Y268916D01*
X1250515Y270677D01*
X1249167Y272024D01*
X1247407Y272754D01*
D02*
G37*
G36*
X31777Y283500D02*
X28223D01*
X24789Y282580D01*
X21711Y280803D01*
X19197Y278289D01*
X17420Y275211D01*
X16500Y271777D01*
Y268223D01*
X17420Y264789D01*
X19197Y261711D01*
X21711Y259197D01*
X24789Y257420D01*
X28223Y256500D01*
X31777D01*
X35211Y257420D01*
X38289Y259197D01*
X40803Y261711D01*
X42580Y264789D01*
X43500Y268223D01*
Y271777D01*
X42580Y275211D01*
X40803Y278289D01*
X38289Y280803D01*
X35211Y282580D01*
X31777Y283500D01*
D02*
G37*
G36*
X1421777Y283500D02*
X1418223D01*
X1414789Y282580D01*
X1411711Y280803D01*
X1409197Y278289D01*
X1407420Y275211D01*
X1406500Y271777D01*
Y268223D01*
X1407420Y264789D01*
X1409197Y261711D01*
X1411711Y259197D01*
X1414789Y257420D01*
X1418223Y256500D01*
X1421777D01*
X1425211Y257420D01*
X1428289Y259197D01*
X1430803Y261711D01*
X1432580Y264789D01*
X1433500Y268223D01*
Y271777D01*
X1432580Y275211D01*
X1430803Y278289D01*
X1428289Y280803D01*
X1425211Y282580D01*
X1421777Y283500D01*
D02*
G37*
G36*
X1247172Y256143D02*
X1245266D01*
X1243506Y255414D01*
X1242158Y254067D01*
X1241429Y252306D01*
Y250401D01*
X1242158Y248640D01*
X1243506Y247292D01*
X1245266Y246563D01*
X1247172D01*
X1248932Y247292D01*
X1250280Y248640D01*
X1251009Y250401D01*
Y252306D01*
X1250280Y254067D01*
X1248932Y255414D01*
X1247172Y256143D01*
D02*
G37*
G36*
X1314573Y254510D02*
X1312668D01*
X1310907Y253781D01*
X1309560Y252434D01*
X1308831Y250673D01*
Y248768D01*
X1309560Y247007D01*
X1310907Y245660D01*
X1312668Y244930D01*
X1314573D01*
X1316334Y245660D01*
X1317681Y247007D01*
X1318410Y248768D01*
Y250673D01*
X1317681Y252434D01*
X1316334Y253781D01*
X1314573Y254510D01*
D02*
G37*
G36*
X1328477Y248819D02*
X1326212D01*
X1324025Y248233D01*
X1322064Y247101D01*
X1320463Y245500D01*
X1319331Y243539D01*
X1318745Y241351D01*
Y239087D01*
X1319288Y237059D01*
X1319248Y236989D01*
X1318662Y234802D01*
Y232537D01*
X1319248Y230350D01*
X1320380Y228389D01*
X1321981Y226788D01*
X1323942Y225656D01*
X1326129Y225070D01*
X1328394D01*
X1330581Y225656D01*
X1332542Y226788D01*
X1334143Y228389D01*
X1335276Y230350D01*
X1335862Y232537D01*
Y234802D01*
X1335318Y236830D01*
X1335358Y236900D01*
X1335945Y239087D01*
Y241351D01*
X1335358Y243539D01*
X1334226Y245500D01*
X1332625Y247101D01*
X1330664Y248233D01*
X1328477Y248819D01*
D02*
G37*
G36*
X1401277Y233618D02*
X1399371D01*
X1397611Y232888D01*
X1396263Y231541D01*
X1395534Y229780D01*
Y227875D01*
X1396263Y226114D01*
X1397611Y224767D01*
X1399371Y224038D01*
X1401277D01*
X1403038Y224767D01*
X1404385Y226114D01*
X1405114Y227875D01*
Y229780D01*
X1404385Y231541D01*
X1403038Y232888D01*
X1401277Y233618D01*
D02*
G37*
G36*
X1228346Y236380D02*
X1228346Y236380D01*
X1204155D01*
X1202767Y236104D01*
X1201591Y235318D01*
X1201591Y235318D01*
X1180405Y214132D01*
X1179619Y212956D01*
X1179343Y211569D01*
X1179343Y211569D01*
Y178372D01*
X1179343Y178372D01*
X1179619Y176984D01*
X1180405Y175808D01*
X1204857Y151356D01*
X1206033Y150570D01*
X1207421Y150294D01*
X1207421Y150294D01*
X1233404D01*
X1242831Y140867D01*
X1242411Y139851D01*
X1240949D01*
X1239189Y139122D01*
X1237841Y137774D01*
X1237112Y136014D01*
Y134108D01*
X1237841Y132348D01*
X1239189Y131000D01*
X1240949Y130271D01*
X1242855D01*
X1244615Y131000D01*
X1245963Y132348D01*
X1246692Y134108D01*
Y135570D01*
X1247708Y135990D01*
X1281903Y101795D01*
X1281328Y100934D01*
X1281285Y100952D01*
X1279380D01*
X1277619Y100222D01*
X1276272Y98875D01*
X1275543Y97114D01*
Y95209D01*
X1276272Y93448D01*
X1277619Y92101D01*
X1279380Y91372D01*
X1281285D01*
X1283046Y92101D01*
X1284393Y93448D01*
X1285122Y95209D01*
Y97114D01*
X1285105Y97157D01*
X1285966Y97732D01*
X1296310Y87388D01*
X1296310Y87388D01*
X1297486Y86602D01*
X1298874Y86326D01*
X1298874Y86326D01*
X1308345D01*
X1318085Y76585D01*
X1318085Y76585D01*
X1320481Y74190D01*
Y62431D01*
X1320481Y62431D01*
X1320757Y61043D01*
X1321543Y59867D01*
X1343416Y37994D01*
Y37379D01*
X1344145Y35618D01*
X1345493Y34271D01*
X1347253Y33542D01*
X1349159D01*
X1350919Y34271D01*
X1352267Y35618D01*
X1352996Y37379D01*
Y39284D01*
X1352267Y41045D01*
X1350919Y42392D01*
X1349159Y43122D01*
X1348543D01*
X1327732Y63933D01*
Y75692D01*
X1327732Y75692D01*
X1327456Y77079D01*
X1326670Y78256D01*
X1326670Y78256D01*
X1323213Y81713D01*
X1323213Y81713D01*
X1312410Y92516D01*
X1311234Y93302D01*
X1309846Y93578D01*
X1309846Y93578D01*
X1300376D01*
X1290033Y103920D01*
X1290554Y104837D01*
X1292539D01*
X1294726Y105422D01*
X1296101Y106216D01*
X1296908Y105509D01*
X1296339Y104135D01*
Y102229D01*
X1297068Y100469D01*
X1298415Y99122D01*
X1300176Y98392D01*
X1302081D01*
X1303842Y99122D01*
X1305189Y100469D01*
X1305918Y102229D01*
Y104135D01*
X1305189Y105896D01*
X1303842Y107243D01*
X1302081Y107972D01*
X1300176D01*
X1299032Y107498D01*
X1298707Y107785D01*
X1298390Y108332D01*
X1299420Y110117D01*
X1300006Y112304D01*
Y114569D01*
X1299420Y116756D01*
X1298288Y118717D01*
X1296687Y120318D01*
X1295124Y121220D01*
X1294222Y122783D01*
X1293166Y123839D01*
X1293150Y123882D01*
X1293367Y125075D01*
X1294790Y125896D01*
X1296391Y127498D01*
X1297524Y129459D01*
X1298110Y131646D01*
Y133910D01*
X1297524Y136098D01*
X1296391Y138059D01*
X1294790Y139660D01*
X1292829Y140792D01*
X1292605Y140852D01*
X1292545Y141076D01*
X1291413Y143037D01*
X1289812Y144638D01*
X1287851Y145770D01*
X1285664Y146356D01*
X1283399D01*
X1281212Y145770D01*
X1279251Y144638D01*
X1277650Y143037D01*
X1276518Y141076D01*
X1275932Y138888D01*
Y136624D01*
X1276518Y134437D01*
X1277650Y132476D01*
X1279251Y130875D01*
X1281212Y129742D01*
X1281436Y129682D01*
X1281496Y129459D01*
X1282628Y127498D01*
X1283685Y126441D01*
X1283700Y126398D01*
X1283483Y125206D01*
X1282060Y124384D01*
X1280459Y122783D01*
X1279327Y120822D01*
X1278741Y118635D01*
Y116650D01*
X1277824Y116129D01*
X1237470Y156483D01*
X1236294Y157269D01*
X1234906Y157545D01*
X1234906Y157545D01*
X1208922D01*
X1186594Y179873D01*
Y210067D01*
X1205656Y229129D01*
X1212239D01*
X1212747Y228249D01*
X1212271Y227425D01*
X1211685Y225237D01*
Y222973D01*
X1212271Y220786D01*
X1212387Y220585D01*
X1212271Y220385D01*
X1211685Y218197D01*
Y215933D01*
X1212271Y213746D01*
X1213404Y211785D01*
X1215005Y210184D01*
X1216966Y209051D01*
X1217912Y208798D01*
X1217854Y208582D01*
Y206318D01*
X1218440Y204131D01*
X1218682Y203711D01*
X1218440Y203292D01*
X1217854Y201105D01*
Y198841D01*
X1218440Y196653D01*
X1219572Y194692D01*
X1221173Y193091D01*
X1223134Y191959D01*
X1225322Y191373D01*
X1227586D01*
X1229773Y191959D01*
X1231734Y193091D01*
X1233335Y194692D01*
X1234468Y196653D01*
X1235054Y198841D01*
Y201105D01*
X1234468Y203292D01*
X1234226Y203711D01*
X1234468Y204131D01*
X1235054Y206318D01*
Y208582D01*
X1234468Y210770D01*
X1233335Y212731D01*
X1231734Y214332D01*
X1229773Y215464D01*
X1228828Y215718D01*
X1228885Y215933D01*
Y218197D01*
X1228299Y220385D01*
X1228184Y220585D01*
X1228299Y220786D01*
X1228885Y222973D01*
Y225237D01*
X1228734Y225802D01*
X1229645Y226328D01*
X1242598Y213376D01*
X1242598Y213376D01*
X1243774Y212590D01*
X1245161Y212314D01*
X1245162Y212314D01*
X1247451D01*
X1247886Y211879D01*
X1249647Y211149D01*
X1251553D01*
X1253313Y211879D01*
X1254660Y213226D01*
X1255390Y214987D01*
Y216892D01*
X1254660Y218653D01*
X1253313Y220000D01*
X1251553Y220729D01*
X1249647D01*
X1247886Y220000D01*
X1247612Y219726D01*
X1246502D01*
X1230910Y235318D01*
X1229734Y236104D01*
X1228346Y236380D01*
D02*
G37*
G36*
X1281611Y201601D02*
X1279347D01*
X1277160Y201015D01*
X1276679Y200737D01*
X1276199Y201015D01*
X1274011Y201601D01*
X1271747D01*
X1269560Y201015D01*
X1267599Y199883D01*
X1265997Y198281D01*
X1264865Y196320D01*
X1264279Y194133D01*
Y191869D01*
X1264865Y189681D01*
X1265997Y187720D01*
X1267599Y186119D01*
X1269560Y184987D01*
X1271747Y184401D01*
X1274011D01*
X1276199Y184987D01*
X1276679Y185264D01*
X1277160Y184987D01*
X1279347Y184401D01*
X1281611D01*
X1283798Y184987D01*
X1285759Y186119D01*
X1287361Y187720D01*
X1288493Y189681D01*
X1289079Y191869D01*
Y194133D01*
X1288493Y196320D01*
X1287361Y198281D01*
X1285759Y199883D01*
X1283798Y201015D01*
X1281611Y201601D01*
D02*
G37*
G36*
X73050Y201057D02*
X69070D01*
Y194470D01*
X80740D01*
X80639Y195234D01*
X79854Y197129D01*
X78606Y198756D01*
X76979Y200005D01*
X75084Y200790D01*
X73050Y201057D01*
D02*
G37*
G36*
X66530D02*
X62550D01*
X60516Y200790D01*
X58621Y200005D01*
X56994Y198756D01*
X55746Y197129D01*
X54960Y195234D01*
X54860Y194470D01*
X66530D01*
Y201057D01*
D02*
G37*
G36*
X29175Y201526D02*
X27270D01*
Y194470D01*
X37334D01*
X37218Y195355D01*
X36386Y197363D01*
X35062Y199088D01*
X33338Y200411D01*
X31330Y201243D01*
X29175Y201526D01*
D02*
G37*
G36*
X24730D02*
X22825D01*
X20670Y201243D01*
X18662Y200411D01*
X16938Y199088D01*
X15614Y197363D01*
X14783Y195355D01*
X14666Y194470D01*
X24730D01*
Y201526D01*
D02*
G37*
G36*
X1428100Y202353D02*
X1418100D01*
X1416197Y202102D01*
X1414424Y201368D01*
X1412901Y200199D01*
X1411732Y198676D01*
X1410998Y196903D01*
X1410747Y195000D01*
X1410998Y193097D01*
X1411732Y191324D01*
X1412901Y189801D01*
X1414424Y188632D01*
X1416197Y187898D01*
X1418100Y187647D01*
X1428100D01*
X1430003Y187898D01*
X1431776Y188632D01*
X1433299Y189801D01*
X1434468Y191324D01*
X1435202Y193097D01*
X1435453Y195000D01*
X1435202Y196903D01*
X1434468Y198676D01*
X1433299Y200199D01*
X1431776Y201368D01*
X1430003Y202102D01*
X1428100Y202353D01*
D02*
G37*
G36*
X80740Y191930D02*
X69070D01*
Y185343D01*
X73050D01*
X75084Y185611D01*
X76979Y186395D01*
X78606Y187644D01*
X79854Y189271D01*
X80639Y191166D01*
X80740Y191930D01*
D02*
G37*
G36*
X66530D02*
X54860D01*
X54960Y191166D01*
X55746Y189271D01*
X56994Y187644D01*
X58621Y186395D01*
X60516Y185611D01*
X62550Y185343D01*
X66530D01*
Y191930D01*
D02*
G37*
G36*
X37334D02*
X27270D01*
Y184874D01*
X29175D01*
X31330Y185158D01*
X33338Y185989D01*
X35062Y187313D01*
X36386Y189037D01*
X37218Y191045D01*
X37334Y191930D01*
D02*
G37*
G36*
X24730D02*
X14666D01*
X14783Y191045D01*
X15614Y189037D01*
X16938Y187313D01*
X18662Y185989D01*
X20670Y185158D01*
X22825Y184874D01*
X24730D01*
Y191930D01*
D02*
G37*
G36*
X1369950Y197049D02*
X1368177Y196815D01*
X1366526Y196131D01*
X1365107Y195043D01*
X1364019Y193624D01*
X1363335Y191973D01*
X1363101Y190200D01*
Y186700D01*
X1363335Y184928D01*
X1364019Y183276D01*
X1365107Y181857D01*
X1366526Y180769D01*
X1368177Y180085D01*
X1369950Y179851D01*
X1371723Y180085D01*
X1373374Y180769D01*
X1374793Y181857D01*
X1375881Y183276D01*
X1376565Y184928D01*
X1376799Y186700D01*
Y190200D01*
X1376565Y191973D01*
X1375881Y193624D01*
X1374793Y195043D01*
X1373374Y196131D01*
X1371723Y196815D01*
X1369950Y197049D01*
D02*
G37*
G36*
X102553Y177510D02*
X100647D01*
X98887Y176781D01*
X97539Y175433D01*
X97070Y174300D01*
X95970D01*
X95501Y175433D01*
X94153Y176781D01*
X92393Y177510D01*
X90487D01*
X88727Y176781D01*
X87379Y175433D01*
X86650Y173673D01*
Y171767D01*
X87379Y170007D01*
X88727Y168659D01*
X89860Y168190D01*
Y167090D01*
X88727Y166621D01*
X87379Y165273D01*
X86650Y163513D01*
Y161607D01*
X87379Y159847D01*
X88727Y158499D01*
X89860Y158030D01*
Y156930D01*
X88727Y156461D01*
X87379Y155113D01*
X86650Y153353D01*
Y151447D01*
X87379Y149687D01*
X88727Y148339D01*
X89860Y147870D01*
Y146770D01*
X88727Y146301D01*
X87379Y144953D01*
X86650Y143193D01*
Y141287D01*
X87379Y139527D01*
X88727Y138179D01*
X89860Y137710D01*
Y136610D01*
X88727Y136141D01*
X87379Y134793D01*
X86650Y133033D01*
Y131127D01*
X87379Y129367D01*
X88727Y128019D01*
X90487Y127290D01*
X92393D01*
X94153Y128019D01*
X95501Y129367D01*
X95970Y130500D01*
X97070D01*
X97539Y129367D01*
X98887Y128019D01*
X100647Y127290D01*
X102553D01*
X104313Y128019D01*
X105661Y129367D01*
X106130Y130500D01*
X107230D01*
X107699Y129367D01*
X109047Y128019D01*
X110807Y127290D01*
X112713D01*
X114473Y128019D01*
X115821Y129367D01*
X116550Y131127D01*
Y133033D01*
X115821Y134793D01*
X114473Y136141D01*
X113340Y136610D01*
Y137710D01*
X114473Y138179D01*
X115821Y139527D01*
X116550Y141287D01*
Y143193D01*
X115821Y144953D01*
X114473Y146301D01*
X113340Y146770D01*
Y147870D01*
X114473Y148339D01*
X115821Y149687D01*
X116550Y151447D01*
Y153353D01*
X115821Y155113D01*
X114473Y156461D01*
X113340Y156930D01*
Y158030D01*
X114473Y158499D01*
X115821Y159847D01*
X116550Y161607D01*
Y163513D01*
X115821Y165273D01*
X114473Y166621D01*
X114035Y166803D01*
X113796Y168001D01*
X114484Y168689D01*
X115213Y170449D01*
Y172355D01*
X114484Y174116D01*
X113137Y175463D01*
X111376Y176192D01*
X109471D01*
X107710Y175463D01*
X107030Y174783D01*
X105831Y175021D01*
X105661Y175433D01*
X104313Y176781D01*
X102553Y177510D01*
D02*
G37*
G36*
X63745Y183650D02*
X61855D01*
X60109Y182927D01*
X58773Y181591D01*
X58050Y179845D01*
Y177955D01*
X58773Y176209D01*
X60109Y174873D01*
X61855Y174150D01*
X63745D01*
X65491Y174873D01*
X66827Y176209D01*
X67550Y177955D01*
Y179845D01*
X66827Y181591D01*
X65491Y182927D01*
X63745Y183650D01*
D02*
G37*
G36*
X1248718Y175002D02*
X1246813D01*
X1245052Y174272D01*
X1243705Y172925D01*
X1242975Y171164D01*
Y170017D01*
X1241828D01*
X1240067Y169288D01*
X1238720Y167940D01*
X1237991Y166180D01*
Y164274D01*
X1238720Y162514D01*
X1240067Y161166D01*
X1241828Y160437D01*
X1243734D01*
X1245494Y161166D01*
X1246842Y162514D01*
X1247571Y164274D01*
Y165422D01*
X1248718D01*
X1250479Y166151D01*
X1251826Y167498D01*
X1252555Y169259D01*
Y171164D01*
X1251826Y172925D01*
X1250479Y174272D01*
X1248718Y175002D01*
D02*
G37*
G36*
X1265744Y170347D02*
X1263480D01*
X1261293Y169761D01*
X1259332Y168629D01*
X1257730Y167028D01*
X1256598Y165067D01*
X1256538Y164843D01*
X1256315Y164783D01*
X1254353Y163651D01*
X1252752Y162050D01*
X1251620Y160089D01*
X1251034Y157901D01*
Y155637D01*
X1251620Y153450D01*
X1252752Y151489D01*
X1254353Y149887D01*
X1256315Y148755D01*
X1258502Y148169D01*
X1260766D01*
X1262953Y148755D01*
X1264914Y149887D01*
X1266516Y151489D01*
X1267648Y153450D01*
X1267708Y153673D01*
X1267932Y153733D01*
X1269893Y154865D01*
X1271494Y156467D01*
X1272626Y158428D01*
X1273212Y160615D01*
Y162879D01*
X1272626Y165067D01*
X1271494Y167028D01*
X1269893Y168629D01*
X1267932Y169761D01*
X1265744Y170347D01*
D02*
G37*
G36*
X1366784Y159877D02*
X1364519D01*
X1362332Y159291D01*
X1360371Y158158D01*
X1358770Y156557D01*
X1357637Y154596D01*
X1357052Y152409D01*
Y150145D01*
X1357637Y147957D01*
X1358770Y145996D01*
X1360371Y144395D01*
X1360594Y144266D01*
Y142859D01*
X1361323Y141098D01*
X1362670Y139751D01*
X1364431Y139022D01*
X1366337D01*
X1368097Y139751D01*
X1369445Y141098D01*
X1370174Y142859D01*
Y143957D01*
X1370932Y144395D01*
X1372533Y145996D01*
X1373665Y147957D01*
X1374251Y150145D01*
Y152409D01*
X1373665Y154596D01*
X1372533Y156557D01*
X1370932Y158158D01*
X1368971Y159291D01*
X1366784Y159877D01*
D02*
G37*
G36*
X1007331Y135190D02*
X1004069D01*
X1000918Y134346D01*
X998092Y132714D01*
X996381Y131003D01*
X995700Y130474D01*
X995019Y131003D01*
X993308Y132714D01*
X990482Y134346D01*
X987331Y135190D01*
X984069D01*
X980918Y134346D01*
X978092Y132714D01*
X975786Y130408D01*
X974154Y127582D01*
X974112Y127423D01*
X973021Y127279D01*
X972566Y128068D01*
X970968Y129666D01*
X969012Y130795D01*
X966970Y131342D01*
Y122800D01*
X964430D01*
Y131342D01*
X962388Y130795D01*
X960432Y129666D01*
X958834Y128068D01*
X958379Y127279D01*
X957288Y127423D01*
X957246Y127582D01*
X955614Y130408D01*
X953308Y132714D01*
X950482Y134346D01*
X947331Y135190D01*
X944069D01*
X940918Y134346D01*
X938092Y132714D01*
X936381Y131003D01*
X935700Y130474D01*
X935019Y131003D01*
X933308Y132714D01*
X930482Y134346D01*
X927331Y135190D01*
X924069D01*
X920918Y134346D01*
X918092Y132714D01*
X915786Y130408D01*
X914154Y127582D01*
X913310Y124431D01*
Y121169D01*
X914154Y118018D01*
X915786Y115192D01*
X918092Y112886D01*
X920918Y111254D01*
X922120Y110932D01*
Y106554D01*
X921181Y106166D01*
X914902Y112444D01*
X913642Y113286D01*
X912156Y113582D01*
X884698Y113582D01*
X868617D01*
X867131Y113286D01*
X866219Y112677D01*
X865689Y112458D01*
X865329D01*
X864799Y112677D01*
X863887Y113286D01*
X862400Y113582D01*
X816843D01*
X815357Y113286D01*
X814720Y112861D01*
X814072Y113650D01*
X815614Y115192D01*
X817246Y118018D01*
X818090Y121169D01*
Y124431D01*
X817246Y127582D01*
X815614Y130408D01*
X813308Y132714D01*
X810482Y134346D01*
X807331Y135190D01*
X804069D01*
X800918Y134346D01*
X798092Y132714D01*
X796381Y131003D01*
X795700Y130474D01*
X795019Y131003D01*
X793308Y132714D01*
X790482Y134346D01*
X787331Y135190D01*
X784069D01*
X780918Y134346D01*
X778092Y132714D01*
X775786Y130408D01*
X774154Y127582D01*
X774112Y127423D01*
X773021Y127279D01*
X772566Y128068D01*
X770968Y129666D01*
X769012Y130795D01*
X766970Y131342D01*
Y122800D01*
X764430D01*
Y131342D01*
X762388Y130795D01*
X760432Y129666D01*
X758834Y128068D01*
X758379Y127279D01*
X757288Y127423D01*
X757246Y127582D01*
X755614Y130408D01*
X753308Y132714D01*
X750482Y134346D01*
X747331Y135190D01*
X744069D01*
X740918Y134346D01*
X738092Y132714D01*
X736381Y131003D01*
X735700Y130474D01*
X735019Y131003D01*
X733308Y132714D01*
X730482Y134346D01*
X727331Y135190D01*
X724069D01*
X720918Y134346D01*
X718092Y132714D01*
X715786Y130408D01*
X714154Y127582D01*
X713310Y124431D01*
Y121169D01*
X714154Y118018D01*
X715786Y115192D01*
X718092Y112886D01*
X720918Y111254D01*
X722120Y110932D01*
Y105865D01*
X721181Y105477D01*
X714214Y112444D01*
X712953Y113286D01*
X711467Y113582D01*
X668571D01*
X667084Y113286D01*
X666641Y113103D01*
X666281D01*
X665837Y113286D01*
X664350Y113582D01*
X642702D01*
X618392Y113582D01*
X616906Y113286D01*
X615645Y112444D01*
X610296Y107095D01*
X609280Y107516D01*
Y108930D01*
X608779Y110798D01*
X610482Y111254D01*
X613308Y112886D01*
X615614Y115192D01*
X617246Y118018D01*
X618090Y121169D01*
Y124431D01*
X617246Y127582D01*
X615614Y130408D01*
X613308Y132714D01*
X610482Y134346D01*
X607331Y135190D01*
X604069D01*
X600918Y134346D01*
X598092Y132714D01*
X596381Y131003D01*
X595700Y130474D01*
X595019Y131003D01*
X593308Y132714D01*
X590482Y134346D01*
X587331Y135190D01*
X584069D01*
X580918Y134346D01*
X578092Y132714D01*
X575785Y130408D01*
X574154Y127582D01*
X574112Y127423D01*
X573021Y127279D01*
X572566Y128068D01*
X570968Y129666D01*
X569012Y130795D01*
X566970Y131342D01*
Y122800D01*
X564430D01*
Y131342D01*
X562388Y130795D01*
X560432Y129666D01*
X558834Y128068D01*
X558379Y127279D01*
X557288Y127423D01*
X557246Y127582D01*
X555614Y130408D01*
X553308Y132714D01*
X550482Y134346D01*
X547331Y135190D01*
X544069D01*
X540918Y134346D01*
X538092Y132714D01*
X536381Y131003D01*
X535700Y130474D01*
X535019Y131003D01*
X533308Y132714D01*
X530482Y134346D01*
X527331Y135190D01*
X524069D01*
X520918Y134346D01*
X518092Y132714D01*
X515785Y130408D01*
X514154Y127582D01*
X513310Y124431D01*
Y121169D01*
X514154Y118018D01*
X515785Y115192D01*
X518092Y112886D01*
X520918Y111254D01*
X522120Y110932D01*
Y106330D01*
X521181Y105941D01*
X514678Y112445D01*
X513418Y113287D01*
X511931Y113582D01*
X468202Y113582D01*
X442196D01*
X417696Y113582D01*
X416210Y113286D01*
X414949Y112444D01*
X410219Y107713D01*
X409280Y108102D01*
Y108930D01*
X408779Y110798D01*
X410482Y111254D01*
X413308Y112886D01*
X415614Y115192D01*
X417246Y118018D01*
X418090Y121169D01*
Y124431D01*
X417246Y127582D01*
X415614Y130408D01*
X413308Y132714D01*
X410482Y134346D01*
X407331Y135190D01*
X404069D01*
X400918Y134346D01*
X398092Y132714D01*
X396381Y131003D01*
X395700Y130474D01*
X395019Y131003D01*
X393308Y132714D01*
X390482Y134346D01*
X387331Y135190D01*
X384069D01*
X380918Y134346D01*
X378092Y132714D01*
X375785Y130408D01*
X374154Y127582D01*
X374112Y127423D01*
X373021Y127279D01*
X372566Y128068D01*
X370968Y129666D01*
X369012Y130795D01*
X366970Y131342D01*
Y122800D01*
X364430D01*
Y131342D01*
X362388Y130795D01*
X360432Y129666D01*
X358834Y128068D01*
X358379Y127279D01*
X357288Y127423D01*
X357246Y127582D01*
X355614Y130408D01*
X353308Y132714D01*
X350482Y134346D01*
X347331Y135190D01*
X344069D01*
X340918Y134346D01*
X338092Y132714D01*
X336381Y131003D01*
X335700Y130474D01*
X335019Y131003D01*
X333308Y132714D01*
X330482Y134346D01*
X327331Y135190D01*
X324069D01*
X320918Y134346D01*
X318092Y132714D01*
X315786Y130408D01*
X314154Y127582D01*
X313310Y124431D01*
Y121169D01*
X314154Y118018D01*
X315786Y115192D01*
X318092Y112886D01*
X320918Y111254D01*
X322120Y110932D01*
Y106341D01*
X321181Y105953D01*
X314690Y112444D01*
X313429Y113287D01*
X311943Y113582D01*
X288480Y113582D01*
X286994Y113286D01*
X285734Y112444D01*
X274634Y101345D01*
X273792Y100085D01*
X273496Y98598D01*
X273497Y53116D01*
X273792Y51630D01*
X274634Y50370D01*
X287719Y37285D01*
X287330Y36346D01*
X270599D01*
X269977Y36604D01*
X268071D01*
X266311Y35875D01*
X264963Y34528D01*
X264234Y32767D01*
Y30861D01*
X264963Y29101D01*
X266311Y27754D01*
X268071Y27024D01*
X269977D01*
X270599Y27282D01*
X1052754D01*
X1054489Y27627D01*
X1055959Y28610D01*
X1080577Y53228D01*
X1081559Y54698D01*
X1081904Y56432D01*
X1081904Y56432D01*
Y69367D01*
X1082162Y69989D01*
Y71895D01*
X1081433Y73656D01*
X1080086Y75003D01*
X1079672Y75174D01*
X1079419Y76277D01*
X1079934Y76883D01*
X1151507D01*
X1153093Y77198D01*
X1154437Y78096D01*
X1168762Y92421D01*
X1170322Y93067D01*
X1171670Y94415D01*
X1172399Y96175D01*
Y98081D01*
X1171670Y99841D01*
X1170322Y101189D01*
X1168562Y101918D01*
X1166656D01*
X1164896Y101189D01*
X1163548Y99841D01*
X1162902Y98281D01*
X1149791Y85170D01*
X1077665D01*
X1076079Y84854D01*
X1074735Y83956D01*
X1071271Y80492D01*
X1070332Y80881D01*
Y99475D01*
X1070037Y100961D01*
X1069194Y102222D01*
X1058972Y112444D01*
X1057712Y113286D01*
X1056225Y113582D01*
X1019075D01*
X1017588Y113286D01*
X1016328Y112444D01*
X1010114Y106230D01*
X1009699Y106530D01*
X1001970D01*
Y99258D01*
X1003843Y99760D01*
X1004301Y99533D01*
X1004786Y99079D01*
Y88496D01*
X1000174Y83884D01*
X929674D01*
X925532Y88026D01*
X925532Y99220D01*
X939280D01*
Y111184D01*
X940160Y111692D01*
X940918Y111254D01*
X943605Y110534D01*
X943310Y109431D01*
Y106169D01*
X944154Y103018D01*
X945786Y100192D01*
X948092Y97886D01*
X950918Y96254D01*
X954069Y95410D01*
X957331D01*
X960482Y96254D01*
X963308Y97886D01*
X965019Y99597D01*
X965700Y100126D01*
X966381Y99597D01*
X968092Y97886D01*
X970918Y96254D01*
X974069Y95410D01*
X977331D01*
X980482Y96254D01*
X983308Y97886D01*
X985614Y100192D01*
X987246Y103018D01*
X988090Y106169D01*
Y109431D01*
X987794Y110534D01*
X990482Y111254D01*
X992180Y112234D01*
X992923Y111490D01*
X992705Y111112D01*
X992158Y109070D01*
X1009242D01*
X1008779Y110798D01*
X1010482Y111254D01*
X1013308Y112886D01*
X1015614Y115192D01*
X1017246Y118018D01*
X1018090Y121169D01*
Y124431D01*
X1017246Y127582D01*
X1015614Y130408D01*
X1013308Y132714D01*
X1010482Y134346D01*
X1007331Y135190D01*
D02*
G37*
G36*
X1203335Y129632D02*
X1201430D01*
X1199669Y128903D01*
X1198322Y127555D01*
X1197592Y125794D01*
Y123889D01*
X1198322Y122128D01*
X1199669Y120781D01*
X1201430Y120052D01*
X1203335D01*
X1205096Y120781D01*
X1206443Y122128D01*
X1207172Y123889D01*
Y125794D01*
X1206443Y127555D01*
X1205096Y128903D01*
X1203335Y129632D01*
D02*
G37*
G36*
X63745Y125850D02*
X61855D01*
X60109Y125127D01*
X58773Y123791D01*
X58050Y122045D01*
Y120155D01*
X58773Y118409D01*
X60109Y117073D01*
X61855Y116350D01*
X63745D01*
X65491Y117073D01*
X66827Y118409D01*
X67550Y120155D01*
Y122045D01*
X66827Y123791D01*
X65491Y125127D01*
X63745Y125850D01*
D02*
G37*
G36*
X1220294Y122295D02*
X1218388D01*
X1216628Y121565D01*
X1215280Y120218D01*
X1214551Y118457D01*
Y116552D01*
X1215280Y114791D01*
X1216628Y113444D01*
X1218388Y112715D01*
X1220294D01*
X1222055Y113444D01*
X1223402Y114791D01*
X1224131Y116552D01*
Y118457D01*
X1223402Y120218D01*
X1222055Y121565D01*
X1220294Y122295D01*
D02*
G37*
G36*
X1263045Y117764D02*
X1261140D01*
X1259379Y117035D01*
X1258032Y115688D01*
X1257302Y113927D01*
Y112022D01*
X1258032Y110261D01*
X1259379Y108914D01*
X1261140Y108184D01*
X1263045D01*
X1264806Y108914D01*
X1266153Y110261D01*
X1266882Y112022D01*
Y113927D01*
X1266153Y115688D01*
X1264806Y117035D01*
X1263045Y117764D01*
D02*
G37*
G36*
X73050Y114657D02*
X69070D01*
Y108070D01*
X80740D01*
X80639Y108834D01*
X79854Y110729D01*
X78606Y112356D01*
X76979Y113604D01*
X75084Y114389D01*
X73050Y114657D01*
D02*
G37*
G36*
X66530D02*
X62550D01*
X60516Y114389D01*
X58621Y113604D01*
X56994Y112356D01*
X55746Y110729D01*
X54960Y108834D01*
X54860Y108070D01*
X66530D01*
Y114657D01*
D02*
G37*
G36*
X29175Y115126D02*
X27270D01*
Y108070D01*
X37334D01*
X37218Y108955D01*
X36386Y110963D01*
X35062Y112688D01*
X33338Y114011D01*
X31330Y114843D01*
X29175Y115126D01*
D02*
G37*
G36*
X24730D02*
X22825D01*
X20670Y114843D01*
X18662Y114011D01*
X16938Y112688D01*
X15614Y110963D01*
X14783Y108955D01*
X14666Y108070D01*
X24730D01*
Y115126D01*
D02*
G37*
G36*
X1369950Y120149D02*
X1368177Y119915D01*
X1366526Y119231D01*
X1365107Y118143D01*
X1364019Y116724D01*
X1363335Y115072D01*
X1363101Y113300D01*
Y109800D01*
X1363335Y108027D01*
X1364019Y106376D01*
X1365107Y104957D01*
X1366526Y103869D01*
X1368177Y103185D01*
X1369950Y102951D01*
X1371723Y103185D01*
X1373374Y103869D01*
X1374793Y104957D01*
X1375881Y106376D01*
X1376565Y108027D01*
X1376799Y109800D01*
Y113300D01*
X1376565Y115072D01*
X1375881Y116724D01*
X1374793Y118143D01*
X1373374Y119231D01*
X1371723Y119915D01*
X1369950Y120149D01*
D02*
G37*
G36*
X1186718Y111778D02*
X1184813D01*
X1183052Y111049D01*
X1181705Y109702D01*
X1180975Y107941D01*
Y106036D01*
X1181705Y104275D01*
X1183052Y102928D01*
X1184813Y102198D01*
X1186718D01*
X1188479Y102928D01*
X1189826Y104275D01*
X1190555Y106036D01*
Y107941D01*
X1189826Y109702D01*
X1188479Y111049D01*
X1186718Y111778D01*
D02*
G37*
G36*
X1400950Y200057D02*
X1394950D01*
X1392916Y199790D01*
X1391021Y199004D01*
X1389394Y197756D01*
X1388145Y196129D01*
X1387361Y194234D01*
X1387093Y192200D01*
X1387182Y191525D01*
X1386239Y190900D01*
X1384475D01*
X1382674Y190154D01*
X1381296Y188776D01*
X1380550Y186975D01*
Y185025D01*
X1381296Y183224D01*
X1382674Y181846D01*
X1384475Y181100D01*
X1385867D01*
X1386571Y180145D01*
X1386160Y179152D01*
Y176848D01*
X1387041Y174720D01*
X1388670Y173092D01*
X1389350Y172810D01*
Y172736D01*
X1390004Y170295D01*
X1390174Y170000D01*
X1390004Y169706D01*
X1389350Y167264D01*
Y167190D01*
X1388670Y166908D01*
X1387041Y165280D01*
X1386160Y163152D01*
Y161742D01*
X1386055Y161682D01*
X1384268Y159895D01*
X1383004Y157705D01*
X1382350Y155264D01*
Y152736D01*
X1383004Y150295D01*
X1383174Y150000D01*
X1383004Y149705D01*
X1382350Y147264D01*
Y144736D01*
X1383004Y142295D01*
X1384268Y140105D01*
X1386055Y138318D01*
X1386160Y138258D01*
Y136848D01*
X1387041Y134720D01*
X1388670Y133091D01*
X1389350Y132810D01*
Y132736D01*
X1390004Y130295D01*
X1390174Y130000D01*
X1390004Y129705D01*
X1389350Y127264D01*
Y127190D01*
X1388670Y126909D01*
X1387041Y125280D01*
X1386160Y123152D01*
Y120848D01*
X1386571Y119855D01*
X1385867Y118900D01*
X1384475D01*
X1382674Y118154D01*
X1381296Y116776D01*
X1380550Y114975D01*
Y113025D01*
X1381296Y111224D01*
X1382674Y109846D01*
X1384475Y109100D01*
X1386239D01*
X1387182Y108475D01*
X1387093Y107800D01*
X1387361Y105766D01*
X1388145Y103871D01*
X1389394Y102244D01*
X1391021Y100996D01*
X1392916Y100211D01*
X1394950Y99943D01*
X1400950D01*
X1402984Y100211D01*
X1404879Y100996D01*
X1406506Y102244D01*
X1407755Y103871D01*
X1408539Y105766D01*
X1408807Y107800D01*
X1408539Y109834D01*
X1407755Y111729D01*
X1406506Y113356D01*
X1404879Y114605D01*
X1402984Y115389D01*
X1401230Y115620D01*
X1401162Y116654D01*
X1402655Y117054D01*
X1404845Y118318D01*
X1406632Y120105D01*
X1407896Y122295D01*
X1408550Y124736D01*
Y127264D01*
X1407896Y129705D01*
X1407726Y130000D01*
X1407896Y130295D01*
X1408550Y132736D01*
Y135264D01*
X1407896Y137705D01*
X1406632Y139895D01*
X1404845Y141682D01*
X1404740Y141742D01*
Y143152D01*
X1403858Y145280D01*
X1402230Y146909D01*
X1401550Y147190D01*
Y147264D01*
X1400896Y149705D01*
X1400726Y150000D01*
X1400896Y150295D01*
X1401550Y152736D01*
Y152810D01*
X1402230Y153091D01*
X1403858Y154720D01*
X1404740Y156848D01*
Y158258D01*
X1404845Y158318D01*
X1406632Y160105D01*
X1407896Y162295D01*
X1408550Y164736D01*
Y167264D01*
X1407896Y169706D01*
X1407726Y170000D01*
X1407896Y170295D01*
X1408550Y172736D01*
Y175264D01*
X1407896Y177705D01*
X1406632Y179895D01*
X1404845Y181682D01*
X1402655Y182946D01*
X1401162Y183346D01*
X1401230Y184380D01*
X1402984Y184611D01*
X1404879Y185396D01*
X1406506Y186644D01*
X1407755Y188271D01*
X1408539Y190166D01*
X1408807Y192200D01*
X1408539Y194234D01*
X1407755Y196129D01*
X1406506Y197756D01*
X1404879Y199004D01*
X1402984Y199790D01*
X1400950Y200057D01*
D02*
G37*
G36*
X999430Y106530D02*
X992158D01*
X992705Y104488D01*
X993834Y102532D01*
X995432Y100934D01*
X997388Y99805D01*
X999430Y99258D01*
Y106530D01*
D02*
G37*
G36*
X80740Y105530D02*
X69070D01*
Y98943D01*
X73050D01*
X75084Y99211D01*
X76979Y99995D01*
X78606Y101244D01*
X79854Y102871D01*
X80639Y104766D01*
X80740Y105530D01*
D02*
G37*
G36*
X66530D02*
X54860D01*
X54960Y104766D01*
X55746Y102871D01*
X56994Y101244D01*
X58621Y99995D01*
X60516Y99211D01*
X62550Y98943D01*
X66530D01*
Y105530D01*
D02*
G37*
G36*
X37334D02*
X27270D01*
Y98474D01*
X29175D01*
X31330Y98757D01*
X33338Y99589D01*
X35062Y100913D01*
X36386Y102637D01*
X37218Y104645D01*
X37334Y105530D01*
D02*
G37*
G36*
X24730D02*
X14666D01*
X14783Y104645D01*
X15614Y102637D01*
X16938Y100913D01*
X18662Y99589D01*
X20670Y98757D01*
X22825Y98474D01*
X24730D01*
Y105530D01*
D02*
G37*
G36*
X1428100Y112353D02*
X1418100D01*
X1416197Y112102D01*
X1414424Y111368D01*
X1412901Y110199D01*
X1411732Y108676D01*
X1410998Y106903D01*
X1410747Y105000D01*
X1410998Y103097D01*
X1411732Y101323D01*
X1412901Y99801D01*
X1414424Y98632D01*
X1416197Y97898D01*
X1418100Y97647D01*
X1428100D01*
X1430003Y97898D01*
X1431776Y98632D01*
X1433299Y99801D01*
X1434468Y101323D01*
X1435202Y103097D01*
X1435453Y105000D01*
X1435202Y106903D01*
X1434468Y108676D01*
X1433299Y110199D01*
X1431776Y111368D01*
X1430003Y112102D01*
X1428100Y112353D01*
D02*
G37*
G36*
X1190079Y92011D02*
X1188173D01*
X1186413Y91282D01*
X1185065Y89934D01*
X1184336Y88174D01*
Y86268D01*
X1185065Y84508D01*
X1186413Y83160D01*
X1188173Y82431D01*
X1190079D01*
X1191839Y83160D01*
X1193187Y84508D01*
X1193916Y86268D01*
Y88174D01*
X1193187Y89934D01*
X1191839Y91282D01*
X1190079Y92011D01*
D02*
G37*
G36*
X1309027Y79150D02*
X1309027Y79150D01*
X1301461D01*
X1301461Y79150D01*
X1300073Y78874D01*
X1298897Y78088D01*
X1298897Y78088D01*
X1296912Y76103D01*
X1296126Y74927D01*
X1295850Y73539D01*
X1295850Y73539D01*
Y68584D01*
X1295390Y67472D01*
Y65567D01*
X1296119Y63806D01*
X1297466Y62459D01*
X1299227Y61729D01*
X1301132D01*
X1301870Y61237D01*
Y55135D01*
X1301633Y54940D01*
X1300575Y54837D01*
X1299228Y56185D01*
X1297467Y56914D01*
X1295562D01*
X1293801Y56185D01*
X1293446Y55830D01*
X1292762Y56514D01*
X1291002Y57243D01*
X1289096D01*
X1287336Y56514D01*
X1285988Y55166D01*
X1285259Y53406D01*
Y51500D01*
X1285988Y49740D01*
X1286273Y49455D01*
Y48657D01*
X1259218Y21602D01*
X1230051D01*
X1229558Y22339D01*
Y24245D01*
X1228829Y26005D01*
X1227482Y27353D01*
X1225721Y28082D01*
X1223816D01*
X1222055Y27353D01*
X1220708Y26005D01*
X1219978Y24245D01*
Y22339D01*
X1219486Y21602D01*
X1205433D01*
X1186876Y40159D01*
X1185699Y40944D01*
X1184312Y41220D01*
X1184312Y41220D01*
X1115348D01*
X1115348Y41220D01*
X1113960Y40944D01*
X1113241Y40463D01*
X1112849D01*
X1111178Y41156D01*
X1109272D01*
X1107512Y40426D01*
X1106164Y39079D01*
X1105435Y37318D01*
Y35413D01*
X1106164Y33652D01*
X1106872Y32945D01*
X1107270Y31940D01*
X1106541Y30180D01*
Y28274D01*
X1107270Y26514D01*
X1108617Y25166D01*
X1110378Y24437D01*
X1112284D01*
X1114044Y25166D01*
X1114900Y26022D01*
X1114962Y26010D01*
X1116274Y24698D01*
X1114928Y23352D01*
X1114199Y21591D01*
Y19686D01*
X1114928Y17925D01*
X1116276Y16578D01*
X1118036Y15848D01*
X1119942D01*
X1121702Y16578D01*
X1123050Y17925D01*
X1123742Y19596D01*
X1124446Y20301D01*
X1181392D01*
X1197222Y4471D01*
X1197222Y4471D01*
X1198398Y3685D01*
X1199786Y3409D01*
X1264865D01*
X1264865Y3409D01*
X1266252Y3685D01*
X1267429Y4471D01*
X1311615Y48657D01*
X1311615Y48657D01*
X1312401Y49834D01*
X1312677Y51221D01*
X1312677Y51221D01*
Y65436D01*
X1313141Y65900D01*
X1313927Y67076D01*
X1314203Y68464D01*
X1314203Y68464D01*
Y73974D01*
X1313927Y75361D01*
X1313141Y76537D01*
X1313141Y76537D01*
X1311591Y78088D01*
X1310414Y78874D01*
X1309027Y79150D01*
D02*
G37*
G36*
X1396349Y76799D02*
X1394443D01*
X1392683Y76070D01*
X1391335Y74722D01*
X1390606Y72962D01*
Y71056D01*
X1391335Y69296D01*
X1392683Y67948D01*
X1394443Y67219D01*
X1396349D01*
X1398109Y67948D01*
X1399457Y69296D01*
X1400186Y71056D01*
Y72962D01*
X1399457Y74722D01*
X1398109Y76070D01*
X1396349Y76799D01*
D02*
G37*
G36*
X1190245Y65878D02*
X1188340D01*
X1186579Y65149D01*
X1185232Y63802D01*
X1184502Y62041D01*
Y60135D01*
X1185232Y58375D01*
X1186579Y57028D01*
X1188340Y56298D01*
X1190245D01*
X1192006Y57028D01*
X1193353Y58375D01*
X1194082Y60135D01*
Y62041D01*
X1193353Y63802D01*
X1192006Y65149D01*
X1190245Y65878D01*
D02*
G37*
G36*
X1242459Y41725D02*
X1240553D01*
X1238793Y40996D01*
X1237445Y39648D01*
X1236716Y37888D01*
Y35982D01*
X1237445Y34222D01*
X1238793Y32875D01*
X1240553Y32145D01*
X1242459D01*
X1244219Y32875D01*
X1245567Y34222D01*
X1246296Y35982D01*
Y37888D01*
X1245567Y39648D01*
X1244219Y40996D01*
X1242459Y41725D01*
D02*
G37*
G36*
X1209163Y35396D02*
X1207257D01*
X1205497Y34667D01*
X1204149Y33320D01*
X1203420Y31559D01*
Y29654D01*
X1204149Y27893D01*
X1205497Y26546D01*
X1207257Y25817D01*
X1209163D01*
X1210923Y26546D01*
X1212271Y27893D01*
X1213000Y29654D01*
Y31559D01*
X1212271Y33320D01*
X1210923Y34667D01*
X1209163Y35396D01*
D02*
G37*
G36*
X1336442Y27263D02*
X1334536D01*
X1332776Y26534D01*
X1331429Y25186D01*
X1330699Y23426D01*
Y21520D01*
X1331429Y19760D01*
X1332776Y18412D01*
X1334536Y17683D01*
X1336442D01*
X1338203Y18412D01*
X1339379Y19588D01*
X1340588Y18379D01*
X1342349Y17650D01*
X1344254D01*
X1346015Y18379D01*
X1347213Y19577D01*
X1348411Y18379D01*
X1350172Y17650D01*
X1352077D01*
X1353838Y18379D01*
X1355185Y19727D01*
X1355914Y21487D01*
Y23393D01*
X1355185Y25153D01*
X1353838Y26501D01*
X1352077Y27230D01*
X1350172D01*
X1348411Y26501D01*
X1347213Y25302D01*
X1346015Y26501D01*
X1344254Y27230D01*
X1342349D01*
X1340588Y26501D01*
X1339412Y25324D01*
X1338203Y26534D01*
X1336442Y27263D01*
D02*
G37*
G36*
X1421777Y43500D02*
X1418223D01*
X1414789Y42580D01*
X1411711Y40803D01*
X1409197Y38289D01*
X1407420Y35211D01*
X1406500Y31777D01*
Y28223D01*
X1407420Y24789D01*
X1409197Y21711D01*
X1411711Y19197D01*
X1414789Y17420D01*
X1418223Y16500D01*
X1421777D01*
X1425211Y17420D01*
X1428289Y19197D01*
X1430803Y21711D01*
X1432580Y24789D01*
X1433500Y28223D01*
Y31777D01*
X1432580Y35211D01*
X1430803Y38289D01*
X1428289Y40803D01*
X1425211Y42580D01*
X1421777Y43500D01*
D02*
G37*
G36*
X31777D02*
X28223D01*
X24789Y42580D01*
X21711Y40803D01*
X19197Y38289D01*
X17420Y35211D01*
X16500Y31777D01*
Y28223D01*
X17420Y24789D01*
X19197Y21711D01*
X21711Y19197D01*
X24789Y17420D01*
X28223Y16500D01*
X31777D01*
X35211Y17420D01*
X38289Y19197D01*
X40803Y21711D01*
X42580Y24789D01*
X43500Y28223D01*
Y31777D01*
X42580Y35211D01*
X40803Y38289D01*
X38289Y40803D01*
X35211Y42580D01*
X31777Y43500D01*
D02*
G37*
%LPD*%
G36*
X241063Y272017D02*
X240674Y271079D01*
X241300D01*
Y262014D01*
X240621Y261732D01*
X239273Y260385D01*
X238544Y258624D01*
Y256719D01*
X239273Y254958D01*
X240621Y253611D01*
X241300Y253330D01*
Y219840D01*
X228600Y207140D01*
Y171996D01*
X227449Y171519D01*
X226102Y170172D01*
X225372Y168411D01*
Y166506D01*
X226102Y164745D01*
X227449Y163398D01*
X228600Y162921D01*
Y145605D01*
X228136Y145244D01*
X228600Y144780D01*
Y129540D01*
X220980Y121920D01*
X198120D01*
X190500Y129540D01*
Y144780D01*
X198120Y152400D01*
Y180372D01*
X199136Y180574D01*
X199244Y180315D01*
X200591Y178967D01*
X202351Y178238D01*
X204257D01*
X206017Y178967D01*
X207365Y180315D01*
X208094Y182075D01*
Y183981D01*
X207365Y185741D01*
X206017Y187089D01*
X204257Y187818D01*
X202351D01*
X200591Y187089D01*
X199244Y185741D01*
X199136Y185482D01*
X198120Y185684D01*
Y243840D01*
Y257626D01*
X199303Y258116D01*
X200650Y259463D01*
X201379Y261223D01*
Y263129D01*
X200650Y264890D01*
X199303Y266237D01*
X198120Y266727D01*
Y271079D01*
X199435D01*
X199128Y271965D01*
X213360Y284480D01*
X228600D01*
X241063Y272017D01*
D02*
G37*
%LPC*%
G36*
X215465Y257837D02*
X213559D01*
X211798Y257108D01*
X210451Y255760D01*
X209722Y254000D01*
Y252094D01*
X210451Y250334D01*
X211798Y248986D01*
X213559Y248257D01*
X215465D01*
X217225Y248986D01*
X218573Y250334D01*
X219302Y252094D01*
Y254000D01*
X218573Y255760D01*
X217225Y257108D01*
X215465Y257837D01*
D02*
G37*
G36*
X229887Y257837D02*
X227981D01*
X226221Y257108D01*
X224874Y255760D01*
X224144Y254000D01*
Y252094D01*
X224874Y250334D01*
X226221Y248986D01*
X227981Y248257D01*
X229887D01*
X231647Y248986D01*
X232995Y250334D01*
X233724Y252094D01*
Y254000D01*
X232995Y255760D01*
X231647Y257108D01*
X229887Y257837D01*
D02*
G37*
G36*
X222894Y222196D02*
X220989D01*
X219228Y221467D01*
X217881Y220120D01*
X217152Y218359D01*
Y216454D01*
X217881Y214693D01*
X219228Y213346D01*
X220989Y212616D01*
X222894D01*
X224655Y213346D01*
X226002Y214693D01*
X226731Y216454D01*
Y218359D01*
X226002Y220120D01*
X224655Y221467D01*
X222894Y222196D01*
D02*
G37*
%LPD*%
G36*
X792923Y111490D02*
X792705Y111112D01*
X792158Y109070D01*
X800700D01*
Y107800D01*
X801970D01*
Y99258D01*
X804012Y99805D01*
X805126Y100448D01*
X806142Y99861D01*
Y88388D01*
X801637Y83884D01*
X730958D01*
X725146Y89696D01*
Y99220D01*
X739280D01*
Y111184D01*
X740160Y111692D01*
X740918Y111254D01*
X743605Y110534D01*
X743310Y109431D01*
Y106169D01*
X744154Y103018D01*
X745786Y100192D01*
X748092Y97886D01*
X750918Y96254D01*
X754069Y95410D01*
X757331D01*
X760482Y96254D01*
X763308Y97886D01*
X765019Y99597D01*
X765700Y100126D01*
X766381Y99597D01*
X768092Y97886D01*
X770918Y96254D01*
X774069Y95410D01*
X777331D01*
X780482Y96254D01*
X783308Y97886D01*
X785614Y100192D01*
X787246Y103018D01*
X788090Y106169D01*
Y109431D01*
X787794Y110534D01*
X790482Y111254D01*
X792180Y112234D01*
X792923Y111490D01*
D02*
G37*
G36*
X592923D02*
X592705Y111112D01*
X592158Y109070D01*
X600700D01*
Y107800D01*
X601970D01*
Y99258D01*
X604012Y99805D01*
X605297Y100547D01*
X606313Y99960D01*
Y88870D01*
X601327Y83884D01*
X531727Y83884D01*
X525286Y90325D01*
X524375Y98463D01*
X525052Y99220D01*
X539280D01*
Y111184D01*
X540160Y111692D01*
X540918Y111254D01*
X543605Y110534D01*
X543310Y109431D01*
Y106169D01*
X544154Y103018D01*
X545785Y100192D01*
X548092Y97886D01*
X550918Y96254D01*
X554069Y95410D01*
X557331D01*
X560482Y96254D01*
X563308Y97886D01*
X565019Y99597D01*
X565700Y100126D01*
X566381Y99597D01*
X568092Y97886D01*
X570918Y96254D01*
X574069Y95410D01*
X577331D01*
X580482Y96254D01*
X583308Y97886D01*
X585614Y100192D01*
X587246Y103018D01*
X588090Y106169D01*
Y109431D01*
X587794Y110534D01*
X590482Y111254D01*
X592180Y112234D01*
X592923Y111490D01*
D02*
G37*
G36*
X392923D02*
X392705Y111112D01*
X392158Y109070D01*
X400700D01*
Y107800D01*
X401970D01*
Y99258D01*
X404012Y99805D01*
X405968Y100934D01*
X406655Y101621D01*
X407671Y101200D01*
X407671Y91247D01*
X407782Y90688D01*
X407786Y90647D01*
X401023Y83884D01*
X332055Y83884D01*
X326248Y89691D01*
Y99220D01*
X339280D01*
Y111184D01*
X340160Y111692D01*
X340918Y111254D01*
X343605Y110534D01*
X343310Y109431D01*
Y106169D01*
X344154Y103018D01*
X345785Y100192D01*
X348092Y97886D01*
X350918Y96254D01*
X354069Y95410D01*
X357331D01*
X360482Y96254D01*
X363308Y97886D01*
X365019Y99597D01*
X365700Y100126D01*
X366381Y99597D01*
X368092Y97886D01*
X370918Y96254D01*
X374069Y95410D01*
X377331D01*
X380482Y96254D01*
X383308Y97886D01*
X385614Y100192D01*
X387246Y103018D01*
X388090Y106169D01*
Y109431D01*
X387794Y110534D01*
X390482Y111254D01*
X392180Y112234D01*
X392923Y111490D01*
D02*
G37*
G36*
X520126Y101503D02*
X521577Y88540D01*
X530118Y79999D01*
X602936Y79999D01*
X610197Y87261D01*
Y101503D01*
X618392Y109698D01*
X642702Y109698D01*
X664350D01*
X665508Y109218D01*
X667413D01*
X668571Y109698D01*
X711467D01*
X721262Y99902D01*
Y88087D01*
X729349Y79999D01*
X803246D01*
X810026Y86779D01*
Y102881D01*
X816843Y109698D01*
X862400D01*
X862795Y109302D01*
X864556Y108573D01*
X866462D01*
X868222Y109302D01*
X868617Y109698D01*
X884698D01*
X912156Y109698D01*
X921647Y100206D01*
X921647Y86416D01*
X928065Y79999D01*
X1001783D01*
X1008671Y86887D01*
Y99294D01*
X1019075Y109698D01*
X1056225D01*
X1066448Y99475D01*
X1066448Y59654D01*
X1049205Y42411D01*
X994139D01*
X990423Y46127D01*
X989777Y47687D01*
X988430Y49035D01*
X986669Y49764D01*
X984764D01*
X983003Y49035D01*
X981656Y47687D01*
X980926Y45927D01*
Y44021D01*
X981656Y42261D01*
X983003Y40913D01*
X984564Y40267D01*
X987545Y37285D01*
X987157Y36346D01*
X294151D01*
X289584Y40913D01*
X277381Y53116D01*
X277381Y98598D01*
X288480Y109698D01*
X311943Y109698D01*
X322120Y99520D01*
Y99220D01*
X322363D01*
Y88082D01*
X330446Y79999D01*
X402632Y79999D01*
X411264Y88631D01*
X412280Y88219D01*
Y85917D01*
X413015Y82223D01*
X414456Y78743D01*
X416549Y75612D01*
X419212Y72948D01*
X422343Y70856D01*
X425823Y69415D01*
X429517Y68680D01*
X430130D01*
Y87800D01*
Y106920D01*
X429517D01*
X425823Y106185D01*
X422343Y104744D01*
X419212Y102652D01*
X416549Y99988D01*
X414456Y96857D01*
X413015Y93377D01*
X412571Y91147D01*
X411555Y91247D01*
X411555Y103556D01*
X417696Y109698D01*
X442196Y109698D01*
X468202D01*
X511931Y109698D01*
X520126Y101503D01*
D02*
G37*
%LPC*%
G36*
X799430Y106530D02*
X792158D01*
X792705Y104488D01*
X793834Y102532D01*
X795432Y100934D01*
X797388Y99805D01*
X799430Y99258D01*
Y106530D01*
D02*
G37*
G36*
X599430D02*
X592158D01*
X592705Y104488D01*
X593834Y102532D01*
X595432Y100934D01*
X597388Y99805D01*
X599430Y99258D01*
Y106530D01*
D02*
G37*
G36*
X399430D02*
X392158D01*
X392705Y104488D01*
X393834Y102532D01*
X395432Y100934D01*
X397388Y99805D01*
X399430Y99258D01*
Y106530D01*
D02*
G37*
G36*
X1033283Y106920D02*
X1032670D01*
Y89070D01*
X1050520D01*
Y89683D01*
X1049785Y93377D01*
X1048344Y96857D01*
X1046252Y99988D01*
X1043588Y102652D01*
X1040457Y104744D01*
X1036977Y106185D01*
X1033283Y106920D01*
D02*
G37*
G36*
X1030130D02*
X1029517D01*
X1025823Y106185D01*
X1022343Y104744D01*
X1019212Y102652D01*
X1016548Y99988D01*
X1014456Y96857D01*
X1013015Y93377D01*
X1012280Y89683D01*
Y89070D01*
X1030130D01*
Y106920D01*
D02*
G37*
G36*
X901883D02*
X901270D01*
Y89070D01*
X919120D01*
Y89683D01*
X918385Y93377D01*
X916944Y96857D01*
X914852Y99988D01*
X912188Y102652D01*
X909057Y104744D01*
X905577Y106185D01*
X901883Y106920D01*
D02*
G37*
G36*
X898730D02*
X898117D01*
X894423Y106185D01*
X890943Y104744D01*
X887812Y102652D01*
X885148Y99988D01*
X883056Y96857D01*
X881615Y93377D01*
X880880Y89683D01*
Y89070D01*
X898730D01*
Y106920D01*
D02*
G37*
G36*
X833283D02*
X832670D01*
Y89070D01*
X850520D01*
Y89683D01*
X849785Y93377D01*
X848344Y96857D01*
X846251Y99988D01*
X843588Y102652D01*
X840457Y104744D01*
X836977Y106185D01*
X833283Y106920D01*
D02*
G37*
G36*
X830130D02*
X829517D01*
X825823Y106185D01*
X822343Y104744D01*
X819212Y102652D01*
X816548Y99988D01*
X814456Y96857D01*
X813015Y93377D01*
X812280Y89683D01*
Y89070D01*
X830130D01*
Y106920D01*
D02*
G37*
G36*
X701883D02*
X701270D01*
Y89070D01*
X719120D01*
Y89683D01*
X718385Y93377D01*
X716944Y96857D01*
X714852Y99988D01*
X712188Y102652D01*
X709057Y104744D01*
X705577Y106185D01*
X701883Y106920D01*
D02*
G37*
G36*
X698730D02*
X698117D01*
X694423Y106185D01*
X690943Y104744D01*
X687812Y102652D01*
X685148Y99988D01*
X683056Y96857D01*
X681615Y93377D01*
X680880Y89683D01*
Y89070D01*
X698730D01*
Y106920D01*
D02*
G37*
G36*
X633283D02*
X632670D01*
Y89070D01*
X650520D01*
Y89683D01*
X649785Y93377D01*
X648344Y96857D01*
X646252Y99988D01*
X643588Y102652D01*
X640457Y104744D01*
X636977Y106185D01*
X633283Y106920D01*
D02*
G37*
G36*
X630130D02*
X629517D01*
X625823Y106185D01*
X622343Y104744D01*
X619212Y102652D01*
X616549Y99988D01*
X614456Y96857D01*
X613015Y93377D01*
X612280Y89683D01*
Y89070D01*
X630130D01*
Y106920D01*
D02*
G37*
G36*
X501883D02*
X501270D01*
Y89070D01*
X519120D01*
Y89683D01*
X518385Y93377D01*
X516944Y96857D01*
X514851Y99988D01*
X512188Y102652D01*
X509057Y104744D01*
X505577Y106185D01*
X501883Y106920D01*
D02*
G37*
G36*
X498730D02*
X498117D01*
X494423Y106185D01*
X490943Y104744D01*
X487812Y102652D01*
X485149Y99988D01*
X483056Y96857D01*
X481615Y93377D01*
X480880Y89683D01*
Y89070D01*
X498730D01*
Y106920D01*
D02*
G37*
G36*
X433283D02*
X432670D01*
Y89070D01*
X450520D01*
Y89683D01*
X449785Y93377D01*
X448344Y96857D01*
X446251Y99988D01*
X443588Y102652D01*
X440457Y104744D01*
X436977Y106185D01*
X433283Y106920D01*
D02*
G37*
G36*
X301883D02*
X301270D01*
Y89070D01*
X319120D01*
Y89683D01*
X318385Y93377D01*
X316944Y96857D01*
X314851Y99988D01*
X312188Y102652D01*
X309057Y104744D01*
X305577Y106185D01*
X301883Y106920D01*
D02*
G37*
G36*
X298730D02*
X298117D01*
X294423Y106185D01*
X290943Y104744D01*
X287812Y102652D01*
X285149Y99988D01*
X283056Y96857D01*
X281615Y93377D01*
X280880Y89683D01*
Y89070D01*
X298730D01*
Y106920D01*
D02*
G37*
G36*
X1050520Y86530D02*
X1032670D01*
Y68680D01*
X1033283D01*
X1036977Y69415D01*
X1040457Y70856D01*
X1043588Y72948D01*
X1046252Y75612D01*
X1048344Y78743D01*
X1049785Y82223D01*
X1050520Y85917D01*
Y86530D01*
D02*
G37*
G36*
X1030130D02*
X1012280D01*
Y85917D01*
X1013015Y82223D01*
X1014456Y78743D01*
X1016548Y75612D01*
X1019212Y72948D01*
X1022343Y70856D01*
X1025823Y69415D01*
X1029517Y68680D01*
X1030130D01*
Y86530D01*
D02*
G37*
G36*
X919120D02*
X901270D01*
Y68680D01*
X901883D01*
X905577Y69415D01*
X909057Y70856D01*
X912188Y72948D01*
X914852Y75612D01*
X916944Y78743D01*
X918385Y82223D01*
X919120Y85917D01*
Y86530D01*
D02*
G37*
G36*
X898730D02*
X880880D01*
Y85917D01*
X881615Y82223D01*
X883056Y78743D01*
X885148Y75612D01*
X887812Y72948D01*
X890943Y70856D01*
X894423Y69415D01*
X898117Y68680D01*
X898730D01*
Y86530D01*
D02*
G37*
G36*
X850520D02*
X832670D01*
Y68680D01*
X833283D01*
X836977Y69415D01*
X840457Y70856D01*
X843588Y72948D01*
X846251Y75612D01*
X848344Y78743D01*
X849785Y82223D01*
X850520Y85917D01*
Y86530D01*
D02*
G37*
G36*
X830130D02*
X812280D01*
Y85917D01*
X813015Y82223D01*
X814456Y78743D01*
X816548Y75612D01*
X819212Y72948D01*
X822343Y70856D01*
X825823Y69415D01*
X829517Y68680D01*
X830130D01*
Y86530D01*
D02*
G37*
G36*
X719120D02*
X701270D01*
Y68680D01*
X701883D01*
X705577Y69415D01*
X709057Y70856D01*
X712188Y72948D01*
X714852Y75612D01*
X716944Y78743D01*
X718385Y82223D01*
X719120Y85917D01*
Y86530D01*
D02*
G37*
G36*
X698730D02*
X680880D01*
Y85917D01*
X681615Y82223D01*
X683056Y78743D01*
X685148Y75612D01*
X687812Y72948D01*
X690943Y70856D01*
X694423Y69415D01*
X698117Y68680D01*
X698730D01*
Y86530D01*
D02*
G37*
G36*
X650520D02*
X632670D01*
Y68680D01*
X633283D01*
X636977Y69415D01*
X640457Y70856D01*
X643588Y72948D01*
X646252Y75612D01*
X648344Y78743D01*
X649785Y82223D01*
X650520Y85917D01*
Y86530D01*
D02*
G37*
G36*
X630130D02*
X612280D01*
Y85917D01*
X613015Y82223D01*
X614456Y78743D01*
X616549Y75612D01*
X619212Y72948D01*
X622343Y70856D01*
X625823Y69415D01*
X629517Y68680D01*
X630130D01*
Y86530D01*
D02*
G37*
G36*
X519120D02*
X501270D01*
Y68680D01*
X501883D01*
X505577Y69415D01*
X509057Y70856D01*
X512188Y72948D01*
X514851Y75612D01*
X516944Y78743D01*
X518385Y82223D01*
X519120Y85917D01*
Y86530D01*
D02*
G37*
G36*
X498730D02*
X480880D01*
Y85917D01*
X481615Y82223D01*
X483056Y78743D01*
X485149Y75612D01*
X487812Y72948D01*
X490943Y70856D01*
X494423Y69415D01*
X498117Y68680D01*
X498730D01*
Y86530D01*
D02*
G37*
G36*
X450520D02*
X432670D01*
Y68680D01*
X433283D01*
X436977Y69415D01*
X440457Y70856D01*
X443588Y72948D01*
X446251Y75612D01*
X448344Y78743D01*
X449785Y82223D01*
X450520Y85917D01*
Y86530D01*
D02*
G37*
G36*
X319120D02*
X301270D01*
Y68680D01*
X301883D01*
X305577Y69415D01*
X309057Y70856D01*
X312188Y72948D01*
X314851Y75612D01*
X316944Y78743D01*
X318385Y82223D01*
X319120Y85917D01*
Y86530D01*
D02*
G37*
G36*
X298730D02*
X280880D01*
Y85917D01*
X281615Y82223D01*
X283056Y78743D01*
X285149Y75612D01*
X287812Y72948D01*
X290943Y70856D01*
X294423Y69415D01*
X298117Y68680D01*
X298730D01*
Y86530D01*
D02*
G37*
%LPD*%
D45*
X1391950Y178000D02*
D03*
Y122000D02*
D03*
X62800Y178900D02*
D03*
Y121100D02*
D03*
X1391950Y146000D02*
D03*
Y154000D02*
D03*
X1398950Y142000D02*
D03*
Y158000D02*
D03*
X1391950Y138000D02*
D03*
Y162000D02*
D03*
X1398950Y166000D02*
D03*
Y134000D02*
D03*
Y126000D02*
D03*
Y174000D02*
D03*
D46*
X965700Y122800D02*
D03*
X1000700Y107800D02*
D03*
X565700Y122800D02*
D03*
X365700D02*
D03*
X765700D02*
D03*
X800700Y107800D02*
D03*
X600700D02*
D03*
X400700D02*
D03*
X405700Y122800D02*
D03*
X345700D02*
D03*
X385700D02*
D03*
X355700Y107800D02*
D03*
X325700Y122800D02*
D03*
X375700Y107800D02*
D03*
X975700D02*
D03*
X955700D02*
D03*
X985700Y122800D02*
D03*
X945700D02*
D03*
X1005700D02*
D03*
X925700D02*
D03*
X775700Y107800D02*
D03*
X755700D02*
D03*
X785700Y122800D02*
D03*
X745700D02*
D03*
X805700D02*
D03*
X725700D02*
D03*
X575700Y107800D02*
D03*
X555700D02*
D03*
X585700Y122800D02*
D03*
X545700D02*
D03*
X605700D02*
D03*
X525700D02*
D03*
D47*
X67800Y193200D02*
D03*
Y106800D02*
D03*
D48*
X26000Y193200D02*
D03*
Y106800D02*
D03*
D49*
X330700Y107800D02*
D03*
X930700D02*
D03*
X730700D02*
D03*
X530700D02*
D03*
D50*
X1031400Y87800D02*
D03*
X900000D02*
D03*
X831400D02*
D03*
X700000D02*
D03*
X631400D02*
D03*
X500000D02*
D03*
X431400D02*
D03*
X300000D02*
D03*
D51*
X1369950Y111550D02*
D03*
Y188450D02*
D03*
D52*
X1423100Y105000D02*
D03*
Y195000D02*
D03*
D53*
X1397950Y107800D02*
D03*
Y192200D02*
D03*
D54*
X1385450Y114000D02*
D03*
Y186000D02*
D03*
D55*
X1077372Y70942D02*
D03*
X1351125Y22440D02*
D03*
X1343301D02*
D03*
X1335489Y22473D02*
D03*
X1352550Y69850D02*
D03*
X985716Y44974D02*
D03*
X1167609Y97128D02*
D03*
X1231010Y103057D02*
D03*
X1185766Y106988D02*
D03*
X1189293Y61088D02*
D03*
X1290049Y52453D02*
D03*
X1304804Y70208D02*
D03*
X1300179Y66519D02*
D03*
X1348206Y38332D02*
D03*
X1339850Y63500D02*
D03*
X1296514Y52124D02*
D03*
X1208210Y30607D02*
D03*
X1224768Y23292D02*
D03*
X1257516Y65123D02*
D03*
X1189126Y87221D02*
D03*
X1224729Y91029D02*
D03*
X1301129Y103182D02*
D03*
X1377589Y268150D02*
D03*
X1392589Y238150D02*
D03*
X1377589Y28150D02*
D03*
X1347590Y268150D02*
D03*
X1332590Y178150D02*
D03*
X1197589Y268150D02*
D03*
X1167589D02*
D03*
X1182589Y238150D02*
D03*
X1017590Y148150D02*
D03*
X987590Y88150D02*
D03*
X882590Y118150D02*
D03*
X837590Y148150D02*
D03*
X807590D02*
D03*
X822590Y118150D02*
D03*
X792590Y178150D02*
D03*
X777590Y88150D02*
D03*
X747590D02*
D03*
X732590Y178150D02*
D03*
X717590Y148150D02*
D03*
X687590D02*
D03*
X642590Y178150D02*
D03*
Y118150D02*
D03*
X597590Y208150D02*
D03*
X612590Y178150D02*
D03*
X597590Y88150D02*
D03*
X537590D02*
D03*
X522590Y178150D02*
D03*
X492590D02*
D03*
X477590Y148150D02*
D03*
X447590D02*
D03*
X432590Y178150D02*
D03*
Y118150D02*
D03*
X387590Y208150D02*
D03*
X402590Y178150D02*
D03*
X387590Y88150D02*
D03*
X357590Y148150D02*
D03*
X297590D02*
D03*
X282590Y118150D02*
D03*
X237590Y88150D02*
D03*
Y28150D02*
D03*
X162590Y118150D02*
D03*
X132590D02*
D03*
X87590Y268150D02*
D03*
Y88150D02*
D03*
X102590Y58150D02*
D03*
X87590Y28150D02*
D03*
X57590Y208150D02*
D03*
Y148150D02*
D03*
Y88150D02*
D03*
X72590Y58150D02*
D03*
X27590Y208150D02*
D03*
X42590Y178150D02*
D03*
X27590Y148150D02*
D03*
X42590Y118150D02*
D03*
X27590Y88150D02*
D03*
X259398Y227878D02*
D03*
X1241902Y135061D02*
D03*
X1400324Y228828D02*
D03*
X1365384Y143812D02*
D03*
X1365651Y151277D02*
D03*
X1241506Y36935D02*
D03*
X1280332Y96162D02*
D03*
X1246658Y61898D02*
D03*
X1224584Y48512D02*
D03*
X221942Y217406D02*
D03*
X1339839Y124581D02*
D03*
X965627Y173428D02*
D03*
X965711Y149504D02*
D03*
X265667Y120926D02*
D03*
X465987Y121019D02*
D03*
X865509Y113363D02*
D03*
X666461Y114008D02*
D03*
X765525Y171491D02*
D03*
X765714Y150795D02*
D03*
X565632Y185295D02*
D03*
X565917Y163104D02*
D03*
X365740Y185464D02*
D03*
X365580Y163569D02*
D03*
X1366160Y248005D02*
D03*
X203304Y183028D02*
D03*
X172419Y260763D02*
D03*
X196589Y262176D02*
D03*
X1232402Y183083D02*
D03*
X1270961Y277852D02*
D03*
X1270677Y232414D02*
D03*
Y238764D02*
D03*
Y226064D02*
D03*
X1330207Y150167D02*
D03*
X1351856Y150024D02*
D03*
X1270677Y219714D02*
D03*
Y213364D02*
D03*
X1256895Y277771D02*
D03*
X1228631Y252803D02*
D03*
X1228631Y267068D02*
D03*
X1247744Y100266D02*
D03*
X1329741Y65526D02*
D03*
X1380598Y61748D02*
D03*
X1266370Y84872D02*
D03*
X1257225Y94200D02*
D03*
X1251593Y85336D02*
D03*
X1245464Y80433D02*
D03*
X1266489Y63650D02*
D03*
X1238610Y113656D02*
D03*
X1205331Y103945D02*
D03*
X1229835Y61823D02*
D03*
X1215478Y81732D02*
D03*
X228934Y253047D02*
D03*
X214512Y253047D02*
D03*
X230162Y167458D02*
D03*
X218716Y65281D02*
D03*
Y85601D02*
D03*
X198396D02*
D03*
Y65281D02*
D03*
X218716Y44961D02*
D03*
Y24641D02*
D03*
X198396Y44961D02*
D03*
X178076Y24641D02*
D03*
X198396D02*
D03*
X178076Y85601D02*
D03*
X157756Y65281D02*
D03*
X178076D02*
D03*
X157756Y85601D02*
D03*
X137436D02*
D03*
Y65281D02*
D03*
X178076Y44961D02*
D03*
X157756Y24641D02*
D03*
Y44961D02*
D03*
X137436D02*
D03*
Y24641D02*
D03*
X1219341Y117505D02*
D03*
X300266Y233590D02*
D03*
X497613Y233816D02*
D03*
X216845Y273716D02*
D03*
X1242781Y165227D02*
D03*
X1247766Y170212D02*
D03*
X1272879Y193001D02*
D03*
X1264612Y161747D02*
D03*
X1259634Y156769D02*
D03*
X1119023Y28723D02*
D03*
X1110225Y36365D02*
D03*
X1118989Y20638D02*
D03*
X1395396Y72009D02*
D03*
X1287341Y117502D02*
D03*
X1291406Y113436D02*
D03*
X1327262Y233670D02*
D03*
X1327345Y240219D02*
D03*
X1220285Y224105D02*
D03*
Y217065D02*
D03*
X1226454Y207450D02*
D03*
Y199973D02*
D03*
X1246219Y251353D02*
D03*
X1313620Y249720D02*
D03*
X1250600Y215939D02*
D03*
X285750Y292100D02*
D03*
X279400D02*
D03*
X273050D02*
D03*
X266700D02*
D03*
X260350D02*
D03*
X254000D02*
D03*
X1246454Y267964D02*
D03*
X55594Y228937D02*
D03*
X1283916Y269016D02*
D03*
X674219Y228545D02*
D03*
X1046020Y152303D02*
D03*
X852740Y189983D02*
D03*
X647113Y221847D02*
D03*
X225149Y280292D02*
D03*
X217143Y280510D02*
D03*
X224593Y273537D02*
D03*
X444904Y219712D02*
D03*
X220980Y144780D02*
D03*
Y137160D02*
D03*
X213360D02*
D03*
X220980Y129540D02*
D03*
X213360D02*
D03*
X205740Y137160D02*
D03*
X198120D02*
D03*
X205740Y129540D02*
D03*
X198120D02*
D03*
X1202382Y124842D02*
D03*
X1284532Y137756D02*
D03*
X1289510Y132778D02*
D03*
X269024Y31814D02*
D03*
X243334Y257672D02*
D03*
X91440Y132080D02*
D03*
X101600D02*
D03*
X111760D02*
D03*
X91440Y142240D02*
D03*
X101600D02*
D03*
X111760D02*
D03*
X91440Y152400D02*
D03*
X101600D02*
D03*
X111760D02*
D03*
X91440Y162560D02*
D03*
X101600D02*
D03*
X111760D02*
D03*
X110423Y171402D02*
D03*
X101600Y172720D02*
D03*
X91440D02*
D03*
X1111331Y29227D02*
D03*
X1262093Y112974D02*
D03*
X1280479Y193001D02*
D03*
D57*
X1390592Y177026D02*
X1391566Y178000D01*
X1391950D01*
X1379102Y177026D02*
X1390592D01*
X1389850Y123716D02*
X1391566Y122000D01*
X1377883Y123716D02*
X1389850D01*
X1391566Y122000D02*
X1391950D01*
X1276819Y291514D02*
X1285708Y282626D01*
Y270808D02*
Y282626D01*
X1283916Y269016D02*
X1285708Y270808D01*
X1232967Y278178D02*
X1246303Y291514D01*
X1276819D01*
X1192048Y278178D02*
X1232967D01*
X1160580Y246710D02*
X1192048Y278178D01*
X1160580Y175184D02*
Y246710D01*
X1046020Y152303D02*
X1137699D01*
X1160580Y175184D01*
D58*
X1077665Y81026D02*
X1151507D01*
X1071118Y58465D02*
Y74480D01*
X1077665Y81026D01*
X1151507D02*
X1167609Y97128D01*
X1050921Y38267D02*
X1071118Y58465D01*
X992423Y38267D02*
X1050921D01*
X985716Y44974D02*
X992423Y38267D01*
D59*
X1299476Y67891D02*
X1300179Y67187D01*
X1289898Y48398D02*
Y52302D01*
X1305495Y63995D02*
Y68849D01*
X1309027Y75524D02*
X1310577Y73974D01*
X1301461Y75524D02*
X1309027D01*
X1300179Y66519D02*
Y67187D01*
X1299476Y67891D02*
Y73539D01*
X1304804Y69540D02*
Y70208D01*
X1289898Y52302D02*
X1290049Y52453D01*
X1304804Y69540D02*
X1305495Y68849D01*
X1299476Y73539D02*
X1301461Y75524D01*
X1324107Y62431D02*
X1348206Y38332D01*
X1324107Y62431D02*
Y75692D01*
X1296042Y48270D02*
Y51652D01*
X1296514Y52124D01*
X1262193Y14420D02*
X1296042Y48270D01*
X1184312Y37595D02*
X1203931Y17976D01*
X1115348Y37595D02*
X1184312D01*
X1114591Y36838D02*
X1115348Y37595D01*
X1111331Y29227D02*
X1111999D01*
X1116811Y34039D02*
X1182839D01*
X1111999Y29227D02*
X1116811Y34039D01*
X1182839D02*
X1202458Y14420D01*
X1110225Y36365D02*
X1110697Y36838D01*
X1114591D01*
X1183126Y28723D02*
X1200985Y10864D01*
X1119023Y28723D02*
X1183126D01*
X1122944Y23926D02*
X1182894D01*
X1118989Y20638D02*
X1119657D01*
X1122944Y23926D01*
X1221083Y153920D02*
X1234906D01*
X1207421D02*
X1221083D01*
X1234906D02*
X1298874Y89952D01*
X1309846D01*
X1320649Y79149D02*
X1324107Y75692D01*
X1309846Y89952D02*
X1320649Y79149D01*
X1310577Y68464D02*
Y73974D01*
X1309052Y66938D02*
X1310577Y68464D01*
X1309052Y51221D02*
Y66938D01*
X1305495Y52694D02*
Y63995D01*
X1289898Y47155D02*
Y48398D01*
X1260720Y17976D02*
X1289898Y47155D01*
X1219270Y17976D02*
X1260720D01*
X1255920Y14420D02*
X1262193D01*
X1199786Y7035D02*
X1264865D01*
X1252364Y10864D02*
X1263665D01*
X1305495Y52694D01*
X1264865Y7035D02*
X1309052Y51221D01*
X1203931Y17976D02*
X1219270D01*
X1200985Y10864D02*
X1226382D01*
X1252364D01*
X1222826Y14420D02*
X1255920D01*
X1202458D02*
X1222826D01*
X1182894Y23926D02*
X1199786Y7035D01*
X1228346Y232755D02*
X1245161Y215939D01*
X1250600D01*
X1204155Y232755D02*
X1228346D01*
X1182969Y211569D02*
X1204155Y232755D01*
X1182969Y178372D02*
Y211569D01*
Y178372D02*
X1207421Y153920D01*
D61*
X1077372Y56432D02*
Y70942D01*
X1052754Y31814D02*
X1077372Y56432D01*
X269024Y31814D02*
X1052754D01*
X55678Y228937D02*
X71242Y244501D01*
X55594Y228937D02*
X55678D01*
X71242Y244501D02*
X200930D01*
D66*
X259398Y227878D02*
X266097Y234577D01*
X1011554Y186770D02*
X1046020Y152303D01*
X855948Y186770D02*
X1011554D01*
X635144Y233816D02*
X647113Y221847D01*
X497613Y233816D02*
X635144D01*
X496718Y234711D02*
X497613Y233816D01*
X647113Y221847D02*
X667520D01*
X852740Y189977D02*
X855948Y186770D01*
X266097Y234577D02*
X299279D01*
X300266Y233590D01*
X301387Y234711D01*
X458175D01*
X496718D01*
X674219Y228545D02*
X814178D01*
X852740Y189983D01*
X667520Y221847D02*
X674219Y228545D01*
X458175Y232983D02*
Y234711D01*
X224877Y234482D02*
X224972Y234577D01*
X266097D01*
X444904Y219712D02*
X458175Y232983D01*
M02*
