G04*
G04 #@! TF.GenerationSoftware,Altium Limited,Altium Designer,25.8.1 (18)*
G04*
G04 Layer_Color=128*
%FSLAX44Y44*%
%MOMM*%
G71*
G04*
G04 #@! TF.SameCoordinates,C96D2FE9-1FD8-438A-A999-0EA797086850*
G04*
G04*
G04 #@! TF.FilePolarity,Positive*
G04*
G01*
G75*
%ADD19R,0.6000X0.5400*%
%ADD23R,0.5400X0.6000*%
G04:AMPARAMS|DCode=26|XSize=0.54mm|YSize=0.6mm|CornerRadius=0mm|HoleSize=0mm|Usage=FLASHONLY|Rotation=315.000|XOffset=0mm|YOffset=0mm|HoleType=Round|Shape=Rectangle|*
%AMROTATEDRECTD26*
4,1,4,-0.4031,-0.0212,0.0212,0.4031,0.4031,0.0212,-0.0212,-0.4031,-0.4031,-0.0212,0.0*
%
%ADD26ROTATEDRECTD26*%

%ADD28R,0.4750X0.5000*%
%ADD37R,0.5000X0.4750*%
G04:AMPARAMS|DCode=39|XSize=0.565mm|YSize=0.2mm|CornerRadius=0.005mm|HoleSize=0mm|Usage=FLASHONLY|Rotation=180.000|XOffset=0mm|YOffset=0mm|HoleType=Round|Shape=RoundedRectangle|*
%AMROUNDEDRECTD39*
21,1,0.5650,0.1900,0,0,180.0*
21,1,0.5550,0.2000,0,0,180.0*
1,1,0.0100,-0.2775,0.0950*
1,1,0.0100,0.2775,0.0950*
1,1,0.0100,0.2775,-0.0950*
1,1,0.0100,-0.2775,-0.0950*
%
%ADD39ROUNDEDRECTD39*%
%ADD40R,0.2200X0.2300*%
G04:AMPARAMS|DCode=67|XSize=0.54mm|YSize=0.6mm|CornerRadius=0mm|HoleSize=0mm|Usage=FLASHONLY|Rotation=225.000|XOffset=0mm|YOffset=0mm|HoleType=Round|Shape=Rectangle|*
%AMROTATEDRECTD67*
4,1,4,-0.0212,0.4031,0.4031,-0.0212,0.0212,-0.4031,-0.4031,0.0212,-0.0212,0.4031,0.0*
%
%ADD67ROTATEDRECTD67*%

%ADD68R,0.6500X0.9000*%
G04:AMPARAMS|DCode=69|XSize=0.46mm|YSize=0.2mm|CornerRadius=0.025mm|HoleSize=0mm|Usage=FLASHONLY|Rotation=0.000|XOffset=0mm|YOffset=0mm|HoleType=Round|Shape=RoundedRectangle|*
%AMROUNDEDRECTD69*
21,1,0.4600,0.1500,0,0,0.0*
21,1,0.4100,0.2000,0,0,0.0*
1,1,0.0500,0.2050,-0.0750*
1,1,0.0500,-0.2050,-0.0750*
1,1,0.0500,-0.2050,0.0750*
1,1,0.0500,0.2050,0.0750*
%
%ADD69ROUNDEDRECTD69*%
%ADD70R,2.3000X1.8000*%
%ADD71R,1.2500X1.6000*%
%ADD72R,0.3200X0.6600*%
%ADD74R,0.2000X0.6000*%
%ADD75R,1.8000X2.3000*%
%ADD76R,1.2000X0.6000*%
%ADD77R,0.9000X0.6500*%
%ADD78R,1.0500X0.4000*%
%ADD79R,0.6500X1.5500*%
D19*
X1122004Y120651D02*
D03*
X1406712Y218731D02*
D03*
X1422293D02*
D03*
X1191923Y228151D02*
D03*
X901365Y215957D02*
D03*
X1192847Y175872D02*
D03*
X1122004Y112051D02*
D03*
X1125792Y77137D02*
D03*
X1110791Y77137D02*
D03*
X907186Y48131D02*
D03*
X920986Y47917D02*
D03*
X882660Y243528D02*
D03*
X686513Y243503D02*
D03*
X487562Y243527D02*
D03*
X228934Y253047D02*
D03*
X290912Y243083D02*
D03*
X214512Y253047D02*
D03*
X221942Y217406D02*
D03*
X208393Y217297D02*
D03*
X704492Y215758D02*
D03*
X505057Y216082D02*
D03*
X308900Y216171D02*
D03*
X154908Y276097D02*
D03*
X35401Y224401D02*
D03*
X152163Y214322D02*
D03*
X138570Y214434D02*
D03*
X125192Y214016D02*
D03*
X721827Y48813D02*
D03*
X708561Y48824D02*
D03*
X521295Y48568D02*
D03*
X507221D02*
D03*
X307345Y48620D02*
D03*
X321638D02*
D03*
X505057Y207482D02*
D03*
X1406712Y210131D02*
D03*
X1422293D02*
D03*
X208393Y225897D02*
D03*
X221942Y226006D02*
D03*
X214512Y244447D02*
D03*
X228934Y244447D02*
D03*
X907186Y56731D02*
D03*
X920986Y56517D02*
D03*
X125192Y222616D02*
D03*
X154908Y267497D02*
D03*
X138570Y223034D02*
D03*
X152163Y222922D02*
D03*
X708561Y57424D02*
D03*
X721827Y57413D02*
D03*
X704492Y207158D02*
D03*
X686513Y234903D02*
D03*
X901365Y207357D02*
D03*
X882660Y234928D02*
D03*
X35401Y233001D02*
D03*
X487562Y234927D02*
D03*
X308900Y207571D02*
D03*
X290912Y234483D02*
D03*
X507221Y57168D02*
D03*
X521295D02*
D03*
X1192847Y184472D02*
D03*
X307345Y57220D02*
D03*
X321638D02*
D03*
X1191923Y219551D02*
D03*
X1125792Y85737D02*
D03*
X1110791Y85737D02*
D03*
D23*
X894171Y160315D02*
D03*
X697310Y160275D02*
D03*
X497977Y159820D02*
D03*
X302113D02*
D03*
X310713D02*
D03*
X902771Y160315D02*
D03*
X705910Y160275D02*
D03*
X506577Y159820D02*
D03*
D26*
X1237798Y145291D02*
D03*
X1284269Y83414D02*
D03*
X1230666Y42431D02*
D03*
X1235916Y55742D02*
D03*
X1209397Y87813D02*
D03*
X1199054Y78282D02*
D03*
X1231717Y151372D02*
D03*
X1261991Y139327D02*
D03*
X1327525Y82849D02*
D03*
X1307941Y82497D02*
D03*
X1290350Y77333D02*
D03*
X1215478Y81732D02*
D03*
X1229835Y61823D02*
D03*
X1224584Y48512D02*
D03*
X1210253Y162147D02*
D03*
X1214713Y38989D02*
D03*
X1178940Y29299D02*
D03*
X1205135Y72201D02*
D03*
X1169452Y72350D02*
D03*
X1188116Y36643D02*
D03*
X1167332Y117299D02*
D03*
X1184332Y145286D02*
D03*
X1268072Y133246D02*
D03*
X1301860Y88578D02*
D03*
X1321443Y88930D02*
D03*
X1185021Y23217D02*
D03*
X1216334Y156066D02*
D03*
X1220794Y32908D02*
D03*
X1175533Y66269D02*
D03*
X1194197Y30562D02*
D03*
X1173413Y111217D02*
D03*
X1190413Y139205D02*
D03*
D28*
X191393Y278360D02*
D03*
X181153D02*
D03*
X254622Y148161D02*
D03*
X244382D02*
D03*
X254622Y162570D02*
D03*
X244382D02*
D03*
X640163Y235315D02*
D03*
X650403D02*
D03*
X835975Y235329D02*
D03*
X846215D02*
D03*
X439989Y235242D02*
D03*
X450229D02*
D03*
X244434Y238540D02*
D03*
X254674D02*
D03*
D37*
X1392651Y219918D02*
D03*
X893779Y47380D02*
D03*
X69591Y261357D02*
D03*
X875250Y173762D02*
D03*
X679858Y173166D02*
D03*
X480441Y173322D02*
D03*
X694589Y47380D02*
D03*
X493840D02*
D03*
X284337Y173423D02*
D03*
X194252Y178612D02*
D03*
X180586Y178742D02*
D03*
X217619Y167561D02*
D03*
X230162Y167458D02*
D03*
X293653Y47380D02*
D03*
X1392651Y209678D02*
D03*
X217619Y177801D02*
D03*
X230162Y177698D02*
D03*
X893779Y57620D02*
D03*
X194252Y188852D02*
D03*
X180586Y188982D02*
D03*
X153645D02*
D03*
Y178742D02*
D03*
X166921Y189243D02*
D03*
Y179003D02*
D03*
X694589Y57620D02*
D03*
X679858Y183406D02*
D03*
X875250Y184002D02*
D03*
X69591Y251117D02*
D03*
X480441Y183562D02*
D03*
X284337Y183663D02*
D03*
X493840Y57620D02*
D03*
X860643Y265385D02*
D03*
Y255145D02*
D03*
X666431Y265385D02*
D03*
Y255145D02*
D03*
X466017Y265385D02*
D03*
Y255145D02*
D03*
X272065Y265385D02*
D03*
Y255145D02*
D03*
X1192202Y206937D02*
D03*
Y196697D02*
D03*
X293653Y57620D02*
D03*
D39*
X1336405Y160000D02*
D03*
Y155000D02*
D03*
Y145000D02*
D03*
Y140000D02*
D03*
X1344754D02*
D03*
Y145000D02*
D03*
Y155000D02*
D03*
Y160000D02*
D03*
D40*
X1325743Y155000D02*
D03*
X1322043D02*
D03*
X1325743Y160000D02*
D03*
X1322043D02*
D03*
D67*
X1235117Y129005D02*
D03*
X1229035Y122924D02*
D03*
X1244691Y119737D02*
D03*
X1263306Y100281D02*
D03*
X1272451Y90953D02*
D03*
X1247422Y48415D02*
D03*
X1199250Y97864D02*
D03*
X1253503Y54496D02*
D03*
X1317533Y104343D02*
D03*
X1277724Y124091D02*
D03*
X1247744Y100266D02*
D03*
X1266370Y84872D02*
D03*
X1257225Y94200D02*
D03*
X1238610Y113656D02*
D03*
X1205331Y103945D02*
D03*
X1203142Y54984D02*
D03*
X1176914Y47682D02*
D03*
X1253825Y106347D02*
D03*
X1271643Y118010D02*
D03*
X1311452Y98262D02*
D03*
X1197061Y48903D02*
D03*
X1182995Y53763D02*
D03*
D68*
X1104621Y119166D02*
D03*
X1093408Y85777D02*
D03*
X1078907D02*
D03*
X1090121Y119166D02*
D03*
D69*
X1345803Y124571D02*
D03*
X1335403Y121071D02*
D03*
Y128071D02*
D03*
D70*
X930993Y227840D02*
D03*
X733130D02*
D03*
X533416Y227153D02*
D03*
X337172Y224876D02*
D03*
X733130Y198840D02*
D03*
X930993D02*
D03*
X533416Y198153D02*
D03*
X337172Y195876D02*
D03*
D71*
X1174319Y183317D02*
D03*
X1152319Y220317D02*
D03*
Y183317D02*
D03*
X1174319Y220317D02*
D03*
D72*
X680135Y218905D02*
D03*
X875918D02*
D03*
X480759D02*
D03*
X284118Y218905D02*
D03*
X686635Y218905D02*
D03*
X673635D02*
D03*
Y198405D02*
D03*
X680135D02*
D03*
X686635D02*
D03*
X882418Y218905D02*
D03*
X869418D02*
D03*
Y198405D02*
D03*
X875918D02*
D03*
X882418D02*
D03*
X487259Y218905D02*
D03*
X474259D02*
D03*
Y198405D02*
D03*
X480759D02*
D03*
X487259D02*
D03*
X290618Y218905D02*
D03*
X277618D02*
D03*
Y198405D02*
D03*
X284118D02*
D03*
X290618D02*
D03*
D74*
X191121Y252573D02*
D03*
X176121D02*
D03*
X186121D02*
D03*
X181121D02*
D03*
X176121Y229573D02*
D03*
X181121D02*
D03*
X186121D02*
D03*
X191121D02*
D03*
D75*
X102991Y263497D02*
D03*
X131991D02*
D03*
D76*
X81831Y216591D02*
D03*
Y235591D02*
D03*
Y226091D02*
D03*
X56831Y216591D02*
D03*
Y235591D02*
D03*
D77*
X309229Y179566D02*
D03*
X901269Y179643D02*
D03*
Y194143D02*
D03*
X704425Y179566D02*
D03*
Y194066D02*
D03*
X505092Y179566D02*
D03*
Y194066D02*
D03*
X309229Y194066D02*
D03*
D78*
X176871Y244573D02*
D03*
Y237573D02*
D03*
X190371D02*
D03*
Y244573D02*
D03*
D79*
X635750Y216767D02*
D03*
X654949D02*
D03*
X645350Y199767D02*
D03*
X831508Y216767D02*
D03*
X850708D02*
D03*
X841108Y199767D02*
D03*
X435559Y216767D02*
D03*
X454759D02*
D03*
X445159Y199767D02*
D03*
X240500Y216767D02*
D03*
X259700D02*
D03*
X250100Y199767D02*
D03*
M02*
